<ttFont>
<head>
    <!-- Most of this table will be recalculated by the compiler -->
    <tableVersion value="1.0"/>
    <fontRevision value="2.201"/>
    <checkSumAdjustment value="0x358f9d37"/>
    <magicNumber value="0x5f0f3cf5"/>
    <flags value="00000000 00011011"/>
    <unitsPerEm value="1000"/>
    <created value="Sat Jan 23 04:21:10 2016"/>
    <modified value="Thu Mar 10 20:57:13 2016"/>
    <xMin value="-132"/>
    <yMin value="-276"/>
    <xMax value="1033"/>
    <yMax value="1066"/>
    <macStyle value="00000000 00000010"/>
    <lowestRecPPEM value="5"/>
    <fontDirectionHint value="2"/>
    <indexToLocFormat value="0"/>
    <glyphDataFormat value="0"/>
  </head>
    <TTGlyph name=".notdef" xMin="0" yMin="-200" xMax="500" yMax="800">
      <contour>
        <pt x="0" y="800" on="1"/>
        <pt x="500" y="800" on="1"/>
        <pt x="500" y="-200" on="1"/>
        <pt x="0" y="-200" on="1"/>
      </contour>
      <contour>
        <pt x="250" y="360" on="1"/>
        <pt x="429" y="750" on="1"/>
        <pt x="71" y="750" on="1"/>
      </contour>
      <contour>
        <pt x="222" y="300" on="1"/>
        <pt x="50" y="676" on="1"/>
        <pt x="50" y="-76" on="1"/>
      </contour>
      <contour>
        <pt x="278" y="300" on="1"/>
        <pt x="450" y="-76" on="1"/>
        <pt x="450" y="676" on="1"/>
      </contour>
      <contour>
        <pt x="71" y="-150" on="1"/>
        <pt x="429" y="-150" on="1"/>
        <pt x="250" y="240" on="1"/>
      </contour>
    </TTGlyph>
    <TTGlyph name="A" xMin="-18" yMin="-9" xMax="591" yMax="727">
      <contour>
        <pt x="402" y="151" on="1"/>
        <pt x="212" y="151" on="1"/>
        <pt x="152" y="0" on="1"/>
        <pt x="-18" y="0" on="1"/>
        <pt x="301" y="727" on="1"/>
        <pt x="491" y="727" on="1"/>
        <pt x="591" y="21" on="1"/>
        <pt x="419" y="-9" on="1"/>
      </contour>
      <contour>
        <pt x="265" y="288" on="1"/>
        <pt x="390" y="288" on="1"/>
        <pt x="364" y="539" on="1"/>
      </contour>
    </TTGlyph>
    <TTGlyph name="A.flat" xMin="-18" yMin="0" xMax="595" yMax="727">
      <contour>
        <pt x="401" y="151" on="1"/>
        <pt x="212" y="151" on="1"/>
        <pt x="152" y="0" on="1"/>
        <pt x="-18" y="0" on="1"/>
        <pt x="301" y="727" on="1"/>
        <pt x="491" y="727" on="1"/>
        <pt x="595" y="0" on="1"/>
        <pt x="417" y="0" on="1"/>
      </contour>
      <contour>
        <pt x="265" y="288" on="1"/>
        <pt x="390" y="288" on="1"/>
        <pt x="364" y="539" on="1"/>
      </contour>
    </TTGlyph>
    <TTGlyph name="AE" xMin="-35" yMin="0" xMax="877" yMax="725">
      <contour>
        <pt x="-35" y="0" on="1"/>
        <pt x="375" y="725" on="1"/>
        <pt x="877" y="725" on="1"/>
        <pt x="856" y="582" on="1"/>
        <pt x="634" y="582" on="1"/>
        <pt x="624" y="514" on="1"/>
        <pt x="620" y="488" on="0"/>
        <pt x="613" y="446" on="0"/>
        <pt x="614" y="446" on="1"/>
        <pt x="776" y="446" on="1"/>
        <pt x="776" y="302" on="1"/>
        <pt x="591" y="302" on="1"/>
        <pt x="567" y="142" on="1"/>
        <pt x="799" y="142" on="1"/>
        <pt x="778" y="0" on="1"/>
        <pt x="375" y="0" on="1"/>
        <pt x="398" y="152" on="1"/>
        <pt x="220" y="152" on="1"/>
        <pt x="134" y="0" on="1"/>
      </contour>
      <contour>
        <pt x="418" y="288" on="1"/>
        <pt x="466" y="614" on="1"/>
        <pt x="292" y="288" on="1"/>
      </contour>
    </TTGlyph>
    <TTGlyph name="AE.flat" xMin="-35" yMin="0" xMax="877" yMax="725">
      <contour>
        <pt x="-35" y="0" on="1"/>
        <pt x="375" y="725" on="1"/>
        <pt x="877" y="725" on="1"/>
        <pt x="856" y="582" on="1"/>
        <pt x="634" y="582" on="1"/>
        <pt x="624" y="514" on="1"/>
        <pt x="620" y="488" on="0"/>
        <pt x="613" y="446" on="0"/>
        <pt x="614" y="446" on="1"/>
        <pt x="786" y="446" on="1"/>
        <pt x="764" y="302" on="1"/>
        <pt x="591" y="302" on="1"/>
        <pt x="567" y="142" on="1"/>
        <pt x="799" y="142" on="1"/>
        <pt x="778" y="0" on="1"/>
        <pt x="375" y="0" on="1"/>
        <pt x="398" y="152" on="1"/>
        <pt x="220" y="152" on="1"/>
        <pt x="134" y="0" on="1"/>
      </contour>
      <contour>
        <pt x="418" y="288" on="1"/>
        <pt x="466" y="614" on="1"/>
        <pt x="292" y="288" on="1"/>
      </contour>
    </TTGlyph>
    <TTGlyph name="AEacute" xMin="-35" yMin="0" xMax="877" yMax="930">
      <component glyphName="acute.cap" x="363" y="204" flags="0x4"/>
      <component glyphName="AE" x="0" y="0" flags="0x4"/>
    </TTGlyph>
    <TTGlyph name="AEacute.flat" xMin="-35" yMin="0" xMax="877" yMax="930">
      <component glyphName="acute.cap" x="363" y="204" flags="0x4"/>
      <component glyphName="AE.flat" x="0" y="0" flags="0x4"/>
    </TTGlyph>
    <TTGlyph name="Aacute" xMin="-18" yMin="-9" xMax="601" yMax="939">
      <component glyphName="A" x="0" y="0" flags="0x204"/>
      <component glyphName="acute.cap" x="196" y="213" flags="0x4"/>
    </TTGlyph>
    <TTGlyph name="Aacute.flat" xMin="-18" yMin="0" xMax="601" yMax="939">
      <component glyphName="acute.cap" x="196" y="213" flags="0x4"/>
      <component glyphName="A.flat" x="0" y="0" flags="0x4"/>
    </TTGlyph>
    <TTGlyph name="Abreve" xMin="-18" yMin="-9" xMax="591" yMax="935">
      <component glyphName="A" x="0" y="0" flags="0x204"/>
      <component glyphName="breve.cap" x="143" y="213" flags="0x4"/>
    </TTGlyph>
    <TTGlyph name="Abreve.flat" xMin="-18" yMin="0" xMax="595" yMax="935">
      <component glyphName="breve.cap" x="143" y="213" flags="0x4"/>
      <component glyphName="A.flat" x="0" y="0" flags="0x4"/>
    </TTGlyph>
    <TTGlyph name="Acircumflex" xMin="-18" yMin="-9" xMax="591" yMax="933">
      <component glyphName="A" x="0" y="0" flags="0x204"/>
      <component glyphName="circumflex.cap" x="139" y="210" flags="0x4"/>
    </TTGlyph>
    <TTGlyph name="Acircumflex.flat" xMin="-18" yMin="0" xMax="595" yMax="933">
      <component glyphName="A.flat" x="0" y="0" flags="0x204"/>
      <component glyphName="circumflex.cap" x="139" y="210" flags="0x4"/>
    </TTGlyph>
    <TTGlyph name="Adieresis" xMin="-18" yMin="-9" xMax="591" yMax="918">
      <component glyphName="A" x="0" y="0" flags="0x204"/>
      <component glyphName="dieresis.cap" x="142" y="213" flags="0x4"/>
    </TTGlyph>
    <TTGlyph name="Adieresis.flat" xMin="-18" yMin="0" xMax="595" yMax="918">
      <component glyphName="dieresis.cap" x="142" y="213" flags="0x4"/>
      <component glyphName="A.flat" x="0" y="0" flags="0x4"/>
    </TTGlyph>
    <TTGlyph name="Agrave" xMin="-18" yMin="-9" xMax="591" yMax="939">
      <component glyphName="A" x="0" y="0" flags="0x204"/>
      <component glyphName="grave.cap" x="78" y="213" flags="0x4"/>
    </TTGlyph>
    <TTGlyph name="Agrave.flat" xMin="-18" yMin="0" xMax="595" yMax="939">
      <component glyphName="grave.cap" x="78" y="213" flags="0x4"/>
      <component glyphName="A.flat" x="0" y="0" flags="0x4"/>
    </TTGlyph>
    <TTGlyph name="Amacron" xMin="-18" yMin="-9" xMax="591" yMax="899">
      <component glyphName="A" x="0" y="0" flags="0x204"/>
      <component glyphName="macron.cap" x="142" y="213" flags="0x4"/>
    </TTGlyph>
    <TTGlyph name="Amacron.flat" xMin="-18" yMin="0" xMax="595" yMax="899">
      <component glyphName="macron.cap" x="142" y="213" flags="0x4"/>
      <component glyphName="A.flat" x="0" y="0" flags="0x4"/>
    </TTGlyph>
    <TTGlyph name="Aogonek" xMin="-18" yMin="-208" xMax="591" yMax="727">
      <contour>
        <pt x="528" y="10" on="1"/>
        <pt x="512" y="-10" on="1"/>
        <pt x="487" y="-43" on="0"/>
        <pt x="465" y="-80" on="0"/>
        <pt x="465" y="-94" on="1"/>
        <pt x="465" y="-121" on="0"/>
        <pt x="502" y="-121" on="1"/>
        <pt x="514" y="-121" on="0"/>
        <pt x="535" y="-118" on="0"/>
        <pt x="548" y="-116" on="1"/>
        <pt x="537" y="-191" on="1"/>
        <pt x="516" y="-199" on="0"/>
        <pt x="472" y="-208" on="0"/>
        <pt x="443" y="-208" on="1"/>
        <pt x="398" y="-208" on="0"/>
        <pt x="349" y="-168" on="0"/>
        <pt x="349" y="-132" on="1"/>
        <pt x="349" y="-106" on="0"/>
        <pt x="378" y="-52" on="0"/>
        <pt x="408" y="-19" on="1"/>
        <pt x="410" y="-16" on="0"/>
        <pt x="416" y="-10" on="0"/>
        <pt x="419" y="-7" on="1"/>
        <pt x="402" y="151" on="1"/>
        <pt x="212" y="151" on="1"/>
        <pt x="152" y="0" on="1"/>
        <pt x="-18" y="0" on="1"/>
        <pt x="301" y="727" on="1"/>
        <pt x="491" y="727" on="1"/>
        <pt x="591" y="21" on="1"/>
      </contour>
      <contour>
        <pt x="265" y="288" on="1"/>
        <pt x="390" y="288" on="1"/>
        <pt x="364" y="539" on="1"/>
      </contour>
    </TTGlyph>
    <TTGlyph name="Aogonek.flat" xMin="-18" yMin="-208" xMax="595" yMax="727">
      <contour>
        <pt x="340" y="-132" on="1"/>
        <pt x="340" y="-103" on="0"/>
        <pt x="374" y="-45" on="0"/>
        <pt x="407" y="-10" on="1"/>
        <pt x="414" y="-3" on="1"/>
        <pt x="417" y="0" on="1"/>
        <pt x="401" y="151" on="1"/>
        <pt x="212" y="151" on="1"/>
        <pt x="152" y="0" on="1"/>
        <pt x="-18" y="0" on="1"/>
        <pt x="301" y="727" on="1"/>
        <pt x="491" y="727" on="1"/>
        <pt x="595" y="0" on="1"/>
        <pt x="511" y="0" on="1"/>
        <pt x="503" y="-10" on="1"/>
        <pt x="477" y="-42" on="0"/>
        <pt x="456" y="-80" on="0"/>
        <pt x="456" y="-94" on="1"/>
        <pt x="456" y="-121" on="0"/>
        <pt x="493" y="-121" on="1"/>
        <pt x="505" y="-121" on="0"/>
        <pt x="526" y="-118" on="0"/>
        <pt x="539" y="-116" on="1"/>
        <pt x="528" y="-191" on="1"/>
        <pt x="507" y="-199" on="0"/>
        <pt x="463" y="-208" on="0"/>
        <pt x="434" y="-208" on="1"/>
        <pt x="389" y="-208" on="0"/>
        <pt x="340" y="-168" on="0"/>
      </contour>
      <contour>
        <pt x="265" y="288" on="1"/>
        <pt x="390" y="288" on="1"/>
        <pt x="364" y="539" on="1"/>
      </contour>
    </TTGlyph>
    <TTGlyph name="Aring" xMin="-18" yMin="-9" xMax="591" yMax="889">
      <contour>
        <pt x="402" y="151" on="1"/>
        <pt x="212" y="151" on="1"/>
        <pt x="152" y="0" on="1"/>
        <pt x="-18" y="0" on="1"/>
        <pt x="289" y="700" on="1"/>
        <pt x="262" y="728" on="0"/>
        <pt x="262" y="774" on="1"/>
        <pt x="262" y="825" on="0"/>
        <pt x="335" y="889" on="0"/>
        <pt x="398" y="889" on="1"/>
        <pt x="461" y="889" on="0"/>
        <pt x="534" y="825" on="0"/>
        <pt x="534" y="774" on="1"/>
        <pt x="534" y="720" on="0"/>
        <pt x="497" y="689" on="1"/>
        <pt x="591" y="21" on="1"/>
        <pt x="419" y="-9" on="1"/>
      </contour>
      <contour>
        <pt x="265" y="288" on="1"/>
        <pt x="390" y="288" on="1"/>
        <pt x="364" y="539" on="1"/>
      </contour>
      <contour>
        <pt x="398" y="717" on="1"/>
        <pt x="423" y="717" on="0"/>
        <pt x="449" y="748" on="0"/>
        <pt x="449" y="774" on="1"/>
        <pt x="449" y="799" on="0"/>
        <pt x="423" y="831" on="0"/>
        <pt x="398" y="831" on="1"/>
        <pt x="374" y="831" on="0"/>
        <pt x="347" y="799" on="0"/>
        <pt x="347" y="774" on="1"/>
        <pt x="347" y="748" on="0"/>
        <pt x="374" y="717" on="0"/>
      </contour>
    </TTGlyph>
    <TTGlyph name="Aring.flat" xMin="-18" yMin="0" xMax="595" yMax="889">
      <contour>
        <pt x="401" y="151" on="1"/>
        <pt x="212" y="151" on="1"/>
        <pt x="152" y="0" on="1"/>
        <pt x="-18" y="0" on="1"/>
        <pt x="289" y="700" on="1"/>
        <pt x="262" y="728" on="0"/>
        <pt x="262" y="774" on="1"/>
        <pt x="262" y="825" on="0"/>
        <pt x="335" y="889" on="0"/>
        <pt x="398" y="889" on="1"/>
        <pt x="461" y="889" on="0"/>
        <pt x="534" y="825" on="0"/>
        <pt x="534" y="774" on="1"/>
        <pt x="534" y="720" on="0"/>
        <pt x="497" y="689" on="1"/>
        <pt x="595" y="0" on="1"/>
        <pt x="417" y="0" on="1"/>
      </contour>
      <contour>
        <pt x="265" y="288" on="1"/>
        <pt x="390" y="288" on="1"/>
        <pt x="364" y="539" on="1"/>
      </contour>
      <contour>
        <pt x="398" y="717" on="1"/>
        <pt x="423" y="717" on="0"/>
        <pt x="449" y="748" on="0"/>
        <pt x="449" y="774" on="1"/>
        <pt x="449" y="799" on="0"/>
        <pt x="423" y="831" on="0"/>
        <pt x="398" y="831" on="1"/>
        <pt x="374" y="831" on="0"/>
        <pt x="347" y="799" on="0"/>
        <pt x="347" y="774" on="1"/>
        <pt x="347" y="748" on="0"/>
        <pt x="374" y="717" on="0"/>
      </contour>
    </TTGlyph>
    <TTGlyph name="Aringacute" xMin="-18" yMin="-9" xMax="618" yMax="1066">
      <contour>
        <pt x="402" y="151" on="1"/>
        <pt x="212" y="151" on="1"/>
        <pt x="152" y="0" on="1"/>
        <pt x="-18" y="0" on="1"/>
        <pt x="289" y="700" on="1"/>
        <pt x="262" y="728" on="0"/>
        <pt x="262" y="774" on="1"/>
        <pt x="262" y="825" on="0"/>
        <pt x="335" y="889" on="0"/>
        <pt x="398" y="889" on="1"/>
        <pt x="461" y="889" on="0"/>
        <pt x="534" y="825" on="0"/>
        <pt x="534" y="774" on="1"/>
        <pt x="534" y="720" on="0"/>
        <pt x="497" y="689" on="1"/>
        <pt x="591" y="21" on="1"/>
        <pt x="419" y="-9" on="1"/>
      </contour>
      <contour>
        <pt x="265" y="288" on="1"/>
        <pt x="390" y="288" on="1"/>
        <pt x="364" y="539" on="1"/>
      </contour>
      <contour>
        <pt x="398" y="717" on="1"/>
        <pt x="423" y="717" on="0"/>
        <pt x="449" y="748" on="0"/>
        <pt x="449" y="774" on="1"/>
        <pt x="449" y="799" on="0"/>
        <pt x="423" y="831" on="0"/>
        <pt x="398" y="831" on="1"/>
        <pt x="374" y="831" on="0"/>
        <pt x="347" y="799" on="0"/>
        <pt x="347" y="774" on="1"/>
        <pt x="347" y="748" on="0"/>
        <pt x="374" y="717" on="0"/>
      </contour>
      <contour>
        <pt x="460" y="908" on="1"/>
        <pt x="363" y="908" on="1"/>
        <pt x="443" y="1066" on="1"/>
        <pt x="618" y="1033" on="1"/>
      </contour>
    </TTGlyph>
    <TTGlyph name="Aringacute.flat" xMin="-18" yMin="0" xMax="625" yMax="1066">
      <contour>
        <pt x="401" y="151" on="1"/>
        <pt x="212" y="151" on="1"/>
        <pt x="152" y="0" on="1"/>
        <pt x="-18" y="0" on="1"/>
        <pt x="289" y="700" on="1"/>
        <pt x="262" y="728" on="0"/>
        <pt x="262" y="774" on="1"/>
        <pt x="262" y="825" on="0"/>
        <pt x="335" y="889" on="0"/>
        <pt x="398" y="889" on="1"/>
        <pt x="461" y="889" on="0"/>
        <pt x="534" y="825" on="0"/>
        <pt x="534" y="774" on="1"/>
        <pt x="534" y="720" on="0"/>
        <pt x="497" y="689" on="1"/>
        <pt x="595" y="0" on="1"/>
        <pt x="417" y="0" on="1"/>
      </contour>
      <contour>
        <pt x="265" y="288" on="1"/>
        <pt x="390" y="288" on="1"/>
        <pt x="364" y="539" on="1"/>
      </contour>
      <contour>
        <pt x="398" y="717" on="1"/>
        <pt x="423" y="717" on="0"/>
        <pt x="449" y="748" on="0"/>
        <pt x="449" y="774" on="1"/>
        <pt x="449" y="799" on="0"/>
        <pt x="423" y="831" on="0"/>
        <pt x="398" y="831" on="1"/>
        <pt x="374" y="831" on="0"/>
        <pt x="347" y="799" on="0"/>
        <pt x="347" y="774" on="1"/>
        <pt x="347" y="748" on="0"/>
        <pt x="374" y="717" on="0"/>
      </contour>
      <contour>
        <pt x="467" y="908" on="1"/>
        <pt x="370" y="908" on="1"/>
        <pt x="450" y="1066" on="1"/>
        <pt x="625" y="1033" on="1"/>
      </contour>
    </TTGlyph>
    <TTGlyph name="Atilde" xMin="-18" yMin="-9" xMax="591" yMax="943">
      <component glyphName="A" x="0" y="0" flags="0x204"/>
      <component glyphName="tilde.cap" x="144" y="213" flags="0x4"/>
    </TTGlyph>
    <TTGlyph name="Atilde.flat" xMin="-18" yMin="0" xMax="595" yMax="943">
      <component glyphName="tilde.cap" x="144" y="213" flags="0x4"/>
      <component glyphName="A.flat" x="0" y="0" flags="0x4"/>
    </TTGlyph>
    <TTGlyph name="B" xMin="24" yMin="0" xMax="565" yMax="725">
      <contour>
        <pt x="565" y="555" on="1"/>
        <pt x="565" y="520" on="0"/>
        <pt x="544" y="465" on="0"/>
        <pt x="508" y="422" on="0"/>
        <pt x="462" y="392" on="0"/>
        <pt x="438" y="382" on="1"/>
        <pt x="483" y="361" on="0"/>
        <pt x="539" y="283" on="0"/>
        <pt x="539" y="225" on="1"/>
        <pt x="539" y="120" on="0"/>
        <pt x="386" y="0" on="0"/>
        <pt x="249" y="0" on="1"/>
        <pt x="24" y="0" on="1"/>
        <pt x="132" y="725" on="1"/>
        <pt x="328" y="725" on="1"/>
        <pt x="389" y="725" on="0"/>
        <pt x="478" y="700" on="0"/>
        <pt x="536" y="655" on="0"/>
        <pt x="565" y="592" on="0"/>
      </contour>
      <contour>
        <pt x="399" y="530" on="1"/>
        <pt x="399" y="565" on="0"/>
        <pt x="355" y="603" on="0"/>
        <pt x="310" y="603" on="1"/>
        <pt x="281" y="603" on="1"/>
        <pt x="256" y="431" on="1"/>
        <pt x="293" y="431" on="1"/>
        <pt x="338" y="431" on="0"/>
        <pt x="399" y="484" on="0"/>
      </contour>
      <contour>
        <pt x="371" y="228" on="1"/>
        <pt x="371" y="273" on="0"/>
        <pt x="317" y="316" on="0"/>
        <pt x="268" y="316" on="1"/>
        <pt x="239" y="316" on="1"/>
        <pt x="231" y="261" on="0"/>
        <pt x="224" y="218" on="1"/>
        <pt x="221" y="200" on="0"/>
        <pt x="215" y="165" on="0"/>
        <pt x="211" y="138" on="0"/>
        <pt x="209" y="121" on="0"/>
        <pt x="209" y="121" on="1"/>
        <pt x="249" y="121" on="1"/>
        <pt x="303" y="121" on="0"/>
        <pt x="371" y="178" on="0"/>
      </contour>
    </TTGlyph>
    <TTGlyph name="C" xMin="48" yMin="-12" xMax="576" yMax="737">
      <contour>
        <pt x="534" y="538" on="1"/>
        <pt x="507" y="560" on="0"/>
        <pt x="447" y="586" on="0"/>
        <pt x="414" y="586" on="1"/>
        <pt x="372" y="586" on="0"/>
        <pt x="303" y="541" on="0"/>
        <pt x="254" y="464" on="0"/>
        <pt x="227" y="362" on="0"/>
        <pt x="227" y="304" on="1"/>
        <pt x="227" y="219" on="0"/>
        <pt x="294" y="137" on="0"/>
        <pt x="351" y="137" on="1"/>
        <pt x="383" y="137" on="0"/>
        <pt x="450" y="160" on="0"/>
        <pt x="485" y="182" on="1"/>
        <pt x="486" y="31" on="1"/>
        <pt x="453" y="12" on="0"/>
        <pt x="367" y="-12" on="0"/>
        <pt x="316" y="-12" on="1"/>
        <pt x="255" y="-12" on="0"/>
        <pt x="156" y="27" on="0"/>
        <pt x="86" y="103" on="0"/>
        <pt x="48" y="215" on="0"/>
        <pt x="48" y="289" on="1"/>
        <pt x="48" y="384" on="0"/>
        <pt x="100" y="548" on="0"/>
        <pt x="193" y="668" on="0"/>
        <pt x="324" y="737" on="0"/>
        <pt x="402" y="737" on="1"/>
        <pt x="454" y="737" on="0"/>
        <pt x="540" y="710" on="0"/>
        <pt x="576" y="688" on="1"/>
      </contour>
    </TTGlyph>
    <TTGlyph name="Cacute" xMin="48" yMin="-12" xMax="610" yMax="939">
      <component glyphName="C" x="0" y="0" flags="0x204"/>
      <component glyphName="acute.cap" x="205" y="213" flags="0x4"/>
    </TTGlyph>
    <TTGlyph name="Ccaron" xMin="48" yMin="-12" xMax="596" yMax="935">
      <component glyphName="C" x="0" y="0" flags="0x204"/>
      <component glyphName="caron.cap" x="151" y="213" flags="0x4"/>
    </TTGlyph>
    <TTGlyph name="Ccedilla" xMin="48" yMin="-196" xMax="576" yMax="737">
      <component glyphName="C" x="0" y="0" flags="0x204"/>
      <component glyphName="cedilla.cap" x="77" y="-7" flags="0x4"/>
    </TTGlyph>
    <TTGlyph name="Cdotaccent" xMin="48" yMin="-12" xMax="576" yMax="918">
      <component glyphName="dotaccent.cap" x="152" y="213" flags="0x4"/>
      <component glyphName="C" x="0" y="0" flags="0x4"/>
    </TTGlyph>
    <TTGlyph name="D" xMin="24" yMin="0" xMax="628" yMax="725">
      <contour>
        <pt x="628" y="429" on="1"/>
        <pt x="628" y="331" on="0"/>
        <pt x="571" y="168" on="0"/>
        <pt x="512" y="110" on="1"/>
        <pt x="458" y="56" on="0"/>
        <pt x="305" y="0" on="0"/>
        <pt x="198" y="0" on="1"/>
        <pt x="24" y="0" on="1"/>
        <pt x="133" y="725" on="1"/>
        <pt x="308" y="725" on="1"/>
        <pt x="463" y="725" on="0"/>
        <pt x="628" y="575" on="0"/>
      </contour>
      <contour>
        <pt x="452" y="429" on="1"/>
        <pt x="452" y="514" on="0"/>
        <pt x="379" y="590" on="0"/>
        <pt x="310" y="590" on="1"/>
        <pt x="286" y="590" on="1"/>
        <pt x="218" y="136" on="1"/>
        <pt x="233" y="136" on="1"/>
        <pt x="281" y="136" on="0"/>
        <pt x="350" y="167" on="0"/>
        <pt x="375" y="192" on="1"/>
        <pt x="394" y="211" on="0"/>
        <pt x="423" y="265" on="0"/>
        <pt x="442" y="328" on="0"/>
        <pt x="452" y="396" on="0"/>
      </contour>
    </TTGlyph>
    <TTGlyph name="Dcaron" xMin="24" yMin="0" xMax="628" yMax="926">
      <component glyphName="caron.cap" x="111" y="204" flags="0x4"/>
      <component glyphName="D" x="0" y="0" flags="0x4"/>
    </TTGlyph>
    <TTGlyph name="Dcroat" xMin="35" yMin="0" xMax="652" yMax="725">
      <component glyphName="Eth" x="0" y="0" flags="0x204"/>
    </TTGlyph>
    <TTGlyph name="Dcroat.flat" xMin="22" yMin="0" xMax="652" yMax="725">
      <component glyphName="Eth.flat" x="0" y="0" flags="0x204"/>
    </TTGlyph>
    <TTGlyph name="E" xMin="24" yMin="0" xMax="532" yMax="725">
      <contour>
        <pt x="511" y="582" on="1"/>
        <pt x="283" y="582" on="1"/>
        <pt x="262" y="446" on="1"/>
        <pt x="431" y="446" on="1"/>
        <pt x="431" y="302" on="1"/>
        <pt x="240" y="302" on="1"/>
        <pt x="216" y="142" on="1"/>
        <pt x="454" y="142" on="1"/>
        <pt x="433" y="0" on="1"/>
        <pt x="24" y="0" on="1"/>
        <pt x="132" y="725" on="1"/>
        <pt x="532" y="725" on="1"/>
      </contour>
    </TTGlyph>
    <TTGlyph name="E.flat" xMin="24" yMin="0" xMax="532" yMax="725">
      <contour>
        <pt x="511" y="582" on="1"/>
        <pt x="283" y="582" on="1"/>
        <pt x="262" y="446" on="1"/>
        <pt x="442" y="446" on="1"/>
        <pt x="420" y="302" on="1"/>
        <pt x="240" y="302" on="1"/>
        <pt x="216" y="142" on="1"/>
        <pt x="454" y="142" on="1"/>
        <pt x="433" y="0" on="1"/>
        <pt x="24" y="0" on="1"/>
        <pt x="132" y="725" on="1"/>
        <pt x="532" y="725" on="1"/>
      </contour>
    </TTGlyph>
    <TTGlyph name="Eacute" xMin="24" yMin="0" xMax="538" yMax="930">
      <component glyphName="acute.cap" x="133" y="204" flags="0x4"/>
      <component glyphName="E" x="0" y="0" flags="0x4"/>
    </TTGlyph>
    <TTGlyph name="Eacute.flat" xMin="24" yMin="0" xMax="538" yMax="930">
      <component glyphName="E.flat" x="0" y="0" flags="0x204"/>
      <component glyphName="acute.cap" x="133" y="204" flags="0x4"/>
    </TTGlyph>
    <TTGlyph name="Ebreve" xMin="24" yMin="0" xMax="532" yMax="926">
      <component glyphName="breve.cap" x="80" y="204" flags="0x4"/>
      <component glyphName="E" x="0" y="0" flags="0x4"/>
    </TTGlyph>
    <TTGlyph name="Ebreve.flat" xMin="24" yMin="0" xMax="532" yMax="926">
      <component glyphName="breve.cap" x="80" y="204" flags="0x4"/>
      <component glyphName="E.flat" x="0" y="0" flags="0x4"/>
    </TTGlyph>
    <TTGlyph name="Ecaron" xMin="24" yMin="0" xMax="532" yMax="926">
      <component glyphName="caron.cap" x="80" y="204" flags="0x4"/>
      <component glyphName="E" x="0" y="0" flags="0x4"/>
    </TTGlyph>
    <TTGlyph name="Ecaron.flat" xMin="24" yMin="0" xMax="532" yMax="926">
      <component glyphName="E.flat" x="0" y="0" flags="0x204"/>
      <component glyphName="caron.cap" x="80" y="204" flags="0x4"/>
    </TTGlyph>
    <TTGlyph name="Ecircumflex" xMin="24" yMin="0" xMax="532" yMax="927">
      <component glyphName="E" x="0" y="0" flags="0x204"/>
      <component glyphName="circumflex.cap" x="76" y="204" flags="0x4"/>
    </TTGlyph>
    <TTGlyph name="Ecircumflex.flat" xMin="24" yMin="0" xMax="532" yMax="927">
      <component glyphName="E.flat" x="0" y="0" flags="0x204"/>
      <component glyphName="circumflex.cap" x="76" y="204" flags="0x4"/>
    </TTGlyph>
    <TTGlyph name="Edieresis" xMin="24" yMin="0" xMax="532" yMax="909">
      <component glyphName="dieresis.cap" x="79" y="204" flags="0x4"/>
      <component glyphName="E" x="0" y="0" flags="0x4"/>
    </TTGlyph>
    <TTGlyph name="Edieresis.flat" xMin="24" yMin="0" xMax="532" yMax="909">
      <component glyphName="E.flat" x="0" y="0" flags="0x204"/>
      <component glyphName="dieresis.cap" x="79" y="204" flags="0x4"/>
    </TTGlyph>
    <TTGlyph name="Edotaccent" xMin="24" yMin="0" xMax="532" yMax="909">
      <component glyphName="dotaccent.cap" x="79" y="204" flags="0x4"/>
      <component glyphName="E" x="0" y="0" flags="0x4"/>
    </TTGlyph>
    <TTGlyph name="Edotaccent.flat" xMin="24" yMin="0" xMax="532" yMax="909">
      <component glyphName="dotaccent.cap" x="79" y="204" flags="0x4"/>
      <component glyphName="E.flat" x="0" y="0" flags="0x4"/>
    </TTGlyph>
    <TTGlyph name="Egrave" xMin="24" yMin="0" xMax="532" yMax="930">
      <component glyphName="grave.cap" x="15" y="204" flags="0x4"/>
      <component glyphName="E" x="0" y="0" flags="0x4"/>
    </TTGlyph>
    <TTGlyph name="Egrave.flat" xMin="24" yMin="0" xMax="532" yMax="930">
      <component glyphName="grave.cap" x="15" y="204" flags="0x4"/>
      <component glyphName="E.flat" x="0" y="0" flags="0x4"/>
    </TTGlyph>
    <TTGlyph name="Emacron" xMin="24" yMin="0" xMax="532" yMax="890">
      <component glyphName="macron.cap" x="79" y="204" flags="0x4"/>
      <component glyphName="E" x="0" y="0" flags="0x4"/>
    </TTGlyph>
    <TTGlyph name="Emacron.flat" xMin="24" yMin="0" xMax="532" yMax="890">
      <component glyphName="E.flat" x="0" y="0" flags="0x204"/>
      <component glyphName="macron.cap" x="79" y="204" flags="0x4"/>
    </TTGlyph>
    <TTGlyph name="Eogonek" xMin="24" yMin="-208" xMax="532" yMax="725">
      <contour>
        <pt x="511" y="582" on="1"/>
        <pt x="283" y="582" on="1"/>
        <pt x="262" y="446" on="1"/>
        <pt x="431" y="446" on="1"/>
        <pt x="431" y="302" on="1"/>
        <pt x="240" y="302" on="1"/>
        <pt x="216" y="142" on="1"/>
        <pt x="454" y="142" on="1"/>
        <pt x="433" y="0" on="1"/>
        <pt x="393" y="0" on="1"/>
        <pt x="385" y="-10" on="1"/>
        <pt x="360" y="-43" on="0"/>
        <pt x="338" y="-80" on="0"/>
        <pt x="338" y="-94" on="1"/>
        <pt x="338" y="-121" on="0"/>
        <pt x="375" y="-121" on="1"/>
        <pt x="387" y="-121" on="0"/>
        <pt x="408" y="-118" on="0"/>
        <pt x="421" y="-116" on="1"/>
        <pt x="410" y="-191" on="1"/>
        <pt x="389" y="-199" on="0"/>
        <pt x="345" y="-208" on="0"/>
        <pt x="316" y="-208" on="1"/>
        <pt x="271" y="-208" on="0"/>
        <pt x="222" y="-168" on="0"/>
        <pt x="222" y="-132" on="1"/>
        <pt x="222" y="-103" on="0"/>
        <pt x="255" y="-46" on="0"/>
        <pt x="289" y="-11" on="1"/>
        <pt x="292" y="-7" on="0"/>
        <pt x="299" y="0" on="1"/>
        <pt x="24" y="0" on="1"/>
        <pt x="132" y="725" on="1"/>
        <pt x="532" y="725" on="1"/>
      </contour>
    </TTGlyph>
    <TTGlyph name="Eogonek.flat" xMin="24" yMin="-208" xMax="532" yMax="725">
      <contour>
        <pt x="511" y="582" on="1"/>
        <pt x="283" y="582" on="1"/>
        <pt x="262" y="446" on="1"/>
        <pt x="442" y="446" on="1"/>
        <pt x="420" y="302" on="1"/>
        <pt x="240" y="302" on="1"/>
        <pt x="216" y="142" on="1"/>
        <pt x="454" y="142" on="1"/>
        <pt x="433" y="0" on="1"/>
        <pt x="393" y="0" on="1"/>
        <pt x="385" y="-10" on="1"/>
        <pt x="360" y="-43" on="0"/>
        <pt x="338" y="-80" on="0"/>
        <pt x="338" y="-94" on="1"/>
        <pt x="338" y="-121" on="0"/>
        <pt x="375" y="-121" on="1"/>
        <pt x="387" y="-121" on="0"/>
        <pt x="408" y="-118" on="0"/>
        <pt x="421" y="-116" on="1"/>
        <pt x="410" y="-191" on="1"/>
        <pt x="389" y="-199" on="0"/>
        <pt x="345" y="-208" on="0"/>
        <pt x="316" y="-208" on="1"/>
        <pt x="271" y="-208" on="0"/>
        <pt x="222" y="-168" on="0"/>
        <pt x="222" y="-132" on="1"/>
        <pt x="222" y="-103" on="0"/>
        <pt x="255" y="-46" on="0"/>
        <pt x="288" y="-11" on="1"/>
        <pt x="299" y="0" on="1"/>
        <pt x="24" y="0" on="1"/>
        <pt x="132" y="725" on="1"/>
        <pt x="532" y="725" on="1"/>
      </contour>
    </TTGlyph>
    <TTGlyph name="Eth" xMin="35" yMin="0" xMax="652" yMax="725">
      <contour>
        <pt x="652" y="429" on="1"/>
        <pt x="652" y="331" on="0"/>
        <pt x="594" y="168" on="0"/>
        <pt x="537" y="110" on="1"/>
        <pt x="483" y="56" on="0"/>
        <pt x="330" y="0" on="0"/>
        <pt x="222" y="0" on="1"/>
        <pt x="48" y="0" on="1"/>
        <pt x="92" y="298" on="1"/>
        <pt x="35" y="298" on="1"/>
        <pt x="35" y="445" on="1"/>
        <pt x="114" y="445" on="1"/>
        <pt x="156" y="725" on="1"/>
        <pt x="332" y="725" on="1"/>
        <pt x="487" y="725" on="0"/>
        <pt x="652" y="575" on="0"/>
      </contour>
      <contour>
        <pt x="266" y="301" on="1"/>
        <pt x="241" y="136" on="1"/>
        <pt x="257" y="136" on="1"/>
        <pt x="305" y="136" on="0"/>
        <pt x="374" y="167" on="0"/>
        <pt x="399" y="192" on="1"/>
        <pt x="418" y="211" on="0"/>
        <pt x="446" y="265" on="0"/>
        <pt x="466" y="328" on="0"/>
        <pt x="476" y="396" on="0"/>
        <pt x="476" y="429" on="1"/>
        <pt x="476" y="514" on="0"/>
        <pt x="402" y="590" on="0"/>
        <pt x="334" y="590" on="1"/>
        <pt x="309" y="590" on="1"/>
        <pt x="287" y="442" on="1"/>
        <pt x="380" y="442" on="1"/>
        <pt x="359" y="301" on="1"/>
      </contour>
    </TTGlyph>
    <TTGlyph name="Eth.flat" xMin="22" yMin="0" xMax="652" yMax="725">
      <contour>
        <pt x="652" y="429" on="1"/>
        <pt x="652" y="331" on="0"/>
        <pt x="594" y="168" on="0"/>
        <pt x="537" y="110" on="1"/>
        <pt x="483" y="56" on="0"/>
        <pt x="330" y="0" on="0"/>
        <pt x="222" y="0" on="1"/>
        <pt x="48" y="0" on="1"/>
        <pt x="92" y="298" on="1"/>
        <pt x="22" y="298" on="1"/>
        <pt x="45" y="445" on="1"/>
        <pt x="114" y="445" on="1"/>
        <pt x="156" y="725" on="1"/>
        <pt x="332" y="725" on="1"/>
        <pt x="487" y="725" on="0"/>
        <pt x="652" y="575" on="0"/>
      </contour>
      <contour>
        <pt x="266" y="301" on="1"/>
        <pt x="241" y="136" on="1"/>
        <pt x="257" y="136" on="1"/>
        <pt x="305" y="136" on="0"/>
        <pt x="374" y="167" on="0"/>
        <pt x="399" y="192" on="1"/>
        <pt x="418" y="211" on="0"/>
        <pt x="446" y="265" on="0"/>
        <pt x="466" y="328" on="0"/>
        <pt x="476" y="396" on="0"/>
        <pt x="476" y="429" on="1"/>
        <pt x="476" y="514" on="0"/>
        <pt x="402" y="590" on="0"/>
        <pt x="334" y="590" on="1"/>
        <pt x="309" y="590" on="1"/>
        <pt x="287" y="442" on="1"/>
        <pt x="380" y="442" on="1"/>
        <pt x="359" y="301" on="1"/>
      </contour>
    </TTGlyph>
    <TTGlyph name="Euro" xMin="31" yMin="-13" xMax="625" yMax="730">
      <contour>
        <pt x="469" y="242" on="1"/>
        <pt x="277" y="242" on="1"/>
        <pt x="287" y="182" on="0"/>
        <pt x="348" y="122" on="0"/>
        <pt x="405" y="122" on="1"/>
        <pt x="438" y="122" on="0"/>
        <pt x="503" y="142" on="0"/>
        <pt x="535" y="161" on="1"/>
        <pt x="536" y="27" on="1"/>
        <pt x="506" y="11" on="0"/>
        <pt x="426" y="-13" on="0"/>
        <pt x="380" y="-13" on="1"/>
        <pt x="257" y="-13" on="0"/>
        <pt x="124" y="117" on="0"/>
        <pt x="113" y="242" on="1"/>
        <pt x="31" y="242" on="1"/>
        <pt x="31" y="322" on="1"/>
        <pt x="110" y="322" on="1"/>
        <pt x="111" y="363" on="0"/>
        <pt x="119" y="404" on="1"/>
        <pt x="48" y="404" on="1"/>
        <pt x="60" y="484" on="1"/>
        <pt x="139" y="484" on="1"/>
        <pt x="157" y="538" on="0"/>
        <pt x="215" y="628" on="0"/>
        <pt x="293" y="693" on="0"/>
        <pt x="391" y="730" on="0"/>
        <pt x="450" y="730" on="1"/>
        <pt x="507" y="730" on="0"/>
        <pt x="591" y="704" on="0"/>
        <pt x="625" y="681" on="1"/>
        <pt x="584" y="548" on="1"/>
        <pt x="552" y="571" on="0"/>
        <pt x="490" y="596" on="0"/>
        <pt x="455" y="596" on="1"/>
        <pt x="404" y="596" on="0"/>
        <pt x="328" y="537" on="0"/>
        <pt x="305" y="484" on="1"/>
        <pt x="499" y="484" on="1"/>
        <pt x="499" y="404" on="1"/>
        <pt x="281" y="404" on="1"/>
        <pt x="278" y="385" on="0"/>
        <pt x="274" y="344" on="0"/>
        <pt x="273" y="322" on="1"/>
        <pt x="481" y="322" on="1"/>
      </contour>
    </TTGlyph>
    <TTGlyph name="Euro.flat" xMin="25" yMin="-13" xMax="625" yMax="730">
      <contour>
        <pt x="469" y="242" on="1"/>
        <pt x="277" y="242" on="1"/>
        <pt x="287" y="182" on="0"/>
        <pt x="348" y="122" on="0"/>
        <pt x="405" y="122" on="1"/>
        <pt x="438" y="122" on="0"/>
        <pt x="503" y="142" on="0"/>
        <pt x="535" y="161" on="1"/>
        <pt x="536" y="27" on="1"/>
        <pt x="506" y="11" on="0"/>
        <pt x="426" y="-13" on="0"/>
        <pt x="380" y="-13" on="1"/>
        <pt x="257" y="-13" on="0"/>
        <pt x="124" y="117" on="0"/>
        <pt x="113" y="242" on="1"/>
        <pt x="25" y="242" on="1"/>
        <pt x="37" y="322" on="1"/>
        <pt x="110" y="322" on="1"/>
        <pt x="111" y="363" on="0"/>
        <pt x="119" y="404" on="1"/>
        <pt x="48" y="404" on="1"/>
        <pt x="60" y="484" on="1"/>
        <pt x="139" y="484" on="1"/>
        <pt x="157" y="538" on="0"/>
        <pt x="215" y="628" on="0"/>
        <pt x="293" y="693" on="0"/>
        <pt x="391" y="730" on="0"/>
        <pt x="450" y="730" on="1"/>
        <pt x="507" y="730" on="0"/>
        <pt x="591" y="704" on="0"/>
        <pt x="625" y="681" on="1"/>
        <pt x="584" y="548" on="1"/>
        <pt x="552" y="571" on="0"/>
        <pt x="490" y="596" on="0"/>
        <pt x="455" y="596" on="1"/>
        <pt x="404" y="596" on="0"/>
        <pt x="328" y="537" on="0"/>
        <pt x="305" y="484" on="1"/>
        <pt x="504" y="484" on="1"/>
        <pt x="493" y="404" on="1"/>
        <pt x="281" y="404" on="1"/>
        <pt x="278" y="385" on="0"/>
        <pt x="274" y="344" on="0"/>
        <pt x="273" y="322" on="1"/>
        <pt x="481" y="322" on="1"/>
      </contour>
    </TTGlyph>
    <TTGlyph name="Euro.tab" xMin="35" yMin="-10" xMax="560" yMax="731">
      <contour>
        <pt x="254" y="404" on="1"/>
        <pt x="251" y="385" on="0"/>
        <pt x="246" y="345" on="0"/>
        <pt x="245" y="324" on="1"/>
        <pt x="427" y="324" on="1"/>
        <pt x="414" y="243" on="1"/>
        <pt x="244" y="243" on="1"/>
        <pt x="250" y="170" on="0"/>
        <pt x="310" y="115" on="0"/>
        <pt x="356" y="115" on="1"/>
        <pt x="385" y="115" on="0"/>
        <pt x="442" y="135" on="0"/>
        <pt x="470" y="152" on="1"/>
        <pt x="470" y="28" on="1"/>
        <pt x="442" y="11" on="0"/>
        <pt x="371" y="-10" on="0"/>
        <pt x="331" y="-10" on="1"/>
        <pt x="228" y="-10" on="0"/>
        <pt x="107" y="113" on="0"/>
        <pt x="100" y="243" on="1"/>
        <pt x="35" y="243" on="1"/>
        <pt x="35" y="324" on="1"/>
        <pt x="101" y="324" on="1"/>
        <pt x="102" y="344" on="0"/>
        <pt x="107" y="384" on="0"/>
        <pt x="110" y="404" on="1"/>
        <pt x="54" y="404" on="1"/>
        <pt x="66" y="484" on="1"/>
        <pt x="130" y="484" on="1"/>
        <pt x="147" y="538" on="0"/>
        <pt x="199" y="629" on="0"/>
        <pt x="268" y="694" on="0"/>
        <pt x="354" y="731" on="0"/>
        <pt x="404" y="731" on="1"/>
        <pt x="452" y="731" on="0"/>
        <pt x="527" y="706" on="0"/>
        <pt x="560" y="684" on="1"/>
        <pt x="517" y="560" on="1"/>
        <pt x="490" y="582" on="0"/>
        <pt x="437" y="605" on="0"/>
        <pt x="408" y="605" on="1"/>
        <pt x="364" y="605" on="0"/>
        <pt x="297" y="540" on="0"/>
        <pt x="276" y="484" on="1"/>
        <pt x="447" y="484" on="1"/>
        <pt x="447" y="404" on="1"/>
      </contour>
    </TTGlyph>
    <TTGlyph name="Euro.tab_flat" xMin="29" yMin="-10" xMax="560" yMax="731">
      <contour>
        <pt x="254" y="404" on="1"/>
        <pt x="251" y="385" on="0"/>
        <pt x="246" y="345" on="0"/>
        <pt x="245" y="324" on="1"/>
        <pt x="427" y="324" on="1"/>
        <pt x="414" y="243" on="1"/>
        <pt x="244" y="243" on="1"/>
        <pt x="250" y="170" on="0"/>
        <pt x="310" y="115" on="0"/>
        <pt x="356" y="115" on="1"/>
        <pt x="385" y="115" on="0"/>
        <pt x="442" y="135" on="0"/>
        <pt x="470" y="152" on="1"/>
        <pt x="470" y="28" on="1"/>
        <pt x="442" y="11" on="0"/>
        <pt x="371" y="-10" on="0"/>
        <pt x="331" y="-10" on="1"/>
        <pt x="228" y="-10" on="0"/>
        <pt x="107" y="113" on="0"/>
        <pt x="100" y="243" on="1"/>
        <pt x="29" y="243" on="1"/>
        <pt x="40" y="324" on="1"/>
        <pt x="101" y="324" on="1"/>
        <pt x="102" y="344" on="0"/>
        <pt x="107" y="384" on="0"/>
        <pt x="110" y="404" on="1"/>
        <pt x="54" y="404" on="1"/>
        <pt x="66" y="484" on="1"/>
        <pt x="130" y="484" on="1"/>
        <pt x="147" y="538" on="0"/>
        <pt x="199" y="629" on="0"/>
        <pt x="268" y="694" on="0"/>
        <pt x="354" y="731" on="0"/>
        <pt x="404" y="731" on="1"/>
        <pt x="452" y="731" on="0"/>
        <pt x="527" y="706" on="0"/>
        <pt x="560" y="684" on="1"/>
        <pt x="517" y="560" on="1"/>
        <pt x="490" y="582" on="0"/>
        <pt x="437" y="605" on="0"/>
        <pt x="408" y="605" on="1"/>
        <pt x="364" y="605" on="0"/>
        <pt x="297" y="540" on="0"/>
        <pt x="276" y="484" on="1"/>
        <pt x="452" y="484" on="1"/>
        <pt x="441" y="404" on="1"/>
      </contour>
    </TTGlyph>
    <TTGlyph name="F" xMin="24" yMin="0" xMax="522" yMax="725">
      <contour>
        <pt x="501" y="576" on="1"/>
        <pt x="283" y="576" on="1"/>
        <pt x="261" y="426" on="1"/>
        <pt x="418" y="426" on="1"/>
        <pt x="418" y="277" on="1"/>
        <pt x="238" y="277" on="1"/>
        <pt x="197" y="0" on="1"/>
        <pt x="24" y="0" on="1"/>
        <pt x="132" y="725" on="1"/>
        <pt x="522" y="725" on="1"/>
      </contour>
    </TTGlyph>
    <TTGlyph name="F.flat" xMin="24" yMin="0" xMax="522" yMax="725">
      <contour>
        <pt x="501" y="576" on="1"/>
        <pt x="283" y="576" on="1"/>
        <pt x="261" y="426" on="1"/>
        <pt x="429" y="426" on="1"/>
        <pt x="407" y="277" on="1"/>
        <pt x="238" y="277" on="1"/>
        <pt x="197" y="0" on="1"/>
        <pt x="24" y="0" on="1"/>
        <pt x="132" y="725" on="1"/>
        <pt x="522" y="725" on="1"/>
      </contour>
    </TTGlyph>
    <TTGlyph name="G" xMin="49" yMin="-13" xMax="617" yMax="737">
      <contour>
        <pt x="546" y="49" on="1"/>
        <pt x="506" y="25" on="0"/>
        <pt x="392" y="-13" on="0"/>
        <pt x="325" y="-13" on="1"/>
        <pt x="195" y="-13" on="0"/>
        <pt x="49" y="144" on="0"/>
        <pt x="49" y="287" on="1"/>
        <pt x="49" y="381" on="0"/>
        <pt x="101" y="545" on="0"/>
        <pt x="197" y="667" on="0"/>
        <pt x="332" y="737" on="0"/>
        <pt x="415" y="737" on="1"/>
        <pt x="475" y="737" on="0"/>
        <pt x="575" y="708" on="0"/>
        <pt x="617" y="685" on="1"/>
        <pt x="570" y="537" on="1"/>
        <pt x="500" y="589" on="0"/>
        <pt x="420" y="589" on="1"/>
        <pt x="375" y="589" on="0"/>
        <pt x="303" y="543" on="0"/>
        <pt x="252" y="462" on="0"/>
        <pt x="225" y="353" on="0"/>
        <pt x="225" y="291" on="1"/>
        <pt x="225" y="203" on="0"/>
        <pt x="292" y="126" on="0"/>
        <pt x="342" y="126" on="1"/>
        <pt x="363" y="126" on="0"/>
        <pt x="393" y="135" on="0"/>
        <pt x="406" y="142" on="1"/>
        <pt x="426" y="286" on="1"/>
        <pt x="338" y="286" on="1"/>
        <pt x="338" y="415" on="1"/>
        <pt x="600" y="415" on="1"/>
      </contour>
    </TTGlyph>
    <TTGlyph name="G.flat" xMin="49" yMin="-13" xMax="617" yMax="737">
      <contour>
        <pt x="546" y="49" on="1"/>
        <pt x="506" y="25" on="0"/>
        <pt x="392" y="-13" on="0"/>
        <pt x="325" y="-13" on="1"/>
        <pt x="195" y="-13" on="0"/>
        <pt x="49" y="144" on="0"/>
        <pt x="49" y="287" on="1"/>
        <pt x="49" y="381" on="0"/>
        <pt x="101" y="545" on="0"/>
        <pt x="197" y="667" on="0"/>
        <pt x="332" y="737" on="0"/>
        <pt x="415" y="737" on="1"/>
        <pt x="475" y="737" on="0"/>
        <pt x="575" y="708" on="0"/>
        <pt x="617" y="685" on="1"/>
        <pt x="570" y="537" on="1"/>
        <pt x="500" y="589" on="0"/>
        <pt x="420" y="589" on="1"/>
        <pt x="375" y="589" on="0"/>
        <pt x="303" y="543" on="0"/>
        <pt x="252" y="462" on="0"/>
        <pt x="225" y="353" on="0"/>
        <pt x="225" y="291" on="1"/>
        <pt x="225" y="203" on="0"/>
        <pt x="292" y="126" on="0"/>
        <pt x="342" y="126" on="1"/>
        <pt x="363" y="126" on="0"/>
        <pt x="393" y="135" on="0"/>
        <pt x="406" y="142" on="1"/>
        <pt x="426" y="286" on="1"/>
        <pt x="328" y="286" on="1"/>
        <pt x="347" y="415" on="1"/>
        <pt x="600" y="415" on="1"/>
      </contour>
    </TTGlyph>
    <TTGlyph name="Gbreve" xMin="49" yMin="-13" xMax="617" yMax="935">
      <component glyphName="breve.cap" x="163" y="213" flags="0x4"/>
      <component glyphName="G" x="0" y="0" flags="0x4"/>
    </TTGlyph>
    <TTGlyph name="Gbreve.flat" xMin="49" yMin="-13" xMax="617" yMax="935">
      <component glyphName="breve.cap" x="163" y="213" flags="0x4"/>
      <component glyphName="G.flat" x="0" y="0" flags="0x4"/>
    </TTGlyph>
    <TTGlyph name="Gcommaaccent" xMin="49" yMin="-264" xMax="617" yMax="737">
      <component glyphName="G" x="0" y="0" flags="0x204"/>
      <component glyphName="commaaccent.cap" x="98" y="-8" flags="0x4"/>
    </TTGlyph>
    <TTGlyph name="Gcommaaccent.flat" xMin="49" yMin="-264" xMax="617" yMax="737">
      <component glyphName="G.flat" x="0" y="0" flags="0x204"/>
      <component glyphName="commaaccent.cap" x="98" y="-8" flags="0x4"/>
    </TTGlyph>
    <TTGlyph name="Gdotaccent" xMin="49" yMin="-13" xMax="617" yMax="918">
      <component glyphName="dotaccent.cap" x="163" y="213" flags="0x4"/>
      <component glyphName="G" x="0" y="0" flags="0x4"/>
    </TTGlyph>
    <TTGlyph name="Gdotaccent.flat" xMin="49" yMin="-13" xMax="617" yMax="918">
      <component glyphName="dotaccent.cap" x="163" y="213" flags="0x4"/>
      <component glyphName="G.flat" x="0" y="0" flags="0x4"/>
    </TTGlyph>
    <TTGlyph name="H" xMin="24" yMin="0" xMax="664" yMax="725">
      <contour>
        <pt x="556" y="0" on="1"/>
        <pt x="383" y="0" on="1"/>
        <pt x="427" y="294" on="1"/>
        <pt x="242" y="294" on="1"/>
        <pt x="198" y="0" on="1"/>
        <pt x="24" y="0" on="1"/>
        <pt x="132" y="725" on="1"/>
        <pt x="306" y="725" on="1"/>
        <pt x="265" y="451" on="1"/>
        <pt x="450" y="451" on="1"/>
        <pt x="491" y="725" on="1"/>
        <pt x="664" y="725" on="1"/>
      </contour>
    </TTGlyph>
    <TTGlyph name="Hbar" xMin="49" yMin="0" xMax="746" yMax="725">
      <contour>
        <pt x="658" y="531" on="1"/>
        <pt x="578" y="0" on="1"/>
        <pt x="404" y="0" on="1"/>
        <pt x="448" y="291" on="1"/>
        <pt x="267" y="291" on="1"/>
        <pt x="223" y="0" on="1"/>
        <pt x="49" y="0" on="1"/>
        <pt x="128" y="531" on="1"/>
        <pt x="63" y="531" on="1"/>
        <pt x="65" y="647" on="1"/>
        <pt x="145" y="647" on="1"/>
        <pt x="157" y="725" on="1"/>
        <pt x="330" y="725" on="1"/>
        <pt x="318" y="647" on="1"/>
        <pt x="502" y="647" on="1"/>
        <pt x="514" y="725" on="1"/>
        <pt x="687" y="725" on="1"/>
        <pt x="675" y="647" on="1"/>
        <pt x="746" y="647" on="1"/>
        <pt x="730" y="531" on="1"/>
      </contour>
      <contour>
        <pt x="471" y="438" on="1"/>
        <pt x="486" y="541" on="1"/>
        <pt x="302" y="541" on="1"/>
        <pt x="287" y="438" on="1"/>
      </contour>
    </TTGlyph>
    <TTGlyph name="Hbar.flat" xMin="49" yMin="0" xMax="746" yMax="725">
      <contour>
        <pt x="658" y="531" on="1"/>
        <pt x="578" y="0" on="1"/>
        <pt x="404" y="0" on="1"/>
        <pt x="448" y="291" on="1"/>
        <pt x="267" y="291" on="1"/>
        <pt x="223" y="0" on="1"/>
        <pt x="49" y="0" on="1"/>
        <pt x="128" y="531" on="1"/>
        <pt x="56" y="531" on="1"/>
        <pt x="74" y="647" on="1"/>
        <pt x="145" y="647" on="1"/>
        <pt x="157" y="725" on="1"/>
        <pt x="330" y="725" on="1"/>
        <pt x="318" y="647" on="1"/>
        <pt x="502" y="647" on="1"/>
        <pt x="514" y="725" on="1"/>
        <pt x="687" y="725" on="1"/>
        <pt x="675" y="647" on="1"/>
        <pt x="746" y="647" on="1"/>
        <pt x="730" y="531" on="1"/>
      </contour>
      <contour>
        <pt x="471" y="438" on="1"/>
        <pt x="486" y="541" on="1"/>
        <pt x="302" y="541" on="1"/>
        <pt x="287" y="438" on="1"/>
      </contour>
    </TTGlyph>
    <TTGlyph name="I" xMin="27" yMin="0" xMax="309" yMax="725">
      <contour>
        <pt x="201" y="0" on="1"/>
        <pt x="27" y="0" on="1"/>
        <pt x="135" y="725" on="1"/>
        <pt x="309" y="725" on="1"/>
      </contour>
    </TTGlyph>
    <TTGlyph name="Iacute" xMin="27" yMin="0" xMax="429" yMax="930">
      <component glyphName="I" x="0" y="0" flags="0x204"/>
      <component glyphName="acute.cap" x="24" y="204" flags="0x4"/>
    </TTGlyph>
    <TTGlyph name="Ibreve" xMin="27" yMin="0" xMax="401" yMax="926">
      <component glyphName="I" x="0" y="0" flags="0x204"/>
      <component glyphName="breve.cap" x="-30" y="204" flags="0x4"/>
    </TTGlyph>
    <TTGlyph name="Icircumflex" xMin="27" yMin="0" xMax="391" yMax="927">
      <component glyphName="I" x="0" y="0" flags="0x204"/>
      <component glyphName="circumflex.cap" x="-33" y="204" flags="0x4"/>
    </TTGlyph>
    <TTGlyph name="Idieresis" xMin="27" yMin="0" xMax="405" yMax="909">
      <component glyphName="I" x="0" y="0" flags="0x204"/>
      <component glyphName="dieresis.cap" x="-31" y="204" flags="0x4"/>
    </TTGlyph>
    <TTGlyph name="Idotaccent" xMin="27" yMin="0" xMax="315" yMax="909">
      <component glyphName="I" x="0" y="0" flags="0x204"/>
      <component glyphName="dotaccent.cap" x="-31" y="204" flags="0x4"/>
    </TTGlyph>
    <TTGlyph name="Igrave" xMin="27" yMin="0" xMax="309" yMax="930">
      <component glyphName="I" x="0" y="0" flags="0x204"/>
      <component glyphName="grave.cap" x="-95" y="204" flags="0x4"/>
    </TTGlyph>
    <TTGlyph name="Imacron" xMin="27" yMin="0" xMax="397" yMax="890">
      <component glyphName="I" x="0" y="0" flags="0x204"/>
      <component glyphName="macron.cap" x="-31" y="204" flags="0x4"/>
    </TTGlyph>
    <TTGlyph name="Iogonek" xMin="-6" yMin="-208" xMax="310" yMax="725">
      <contour>
        <pt x="202" y="0" on="1"/>
        <pt x="165" y="0" on="1"/>
        <pt x="157" y="-10" on="1"/>
        <pt x="132" y="-43" on="0"/>
        <pt x="110" y="-80" on="0"/>
        <pt x="110" y="-94" on="1"/>
        <pt x="110" y="-121" on="0"/>
        <pt x="147" y="-121" on="1"/>
        <pt x="159" y="-121" on="0"/>
        <pt x="180" y="-118" on="0"/>
        <pt x="193" y="-116" on="1"/>
        <pt x="182" y="-191" on="1"/>
        <pt x="161" y="-199" on="0"/>
        <pt x="117" y="-208" on="0"/>
        <pt x="88" y="-208" on="1"/>
        <pt x="43" y="-208" on="0"/>
        <pt x="-6" y="-168" on="0"/>
        <pt x="-6" y="-132" on="1"/>
        <pt x="-6" y="-103" on="0"/>
        <pt x="27" y="-46" on="0"/>
        <pt x="60" y="-11" on="1"/>
        <pt x="71" y="0" on="1"/>
        <pt x="28" y="0" on="1"/>
        <pt x="136" y="725" on="1"/>
        <pt x="310" y="725" on="1"/>
      </contour>
    </TTGlyph>
    <TTGlyph name="J" xMin="7" yMin="-7" xMax="424" yMax="725">
      <contour>
        <pt x="349" y="216" on="1"/>
        <pt x="340" y="156" on="0"/>
        <pt x="301" y="71" on="0"/>
        <pt x="239" y="17" on="0"/>
        <pt x="155" y="-7" on="0"/>
        <pt x="101" y="-7" on="1"/>
        <pt x="74" y="-7" on="0"/>
        <pt x="27" y="-2" on="0"/>
        <pt x="7" y="2" on="1"/>
        <pt x="7" y="153" on="1"/>
        <pt x="24" y="148" on="0"/>
        <pt x="59" y="143" on="0"/>
        <pt x="81" y="143" on="1"/>
        <pt x="119" y="143" on="0"/>
        <pt x="170" y="185" on="0"/>
        <pt x="179" y="242" on="1"/>
        <pt x="251" y="725" on="1"/>
        <pt x="424" y="725" on="1"/>
      </contour>
    </TTGlyph>
    <TTGlyph name="K" xMin="24" yMin="-9" xMax="659" yMax="725">
      <contour>
        <pt x="415" y="373" on="1"/>
        <pt x="562" y="22" on="1"/>
        <pt x="384" y="-9" on="1"/>
        <pt x="248" y="337" on="1"/>
        <pt x="198" y="0" on="1"/>
        <pt x="24" y="0" on="1"/>
        <pt x="78" y="362" on="1"/>
        <pt x="88" y="430" on="0"/>
        <pt x="107" y="560" on="0"/>
        <pt x="115" y="611" on="1"/>
        <pt x="124" y="671" on="0"/>
        <pt x="132" y="725" on="1"/>
        <pt x="307" y="725" on="1"/>
        <pt x="259" y="412" on="1"/>
        <pt x="466" y="725" on="1"/>
        <pt x="659" y="725" on="1"/>
      </contour>
    </TTGlyph>
    <TTGlyph name="K.flat" xMin="24" yMin="0" xMax="659" yMax="725">
      <contour>
        <pt x="415" y="373" on="1"/>
        <pt x="571" y="0" on="1"/>
        <pt x="381" y="0" on="1"/>
        <pt x="248" y="337" on="1"/>
        <pt x="198" y="0" on="1"/>
        <pt x="24" y="0" on="1"/>
        <pt x="78" y="362" on="1"/>
        <pt x="88" y="430" on="0"/>
        <pt x="107" y="560" on="0"/>
        <pt x="115" y="611" on="1"/>
        <pt x="124" y="671" on="0"/>
        <pt x="132" y="725" on="1"/>
        <pt x="307" y="725" on="1"/>
        <pt x="259" y="412" on="1"/>
        <pt x="466" y="725" on="1"/>
        <pt x="659" y="725" on="1"/>
      </contour>
    </TTGlyph>
    <TTGlyph name="Kcommaaccent" xMin="24" yMin="-250" xMax="659" yMax="725">
      <component glyphName="K" x="0" y="0" flags="0x204"/>
      <component glyphName="commaaccent.cap" x="75" y="6" flags="0x4"/>
    </TTGlyph>
    <TTGlyph name="Kcommaaccent.flat" xMin="24" yMin="-250" xMax="659" yMax="725">
      <component glyphName="K.flat" x="0" y="0" flags="0x204"/>
      <component glyphName="commaaccent.cap" x="75" y="6" flags="0x4"/>
    </TTGlyph>
    <TTGlyph name="L" xMin="24" yMin="0" xMax="416" yMax="725">
      <contour>
        <pt x="24" y="0" on="1"/>
        <pt x="133" y="725" on="1"/>
        <pt x="306" y="725" on="1"/>
        <pt x="221" y="153" on="1"/>
        <pt x="416" y="153" on="1"/>
        <pt x="416" y="0" on="1"/>
      </contour>
    </TTGlyph>
    <TTGlyph name="L.flat" xMin="24" yMin="0" xMax="427" yMax="725">
      <contour>
        <pt x="24" y="0" on="1"/>
        <pt x="133" y="725" on="1"/>
        <pt x="306" y="725" on="1"/>
        <pt x="221" y="153" on="1"/>
        <pt x="427" y="153" on="1"/>
        <pt x="405" y="0" on="1"/>
      </contour>
    </TTGlyph>
    <TTGlyph name="Lacute" xMin="24" yMin="0" xMax="435" yMax="930">
      <component glyphName="acute.cap" x="30" y="204" flags="0x4"/>
      <component glyphName="L" x="0" y="0" flags="0x4"/>
    </TTGlyph>
    <TTGlyph name="Lacute.flat" xMin="24" yMin="0" xMax="435" yMax="930">
      <component glyphName="acute.cap" x="30" y="204" flags="0x4"/>
      <component glyphName="L.flat" x="0" y="0" flags="0x4"/>
    </TTGlyph>
    <TTGlyph name="Lcaron" xMin="24" yMin="0" xMax="476" yMax="731">
      <component glyphName="L" x="0" y="0" flags="0x204"/>
      <component glyphName="caron.alt.cap" x="124" y="-12" flags="0x4"/>
    </TTGlyph>
    <TTGlyph name="Lcaron.flat" xMin="24" yMin="0" xMax="474" yMax="731">
      <component glyphName="L.flat" x="0" y="0" flags="0x204"/>
      <component glyphName="caron.alt.cap" x="122" y="-12" flags="0x4"/>
    </TTGlyph>
    <TTGlyph name="Lcommaaccent" xMin="24" yMin="-256" xMax="416" yMax="725">
      <component glyphName="L" x="0" y="0" flags="0x204"/>
      <component glyphName="commaaccent.cap" x="1" y="0" flags="0x4"/>
    </TTGlyph>
    <TTGlyph name="Lcommaaccent.flat" xMin="24" yMin="-256" xMax="427" yMax="725">
      <component glyphName="L.flat" x="0" y="0" flags="0x204"/>
      <component glyphName="commaaccent.cap" x="-7" y="0" flags="0x4"/>
    </TTGlyph>
    <TTGlyph name="Ldot" xMin="25" yMin="0" xMax="474" yMax="725">
      <contour>
        <pt x="327" y="321" on="1"/>
        <pt x="348" y="457" on="1"/>
        <pt x="474" y="457" on="1"/>
        <pt x="454" y="321" on="1"/>
      </contour>
      <contour>
        <pt x="25" y="0" on="1"/>
        <pt x="134" y="725" on="1"/>
        <pt x="307" y="725" on="1"/>
        <pt x="222" y="153" on="1"/>
        <pt x="417" y="153" on="1"/>
        <pt x="417" y="0" on="1"/>
      </contour>
    </TTGlyph>
    <TTGlyph name="Ldot.flat" xMin="25" yMin="0" xMax="475" yMax="725">
      <contour>
        <pt x="329" y="321" on="1"/>
        <pt x="349" y="457" on="1"/>
        <pt x="475" y="457" on="1"/>
        <pt x="454" y="321" on="1"/>
      </contour>
      <contour>
        <pt x="25" y="0" on="1"/>
        <pt x="134" y="725" on="1"/>
        <pt x="307" y="725" on="1"/>
        <pt x="222" y="153" on="1"/>
        <pt x="428" y="153" on="1"/>
        <pt x="406" y="0" on="1"/>
      </contour>
    </TTGlyph>
    <TTGlyph name="Lslash" xMin="33" yMin="0" xMax="443" yMax="725">
      <contour>
        <pt x="51" y="0" on="1"/>
        <pt x="89" y="250" on="1"/>
        <pt x="33" y="225" on="1"/>
        <pt x="33" y="367" on="1"/>
        <pt x="111" y="401" on="1"/>
        <pt x="160" y="725" on="1"/>
        <pt x="333" y="725" on="1"/>
        <pt x="297" y="480" on="1"/>
        <pt x="418" y="535" on="1"/>
        <pt x="394" y="382" on="1"/>
        <pt x="274" y="331" on="1"/>
        <pt x="248" y="153" on="1"/>
        <pt x="443" y="153" on="1"/>
        <pt x="443" y="0" on="1"/>
      </contour>
    </TTGlyph>
    <TTGlyph name="Lslash.flat" xMin="16" yMin="0" xMax="449" yMax="725">
      <contour>
        <pt x="51" y="0" on="1"/>
        <pt x="89" y="250" on="1"/>
        <pt x="16" y="218" on="1"/>
        <pt x="40" y="371" on="1"/>
        <pt x="111" y="401" on="1"/>
        <pt x="160" y="725" on="1"/>
        <pt x="333" y="725" on="1"/>
        <pt x="297" y="480" on="1"/>
        <pt x="418" y="535" on="1"/>
        <pt x="394" y="382" on="1"/>
        <pt x="274" y="331" on="1"/>
        <pt x="248" y="153" on="1"/>
        <pt x="449" y="153" on="1"/>
        <pt x="437" y="0" on="1"/>
      </contour>
    </TTGlyph>
    <TTGlyph name="M" xMin="10" yMin="-2" xMax="832" yMax="725">
      <contour>
        <pt x="768" y="0" on="1"/>
        <pt x="597" y="0" on="1"/>
        <pt x="646" y="499" on="1"/>
        <pt x="461" y="-2" on="1"/>
        <pt x="297" y="-2" on="1"/>
        <pt x="262" y="499" on="1"/>
        <pt x="162" y="0" on="1"/>
        <pt x="10" y="0" on="1"/>
        <pt x="160" y="725" on="1"/>
        <pt x="387" y="725" on="1"/>
        <pt x="425" y="234" on="1"/>
        <pt x="607" y="725" on="1"/>
        <pt x="832" y="725" on="1"/>
      </contour>
    </TTGlyph>
    <TTGlyph name="M.alt" xMin="24" yMin="-4" xMax="855" yMax="725">
      <contour>
        <pt x="582" y="0" on="1"/>
        <pt x="655" y="491" on="1"/>
        <pt x="456" y="-4" on="1"/>
        <pt x="300" y="-4" on="1"/>
        <pt x="247" y="491" on="1"/>
        <pt x="174" y="0" on="1"/>
        <pt x="24" y="0" on="1"/>
        <pt x="132" y="725" on="1"/>
        <pt x="363" y="725" on="1"/>
        <pt x="419" y="230" on="1"/>
        <pt x="622" y="725" on="1"/>
        <pt x="855" y="725" on="1"/>
        <pt x="747" y="0" on="1"/>
      </contour>
    </TTGlyph>
    <TTGlyph name="N" xMin="24" yMin="0" xMax="660" yMax="725">
      <contour>
        <pt x="660" y="725" on="1"/>
        <pt x="660" y="725" on="0"/>
        <pt x="650" y="662" on="0"/>
        <pt x="635" y="560" on="0"/>
        <pt x="616" y="430" on="0"/>
        <pt x="606" y="362" on="1"/>
        <pt x="552" y="0" on="1"/>
        <pt x="408" y="0" on="1"/>
        <pt x="247" y="427" on="1"/>
        <pt x="183" y="0" on="1"/>
        <pt x="24" y="0" on="1"/>
        <pt x="132" y="725" on="1"/>
        <pt x="295" y="725" on="1"/>
        <pt x="442" y="328" on="1"/>
        <pt x="501" y="725" on="1"/>
        <pt x="660" y="725" on="1"/>
      </contour>
    </TTGlyph>
    <TTGlyph name="Nacute" xMin="24" yMin="0" xMax="660" yMax="926">
      <component glyphName="acute.cap" x="196" y="200" flags="0x4"/>
      <component glyphName="N" x="0" y="0" flags="0x4"/>
    </TTGlyph>
    <TTGlyph name="Ncaron" xMin="24" yMin="0" xMax="660" yMax="922">
      <component glyphName="caron.cap" x="141" y="200" flags="0x4"/>
      <component glyphName="N" x="0" y="0" flags="0x4"/>
    </TTGlyph>
    <TTGlyph name="Ncommaaccent" xMin="24" yMin="-250" xMax="660" yMax="725">
      <component glyphName="commaaccent.cap" x="82" y="6" flags="0x4"/>
      <component glyphName="N" x="0" y="0" flags="0x4"/>
    </TTGlyph>
    <TTGlyph name="Ntilde" xMin="24" yMin="0" xMax="660" yMax="930">
      <component glyphName="tilde.cap" x="142" y="200" flags="0x4"/>
      <component glyphName="N" x="0" y="0" flags="0x4"/>
    </TTGlyph>
    <TTGlyph name="O" xMin="51" yMin="-14" xMax="649" yMax="738">
      <contour>
        <pt x="315" y="-14" on="1"/>
        <pt x="250" y="-14" on="0"/>
        <pt x="151" y="28" on="0"/>
        <pt x="85" y="107" on="0"/>
        <pt x="51" y="218" on="0"/>
        <pt x="51" y="287" on="1"/>
        <pt x="51" y="343" on="0"/>
        <pt x="68" y="449" on="0"/>
        <pt x="101" y="544" on="0"/>
        <pt x="148" y="624" on="0"/>
        <pt x="178" y="654" on="1"/>
        <pt x="262" y="738" on="0"/>
        <pt x="385" y="738" on="1"/>
        <pt x="450" y="738" on="0"/>
        <pt x="549" y="696" on="0"/>
        <pt x="615" y="618" on="0"/>
        <pt x="649" y="507" on="0"/>
        <pt x="649" y="438" on="1"/>
        <pt x="649" y="382" on="0"/>
        <pt x="632" y="276" on="0"/>
        <pt x="600" y="182" on="0"/>
        <pt x="552" y="101" on="0"/>
        <pt x="522" y="71" on="1"/>
        <pt x="439" y="-14" on="0"/>
      </contour>
      <contour>
        <pt x="318" y="123" on="1"/>
        <pt x="338" y="123" on="0"/>
        <pt x="372" y="140" on="0"/>
        <pt x="386" y="154" on="1"/>
        <pt x="405" y="173" on="0"/>
        <pt x="437" y="239" on="0"/>
        <pt x="459" y="320" on="0"/>
        <pt x="472" y="411" on="0"/>
        <pt x="472" y="455" on="1"/>
        <pt x="472" y="534" on="0"/>
        <pt x="425" y="602" on="0"/>
        <pt x="383" y="602" on="1"/>
        <pt x="362" y="602" on="0"/>
        <pt x="328" y="585" on="0"/>
        <pt x="314" y="571" on="1"/>
        <pt x="295" y="552" on="0"/>
        <pt x="264" y="486" on="0"/>
        <pt x="241" y="405" on="0"/>
        <pt x="228" y="314" on="0"/>
        <pt x="228" y="270" on="1"/>
        <pt x="228" y="192" on="0"/>
        <pt x="276" y="123" on="0"/>
      </contour>
    </TTGlyph>
    <TTGlyph name="OE" xMin="49" yMin="0" xMax="865" yMax="725">
      <contour>
        <pt x="226" y="296" on="1"/>
        <pt x="226" y="211" on="0"/>
        <pt x="299" y="136" on="0"/>
        <pt x="368" y="136" on="1"/>
        <pt x="383" y="136" on="1"/>
        <pt x="451" y="589" on="1"/>
        <pt x="443" y="589" on="1"/>
        <pt x="396" y="588" on="0"/>
        <pt x="327" y="557" on="0"/>
        <pt x="303" y="533" on="1"/>
        <pt x="284" y="514" on="0"/>
        <pt x="255" y="460" on="0"/>
        <pt x="236" y="397" on="0"/>
        <pt x="226" y="329" on="0"/>
      </contour>
      <contour>
        <pt x="865" y="725" on="1"/>
        <pt x="844" y="582" on="1"/>
        <pt x="621" y="582" on="1"/>
        <pt x="601" y="446" on="1"/>
        <pt x="763" y="446" on="1"/>
        <pt x="763" y="302" on="1"/>
        <pt x="579" y="302" on="1"/>
        <pt x="555" y="142" on="1"/>
        <pt x="787" y="142" on="1"/>
        <pt x="765" y="0" on="1"/>
        <pt x="370" y="0" on="1"/>
        <pt x="215" y="0" on="0"/>
        <pt x="49" y="150" on="0"/>
        <pt x="49" y="296" on="1"/>
        <pt x="49" y="393" on="0"/>
        <pt x="107" y="557" on="0"/>
        <pt x="165" y="615" on="1"/>
        <pt x="219" y="669" on="0"/>
        <pt x="372" y="725" on="0"/>
        <pt x="480" y="725" on="1"/>
      </contour>
    </TTGlyph>
    <TTGlyph name="OE.flat" xMin="49" yMin="0" xMax="865" yMax="725">
      <contour>
        <pt x="226" y="296" on="1"/>
        <pt x="226" y="211" on="0"/>
        <pt x="299" y="136" on="0"/>
        <pt x="368" y="136" on="1"/>
        <pt x="383" y="136" on="1"/>
        <pt x="451" y="589" on="1"/>
        <pt x="443" y="589" on="1"/>
        <pt x="396" y="588" on="0"/>
        <pt x="327" y="557" on="0"/>
        <pt x="303" y="533" on="1"/>
        <pt x="284" y="514" on="0"/>
        <pt x="255" y="460" on="0"/>
        <pt x="236" y="397" on="0"/>
        <pt x="226" y="329" on="0"/>
      </contour>
      <contour>
        <pt x="865" y="725" on="1"/>
        <pt x="844" y="582" on="1"/>
        <pt x="621" y="582" on="1"/>
        <pt x="601" y="446" on="1"/>
        <pt x="774" y="446" on="1"/>
        <pt x="753" y="302" on="1"/>
        <pt x="579" y="302" on="1"/>
        <pt x="555" y="142" on="1"/>
        <pt x="787" y="142" on="1"/>
        <pt x="765" y="0" on="1"/>
        <pt x="370" y="0" on="1"/>
        <pt x="215" y="0" on="0"/>
        <pt x="49" y="150" on="0"/>
        <pt x="49" y="296" on="1"/>
        <pt x="49" y="393" on="0"/>
        <pt x="107" y="557" on="0"/>
        <pt x="165" y="615" on="1"/>
        <pt x="219" y="669" on="0"/>
        <pt x="372" y="725" on="0"/>
        <pt x="480" y="725" on="1"/>
      </contour>
    </TTGlyph>
    <TTGlyph name="Oacute" xMin="51" yMin="-14" xMax="649" yMax="939">
      <component glyphName="acute.cap" x="206" y="213" flags="0x4"/>
      <component glyphName="O" x="0" y="0" flags="0x4"/>
    </TTGlyph>
    <TTGlyph name="Obreve" xMin="51" yMin="-14" xMax="649" yMax="935">
      <component glyphName="breve.cap" x="152" y="213" flags="0x4"/>
      <component glyphName="O" x="0" y="0" flags="0x4"/>
    </TTGlyph>
    <TTGlyph name="Ocircumflex" xMin="51" yMin="-14" xMax="649" yMax="936">
      <component glyphName="O" x="0" y="0" flags="0x4"/>
      <component glyphName="circumflex.cap" x="149" y="213" flags="0x4"/>
    </TTGlyph>
    <TTGlyph name="Odieresis" xMin="51" yMin="-14" xMax="649" yMax="918">
      <component glyphName="dieresis.cap" x="151" y="213" flags="0x4"/>
      <component glyphName="O" x="0" y="0" flags="0x4"/>
    </TTGlyph>
    <TTGlyph name="Ograve" xMin="51" yMin="-14" xMax="649" yMax="939">
      <component glyphName="grave.cap" x="88" y="213" flags="0x4"/>
      <component glyphName="O" x="0" y="0" flags="0x4"/>
    </TTGlyph>
    <TTGlyph name="Ohungarumlaut" xMin="51" yMin="-14" xMax="671" yMax="939">
      <component glyphName="O" x="0" y="0" flags="0x4"/>
      <component glyphName="hungarumlaut.cap" x="196" y="213" flags="0x4"/>
    </TTGlyph>
    <TTGlyph name="Omacron" xMin="51" yMin="-14" xMax="649" yMax="899">
      <component glyphName="macron.cap" x="151" y="213" flags="0x4"/>
      <component glyphName="O" x="0" y="0" flags="0x4"/>
    </TTGlyph>
    <TTGlyph name="Oslash" xMin="-20" yMin="-14" xMax="721" yMax="738">
      <contour>
        <pt x="315" y="-14" on="1"/>
        <pt x="260" y="-14" on="0"/>
        <pt x="173" y="18" on="0"/>
        <pt x="141" y="47" on="1"/>
        <pt x="90" y="-10" on="1"/>
        <pt x="-20" y="16" on="1"/>
        <pt x="81" y="131" on="1"/>
        <pt x="51" y="198" on="0"/>
        <pt x="51" y="287" on="1"/>
        <pt x="51" y="343" on="0"/>
        <pt x="68" y="449" on="0"/>
        <pt x="101" y="544" on="0"/>
        <pt x="149" y="624" on="0"/>
        <pt x="179" y="654" on="1"/>
        <pt x="261" y="738" on="0"/>
        <pt x="386" y="738" on="1"/>
        <pt x="441" y="738" on="0"/>
        <pt x="528" y="706" on="0"/>
        <pt x="560" y="677" on="1"/>
        <pt x="611" y="734" on="1"/>
        <pt x="721" y="709" on="1"/>
        <pt x="620" y="595" on="1"/>
        <pt x="650" y="527" on="0"/>
        <pt x="650" y="438" on="1"/>
        <pt x="650" y="382" on="0"/>
        <pt x="633" y="276" on="0"/>
        <pt x="600" y="182" on="0"/>
        <pt x="553" y="101" on="0"/>
        <pt x="523" y="71" on="1"/>
        <pt x="438" y="-14" on="0"/>
      </contour>
      <contour>
        <pt x="225" y="263" on="1"/>
        <pt x="461" y="553" on="1"/>
        <pt x="438" y="604" on="0"/>
        <pt x="383" y="604" on="1"/>
        <pt x="362" y="604" on="0"/>
        <pt x="328" y="587" on="0"/>
        <pt x="313" y="573" on="1"/>
        <pt x="293" y="553" on="0"/>
        <pt x="261" y="486" on="0"/>
        <pt x="238" y="405" on="0"/>
        <pt x="225" y="314" on="0"/>
        <pt x="225" y="270" on="1"/>
      </contour>
      <contour>
        <pt x="318" y="121" on="1"/>
        <pt x="359" y="121" on="0"/>
        <pt x="388" y="153" on="1"/>
        <pt x="408" y="172" on="0"/>
        <pt x="441" y="238" on="0"/>
        <pt x="464" y="320" on="0"/>
        <pt x="477" y="411" on="0"/>
        <pt x="477" y="455" on="1"/>
        <pt x="477" y="461" on="1"/>
        <pt x="241" y="171" on="1"/>
        <pt x="264" y="121" on="0"/>
      </contour>
    </TTGlyph>
    <TTGlyph name="Oslashacute" xMin="-20" yMin="-14" xMax="721" yMax="939">
      <component glyphName="Oslash" x="0" y="0" flags="0x204"/>
      <component glyphName="acute.cap" x="201" y="213" flags="0x4"/>
    </TTGlyph>
    <TTGlyph name="Otilde" xMin="51" yMin="-14" xMax="649" yMax="943">
      <component glyphName="tilde.cap" x="152" y="213" flags="0x4"/>
      <component glyphName="O" x="0" y="0" flags="0x4"/>
    </TTGlyph>
    <TTGlyph name="P" xMin="24" yMin="0" xMax="575" yMax="725">
      <contour>
        <pt x="575" y="511" on="1"/>
        <pt x="575" y="449" on="0"/>
        <pt x="533" y="350" on="0"/>
        <pt x="452" y="280" on="0"/>
        <pt x="335" y="241" on="0"/>
        <pt x="261" y="241" on="1"/>
        <pt x="233" y="241" on="1"/>
        <pt x="197" y="0" on="1"/>
        <pt x="24" y="0" on="1"/>
        <pt x="132" y="725" on="1"/>
        <pt x="317" y="725" on="1"/>
        <pt x="447" y="725" on="0"/>
        <pt x="575" y="615" on="0"/>
      </contour>
      <contour>
        <pt x="406" y="503" on="1"/>
        <pt x="407" y="552" on="0"/>
        <pt x="354" y="595" on="0"/>
        <pt x="307" y="595" on="1"/>
        <pt x="284" y="595" on="1"/>
        <pt x="251" y="372" on="1"/>
        <pt x="277" y="372" on="1"/>
        <pt x="337" y="372" on="0"/>
        <pt x="405" y="443" on="0"/>
      </contour>
    </TTGlyph>
    <TTGlyph name="Q" xMin="51" yMin="-138" xMax="650" yMax="738">
      <contour>
        <pt x="270" y="-21" on="1"/>
        <pt x="215" y="1" on="0"/>
        <pt x="133" y="54" on="0"/>
        <pt x="78" y="126" on="0"/>
        <pt x="51" y="222" on="0"/>
        <pt x="51" y="286" on="1"/>
        <pt x="51" y="404" on="0"/>
        <pt x="119" y="594" on="0"/>
        <pt x="179" y="654" on="1"/>
        <pt x="263" y="738" on="0"/>
        <pt x="387" y="738" on="1"/>
        <pt x="452" y="738" on="0"/>
        <pt x="550" y="696" on="0"/>
        <pt x="616" y="618" on="0"/>
        <pt x="650" y="509" on="0"/>
        <pt x="650" y="442" on="1"/>
        <pt x="650" y="380" on="0"/>
        <pt x="630" y="275" on="0"/>
        <pt x="596" y="188" on="0"/>
        <pt x="551" y="119" on="0"/>
        <pt x="525" y="93" on="1"/>
        <pt x="514" y="82" on="0"/>
        <pt x="489" y="62" on="0"/>
        <pt x="476" y="53" on="1"/>
        <pt x="619" y="9" on="1"/>
        <pt x="567" y="-138" on="1"/>
      </contour>
      <contour>
        <pt x="319" y="123" on="1"/>
        <pt x="339" y="123" on="0"/>
        <pt x="373" y="140" on="0"/>
        <pt x="387" y="154" on="1"/>
        <pt x="406" y="173" on="0"/>
        <pt x="437" y="239" on="0"/>
        <pt x="460" y="320" on="0"/>
        <pt x="473" y="411" on="0"/>
        <pt x="473" y="455" on="1"/>
        <pt x="473" y="534" on="0"/>
        <pt x="425" y="602" on="0"/>
        <pt x="383" y="602" on="1"/>
        <pt x="363" y="602" on="0"/>
        <pt x="329" y="585" on="0"/>
        <pt x="314" y="571" on="1"/>
        <pt x="296" y="552" on="0"/>
        <pt x="264" y="486" on="0"/>
        <pt x="242" y="405" on="0"/>
        <pt x="229" y="314" on="0"/>
        <pt x="229" y="270" on="1"/>
        <pt x="229" y="192" on="0"/>
        <pt x="277" y="123" on="0"/>
      </contour>
    </TTGlyph>
    <TTGlyph name="Q.alt" xMin="51" yMin="-14" xMax="650" yMax="738">
      <contour>
        <pt x="510" y="65" on="1"/>
        <pt x="508" y="63" on="0"/>
        <pt x="502" y="58" on="0"/>
        <pt x="500" y="56" on="1"/>
        <pt x="460" y="21" on="0"/>
        <pt x="370" y="-14" on="0"/>
        <pt x="315" y="-14" on="1"/>
        <pt x="250" y="-14" on="0"/>
        <pt x="152" y="28" on="0"/>
        <pt x="85" y="107" on="0"/>
        <pt x="51" y="218" on="0"/>
        <pt x="51" y="287" on="1"/>
        <pt x="51" y="343" on="0"/>
        <pt x="68" y="449" on="0"/>
        <pt x="101" y="544" on="0"/>
        <pt x="149" y="624" on="0"/>
        <pt x="179" y="654" on="1"/>
        <pt x="261" y="738" on="0"/>
        <pt x="386" y="738" on="1"/>
        <pt x="451" y="738" on="0"/>
        <pt x="550" y="696" on="0"/>
        <pt x="616" y="618" on="0"/>
        <pt x="650" y="507" on="0"/>
        <pt x="650" y="438" on="1"/>
        <pt x="650" y="367" on="0"/>
        <pt x="620" y="234" on="0"/>
        <pt x="592" y="178" on="1"/>
        <pt x="635" y="141" on="1"/>
        <pt x="592" y="-14" on="1"/>
      </contour>
      <contour>
        <pt x="319" y="121" on="1"/>
        <pt x="340" y="121" on="0"/>
        <pt x="374" y="138" on="0"/>
        <pt x="388" y="153" on="1"/>
        <pt x="392" y="157" on="0"/>
        <pt x="398" y="164" on="0"/>
        <pt x="402" y="168" on="1"/>
        <pt x="296" y="267" on="1"/>
        <pt x="439" y="315" on="1"/>
        <pt x="457" y="299" on="1"/>
        <pt x="474" y="372" on="0"/>
        <pt x="474" y="455" on="1"/>
        <pt x="474" y="533" on="0"/>
        <pt x="425" y="602" on="0"/>
        <pt x="383" y="602" on="1"/>
        <pt x="363" y="602" on="0"/>
        <pt x="329" y="585" on="0"/>
        <pt x="314" y="571" on="1"/>
        <pt x="295" y="552" on="0"/>
        <pt x="264" y="486" on="0"/>
        <pt x="241" y="404" on="0"/>
        <pt x="228" y="313" on="0"/>
        <pt x="228" y="269" on="1"/>
        <pt x="228" y="190" on="0"/>
        <pt x="277" y="121" on="0"/>
      </contour>
    </TTGlyph>
    <TTGlyph name="Q.alt_flat" xMin="51" yMin="-14" xMax="650" yMax="738">
      <contour>
        <pt x="512" y="66" on="1"/>
        <pt x="510" y="64" on="0"/>
        <pt x="506" y="61" on="0"/>
        <pt x="504" y="59" on="1"/>
        <pt x="462" y="23" on="0"/>
        <pt x="371" y="-14" on="0"/>
        <pt x="315" y="-14" on="1"/>
        <pt x="250" y="-14" on="0"/>
        <pt x="152" y="28" on="0"/>
        <pt x="85" y="107" on="0"/>
        <pt x="51" y="218" on="0"/>
        <pt x="51" y="287" on="1"/>
        <pt x="51" y="343" on="0"/>
        <pt x="68" y="449" on="0"/>
        <pt x="101" y="544" on="0"/>
        <pt x="149" y="624" on="0"/>
        <pt x="179" y="654" on="1"/>
        <pt x="261" y="738" on="0"/>
        <pt x="386" y="738" on="1"/>
        <pt x="451" y="738" on="0"/>
        <pt x="550" y="696" on="0"/>
        <pt x="616" y="618" on="0"/>
        <pt x="650" y="507" on="0"/>
        <pt x="650" y="438" on="1"/>
        <pt x="650" y="368" on="0"/>
        <pt x="620" y="238" on="0"/>
        <pt x="594" y="182" on="1"/>
        <pt x="637" y="150" on="1"/>
        <pt x="608" y="-14" on="1"/>
      </contour>
      <contour>
        <pt x="319" y="121" on="1"/>
        <pt x="340" y="121" on="0"/>
        <pt x="374" y="138" on="0"/>
        <pt x="388" y="153" on="1"/>
        <pt x="393" y="158" on="0"/>
        <pt x="395" y="161" on="1"/>
        <pt x="335" y="209" on="1"/>
        <pt x="362" y="362" on="1"/>
        <pt x="455" y="289" on="1"/>
        <pt x="464" y="327" on="0"/>
        <pt x="474" y="411" on="0"/>
        <pt x="474" y="455" on="1"/>
        <pt x="474" y="533" on="0"/>
        <pt x="425" y="602" on="0"/>
        <pt x="383" y="602" on="1"/>
        <pt x="363" y="602" on="0"/>
        <pt x="329" y="585" on="0"/>
        <pt x="314" y="571" on="1"/>
        <pt x="295" y="552" on="0"/>
        <pt x="264" y="486" on="0"/>
        <pt x="241" y="404" on="0"/>
        <pt x="228" y="313" on="0"/>
        <pt x="228" y="269" on="1"/>
        <pt x="228" y="190" on="0"/>
        <pt x="277" y="121" on="0"/>
      </contour>
    </TTGlyph>
    <TTGlyph name="R" xMin="24" yMin="-9" xMax="581" yMax="725">
      <contour>
        <pt x="581" y="523" on="1"/>
        <pt x="581" y="480" on="0"/>
        <pt x="558" y="410" on="0"/>
        <pt x="517" y="354" on="0"/>
        <pt x="462" y="313" on="0"/>
        <pt x="430" y="299" on="1"/>
        <pt x="546" y="20" on="1"/>
        <pt x="368" y="-9" on="1"/>
        <pt x="266" y="259" on="1"/>
        <pt x="234" y="259" on="1"/>
        <pt x="196" y="0" on="1"/>
        <pt x="24" y="0" on="1"/>
        <pt x="78" y="362" on="1"/>
        <pt x="88" y="430" on="0"/>
        <pt x="107" y="560" on="0"/>
        <pt x="115" y="611" on="1"/>
        <pt x="124" y="671" on="0"/>
        <pt x="132" y="725" on="1"/>
        <pt x="324" y="725" on="1"/>
        <pt x="445" y="725" on="0"/>
        <pt x="581" y="625" on="0"/>
      </contour>
      <contour>
        <pt x="410" y="508" on="1"/>
        <pt x="410" y="551" on="0"/>
        <pt x="361" y="597" on="0"/>
        <pt x="311" y="597" on="1"/>
        <pt x="283" y="597" on="1"/>
        <pt x="252" y="383" on="1"/>
        <pt x="284" y="383" on="1"/>
        <pt x="344" y="383" on="0"/>
        <pt x="410" y="453" on="0"/>
      </contour>
    </TTGlyph>
    <TTGlyph name="R.flat" xMin="24" yMin="0" xMax="581" yMax="725">
      <contour>
        <pt x="581" y="523" on="1"/>
        <pt x="581" y="480" on="0"/>
        <pt x="558" y="410" on="0"/>
        <pt x="517" y="354" on="0"/>
        <pt x="462" y="313" on="0"/>
        <pt x="430" y="299" on="1"/>
        <pt x="553" y="0" on="1"/>
        <pt x="365" y="0" on="1"/>
        <pt x="266" y="259" on="1"/>
        <pt x="234" y="259" on="1"/>
        <pt x="196" y="0" on="1"/>
        <pt x="24" y="0" on="1"/>
        <pt x="78" y="362" on="1"/>
        <pt x="88" y="430" on="0"/>
        <pt x="107" y="560" on="0"/>
        <pt x="115" y="611" on="1"/>
        <pt x="124" y="671" on="0"/>
        <pt x="132" y="725" on="1"/>
        <pt x="324" y="725" on="1"/>
        <pt x="445" y="725" on="0"/>
        <pt x="581" y="625" on="0"/>
      </contour>
      <contour>
        <pt x="410" y="508" on="1"/>
        <pt x="410" y="551" on="0"/>
        <pt x="361" y="597" on="0"/>
        <pt x="311" y="597" on="1"/>
        <pt x="283" y="597" on="1"/>
        <pt x="252" y="383" on="1"/>
        <pt x="284" y="383" on="1"/>
        <pt x="344" y="383" on="0"/>
        <pt x="410" y="453" on="0"/>
      </contour>
    </TTGlyph>
    <TTGlyph name="R_p" xMin="32" yMin="-190" xMax="1033" yMax="717">
      <contour>
        <pt x="263" y="257" on="1"/>
        <pt x="231" y="257" on="1"/>
        <pt x="193" y="0" on="1"/>
        <pt x="32" y="0" on="1"/>
        <pt x="139" y="717" on="1"/>
        <pt x="311" y="717" on="1"/>
        <pt x="432" y="717" on="0"/>
        <pt x="568" y="620" on="0"/>
        <pt x="568" y="519" on="1"/>
        <pt x="568" y="477" on="0"/>
        <pt x="545" y="407" on="0"/>
        <pt x="505" y="352" on="0"/>
        <pt x="450" y="311" on="0"/>
        <pt x="417" y="297" on="1"/>
        <pt x="532" y="20" on="1"/>
        <pt x="365" y="-9" on="1"/>
      </contour>
      <contour>
        <pt x="408" y="504" on="1"/>
        <pt x="408" y="592" on="0"/>
        <pt x="309" y="592" on="1"/>
        <pt x="279" y="592" on="1"/>
        <pt x="247" y="379" on="1"/>
        <pt x="282" y="379" on="1"/>
        <pt x="342" y="379" on="0"/>
        <pt x="408" y="448" on="0"/>
      </contour>
      <contour>
        <pt x="726" y="122" on="1"/>
        <pt x="743" y="115" on="0"/>
        <pt x="762" y="115" on="1"/>
        <pt x="785" y="115" on="0"/>
        <pt x="828" y="144" on="0"/>
        <pt x="861" y="196" on="0"/>
        <pt x="880" y="270" on="0"/>
        <pt x="880" y="314" on="1"/>
        <pt x="880" y="391" on="0"/>
        <pt x="837" y="391" on="1"/>
        <pt x="818" y="391" on="0"/>
        <pt x="782" y="366" on="0"/>
        <pt x="759" y="340" on="1"/>
      </contour>
      <contour>
        <pt x="617" y="388" on="1"/>
        <pt x="617" y="516" on="1"/>
        <pt x="759" y="516" on="1"/>
        <pt x="764" y="438" on="1"/>
        <pt x="797" y="477" on="0"/>
        <pt x="864" y="526" on="0"/>
        <pt x="902" y="526" on="1"/>
        <pt x="962" y="526" on="0"/>
        <pt x="1033" y="430" on="0"/>
        <pt x="1033" y="343" on="1"/>
        <pt x="1033" y="260" on="0"/>
        <pt x="990" y="130" on="0"/>
        <pt x="915" y="41" on="0"/>
        <pt x="815" y="-6" on="0"/>
        <pt x="759" y="-6" on="1"/>
        <pt x="745" y="-6" on="0"/>
        <pt x="720" y="-2" on="0"/>
        <pt x="708" y="1" on="1"/>
        <pt x="684" y="-166" on="1"/>
        <pt x="530" y="-190" on="1"/>
      </contour>
    </TTGlyph>
    <TTGlyph name="R_p.flat" xMin="32" yMin="-190" xMax="1033" yMax="717">
      <contour>
        <pt x="263" y="257" on="1"/>
        <pt x="231" y="257" on="1"/>
        <pt x="193" y="0" on="1"/>
        <pt x="32" y="0" on="1"/>
        <pt x="139" y="717" on="1"/>
        <pt x="311" y="717" on="1"/>
        <pt x="432" y="717" on="0"/>
        <pt x="568" y="620" on="0"/>
        <pt x="568" y="519" on="1"/>
        <pt x="568" y="477" on="0"/>
        <pt x="545" y="407" on="0"/>
        <pt x="505" y="352" on="0"/>
        <pt x="450" y="311" on="0"/>
        <pt x="417" y="297" on="1"/>
        <pt x="540" y="0" on="1"/>
        <pt x="361" y="0" on="1"/>
      </contour>
      <contour>
        <pt x="617" y="388" on="1"/>
        <pt x="617" y="516" on="1"/>
        <pt x="759" y="516" on="1"/>
        <pt x="764" y="438" on="1"/>
        <pt x="797" y="477" on="0"/>
        <pt x="864" y="526" on="0"/>
        <pt x="902" y="526" on="1"/>
        <pt x="962" y="526" on="0"/>
        <pt x="1033" y="430" on="0"/>
        <pt x="1033" y="343" on="1"/>
        <pt x="1033" y="260" on="0"/>
        <pt x="990" y="130" on="0"/>
        <pt x="915" y="41" on="0"/>
        <pt x="815" y="-6" on="0"/>
        <pt x="759" y="-6" on="1"/>
        <pt x="745" y="-6" on="0"/>
        <pt x="720" y="-2" on="0"/>
        <pt x="708" y="1" on="1"/>
        <pt x="684" y="-166" on="1"/>
        <pt x="530" y="-190" on="1"/>
      </contour>
      <contour>
        <pt x="726" y="122" on="1"/>
        <pt x="743" y="115" on="0"/>
        <pt x="762" y="115" on="1"/>
        <pt x="785" y="115" on="0"/>
        <pt x="828" y="144" on="0"/>
        <pt x="861" y="196" on="0"/>
        <pt x="880" y="270" on="0"/>
        <pt x="880" y="314" on="1"/>
        <pt x="880" y="391" on="0"/>
        <pt x="837" y="391" on="1"/>
        <pt x="818" y="391" on="0"/>
        <pt x="782" y="366" on="0"/>
        <pt x="759" y="340" on="1"/>
      </contour>
      <contour>
        <pt x="408" y="504" on="1"/>
        <pt x="408" y="592" on="0"/>
        <pt x="309" y="592" on="1"/>
        <pt x="279" y="592" on="1"/>
        <pt x="247" y="379" on="1"/>
        <pt x="282" y="379" on="1"/>
        <pt x="342" y="379" on="0"/>
        <pt x="408" y="448" on="0"/>
      </contour>
    </TTGlyph>
    <TTGlyph name="Racute" xMin="24" yMin="-9" xMax="581" yMax="930">
      <component glyphName="R" x="0" y="0" flags="0x204"/>
      <component glyphName="acute.cap" x="154" y="204" flags="0x4"/>
    </TTGlyph>
    <TTGlyph name="Racute.flat" xMin="24" yMin="0" xMax="581" yMax="930">
      <component glyphName="acute.cap" x="154" y="204" flags="0x4"/>
      <component glyphName="R.flat" x="0" y="0" flags="0x4"/>
    </TTGlyph>
    <TTGlyph name="Rcaron" xMin="24" yMin="-9" xMax="581" yMax="926">
      <component glyphName="caron.cap" x="100" y="204" flags="0x4"/>
      <component glyphName="R" x="0" y="0" flags="0x4"/>
    </TTGlyph>
    <TTGlyph name="Rcaron.flat" xMin="24" yMin="0" xMax="581" yMax="926">
      <component glyphName="caron.cap" x="100" y="204" flags="0x4"/>
      <component glyphName="R.flat" x="0" y="0" flags="0x4"/>
    </TTGlyph>
    <TTGlyph name="Rcommaaccent" xMin="24" yMin="-250" xMax="581" yMax="725">
      <component glyphName="R" x="0" y="0" flags="0x204"/>
      <component glyphName="commaaccent.cap" x="57" y="6" flags="0x4"/>
    </TTGlyph>
    <TTGlyph name="Rcommaaccent.flat" xMin="24" yMin="-250" xMax="581" yMax="725">
      <component glyphName="R.flat" x="0" y="0" flags="0x204"/>
      <component glyphName="commaaccent.cap" x="57" y="6" flags="0x4"/>
    </TTGlyph>
    <TTGlyph name="S" xMin="5" yMin="-12" xMax="528" yMax="736">
      <contour>
        <pt x="482" y="543" on="1"/>
        <pt x="443" y="568" on="0"/>
        <pt x="366" y="599" on="0"/>
        <pt x="331" y="599" on="1"/>
        <pt x="294" y="599" on="0"/>
        <pt x="257" y="561" on="0"/>
        <pt x="257" y="534" on="1"/>
        <pt x="257" y="508" on="0"/>
        <pt x="293" y="467" on="0"/>
        <pt x="336" y="436" on="1"/>
        <pt x="376" y="409" on="0"/>
        <pt x="432" y="359" on="0"/>
        <pt x="468" y="308" on="0"/>
        <pt x="484" y="254" on="0"/>
        <pt x="484" y="223" on="1"/>
        <pt x="484" y="168" on="0"/>
        <pt x="447" y="81" on="0"/>
        <pt x="380" y="20" on="0"/>
        <pt x="287" y="-12" on="0"/>
        <pt x="232" y="-12" on="1"/>
        <pt x="169" y="-12" on="0"/>
        <pt x="51" y="27" on="0"/>
        <pt x="5" y="53" on="1"/>
        <pt x="51" y="192" on="1"/>
        <pt x="94" y="165" on="0"/>
        <pt x="185" y="127" on="0"/>
        <pt x="229" y="127" on="1"/>
        <pt x="267" y="127" on="0"/>
        <pt x="313" y="167" on="0"/>
        <pt x="313" y="200" on="1"/>
        <pt x="313" y="227" on="0"/>
        <pt x="277" y="270" on="0"/>
        <pt x="235" y="302" on="1"/>
        <pt x="195" y="328" on="0"/>
        <pt x="139" y="376" on="0"/>
        <pt x="103" y="425" on="0"/>
        <pt x="86" y="481" on="0"/>
        <pt x="86" y="516" on="1"/>
        <pt x="86" y="564" on="0"/>
        <pt x="120" y="644" on="0"/>
        <pt x="183" y="703" on="0"/>
        <pt x="271" y="736" on="0"/>
        <pt x="325" y="736" on="1"/>
        <pt x="390" y="736" on="0"/>
        <pt x="489" y="704" on="0"/>
        <pt x="528" y="683" on="1"/>
      </contour>
    </TTGlyph>
    <TTGlyph name="Sacute" xMin="5" yMin="-12" xMax="545" yMax="939">
      <component glyphName="S" x="0" y="0" flags="0x204"/>
      <component glyphName="acute.cap" x="140" y="213" flags="0x4"/>
    </TTGlyph>
    <TTGlyph name="Scaron" xMin="5" yMin="-12" xMax="530" yMax="935">
      <component glyphName="S" x="0" y="0" flags="0x204"/>
      <component glyphName="caron.cap" x="85" y="213" flags="0x4"/>
    </TTGlyph>
    <TTGlyph name="Scedilla" xMin="5" yMin="-196" xMax="528" yMax="736">
      <component glyphName="S" x="0" y="0" flags="0x204"/>
      <component glyphName="cedilla.cap" x="20" y="-7" flags="0x4"/>
    </TTGlyph>
    <TTGlyph name="Scommaaccent" xMin="5" yMin="-264" xMax="528" yMax="736">
      <component glyphName="S" x="0" y="0" flags="0x204"/>
      <component glyphName="commaaccent.cap" x="10" y="-8" flags="0x4"/>
    </TTGlyph>
    <TTGlyph name="T" xMin="75" yMin="0" xMax="598" yMax="725">
      <contour>
        <pt x="420" y="576" on="1"/>
        <pt x="335" y="0" on="1"/>
        <pt x="160" y="0" on="1"/>
        <pt x="246" y="576" on="1"/>
        <pt x="75" y="576" on="1"/>
        <pt x="98" y="725" on="1"/>
        <pt x="598" y="725" on="1"/>
        <pt x="598" y="576" on="1"/>
      </contour>
    </TTGlyph>
    <TTGlyph name="T.flat" xMin="75" yMin="0" xMax="612" yMax="725">
      <contour>
        <pt x="420" y="576" on="1"/>
        <pt x="335" y="0" on="1"/>
        <pt x="160" y="0" on="1"/>
        <pt x="246" y="576" on="1"/>
        <pt x="75" y="576" on="1"/>
        <pt x="98" y="725" on="1"/>
        <pt x="612" y="725" on="1"/>
        <pt x="590" y="576" on="1"/>
      </contour>
    </TTGlyph>
    <TTGlyph name="Tcaron" xMin="75" yMin="0" xMax="598" yMax="926">
      <component glyphName="caron.cap" x="104" y="204" flags="0x4"/>
      <component glyphName="T" x="0" y="0" flags="0x4"/>
    </TTGlyph>
    <TTGlyph name="Tcaron.flat" xMin="75" yMin="0" xMax="612" yMax="926">
      <component glyphName="caron.cap" x="104" y="204" flags="0x4"/>
      <component glyphName="T.flat" x="0" y="0" flags="0x4"/>
    </TTGlyph>
    <TTGlyph name="Tcommaaccent" xMin="75" yMin="-256" xMax="598" yMax="725">
      <component glyphName="T" x="0" y="0" flags="0x204"/>
      <component glyphName="commaaccent.cap" x="42" y="0" flags="0x4"/>
    </TTGlyph>
    <TTGlyph name="Tcommaaccent.flat" xMin="75" yMin="-256" xMax="612" yMax="725">
      <component glyphName="T.flat" x="0" y="0" flags="0x204"/>
      <component glyphName="commaaccent.cap" x="42" y="0" flags="0x4"/>
    </TTGlyph>
    <TTGlyph name="Thorn" xMin="24" yMin="0" xMax="558" yMax="725">
      <contour>
        <pt x="558" y="400" on="1"/>
        <pt x="558" y="339" on="0"/>
        <pt x="516" y="241" on="0"/>
        <pt x="436" y="170" on="0"/>
        <pt x="320" y="132" on="0"/>
        <pt x="246" y="131" on="1"/>
        <pt x="216" y="131" on="1"/>
        <pt x="196" y="0" on="1"/>
        <pt x="24" y="0" on="1"/>
        <pt x="132" y="725" on="1"/>
        <pt x="304" y="725" on="1"/>
        <pt x="288" y="612" on="1"/>
        <pt x="304" y="612" on="1"/>
        <pt x="432" y="612" on="0"/>
        <pt x="558" y="503" on="0"/>
      </contour>
      <contour>
        <pt x="388" y="391" on="1"/>
        <pt x="389" y="439" on="0"/>
        <pt x="337" y="483" on="0"/>
        <pt x="291" y="483" on="1"/>
        <pt x="267" y="483" on="1"/>
        <pt x="235" y="263" on="1"/>
        <pt x="262" y="263" on="1"/>
        <pt x="320" y="263" on="0"/>
        <pt x="387" y="333" on="0"/>
      </contour>
    </TTGlyph>
    <TTGlyph name="U" xMin="55" yMin="-13" xMax="656" yMax="725">
      <contour>
        <pt x="586" y="257" on="1"/>
        <pt x="565" y="118" on="0"/>
        <pt x="421" y="-13" on="0"/>
        <pt x="297" y="-13" on="1"/>
        <pt x="181" y="-13" on="0"/>
        <pt x="55" y="97" on="0"/>
        <pt x="55" y="205" on="1"/>
        <pt x="55" y="224" on="0"/>
        <pt x="58" y="260" on="0"/>
        <pt x="60" y="277" on="1"/>
        <pt x="126" y="725" on="1"/>
        <pt x="300" y="725" on="1"/>
        <pt x="233" y="266" on="1"/>
        <pt x="231" y="252" on="0"/>
        <pt x="228" y="227" on="0"/>
        <pt x="228" y="214" on="1"/>
        <pt x="228" y="175" on="0"/>
        <pt x="268" y="132" on="0"/>
        <pt x="307" y="132" on="1"/>
        <pt x="352" y="132" on="0"/>
        <pt x="403" y="194" on="0"/>
        <pt x="412" y="251" on="1"/>
        <pt x="482" y="725" on="1"/>
        <pt x="656" y="725" on="1"/>
      </contour>
    </TTGlyph>
    <TTGlyph name="U.alt" xMin="50" yMin="-8" xMax="653" yMax="725">
      <contour>
        <pt x="545" y="0" on="1"/>
        <pt x="397" y="0" on="1"/>
        <pt x="397" y="61" on="1"/>
        <pt x="351" y="29" on="0"/>
        <pt x="262" y="-8" on="0"/>
        <pt x="211" y="-8" on="1"/>
        <pt x="136" y="-8" on="0"/>
        <pt x="50" y="71" on="0"/>
        <pt x="50" y="151" on="1"/>
        <pt x="50" y="167" on="0"/>
        <pt x="54" y="207" on="0"/>
        <pt x="56" y="224" on="1"/>
        <pt x="131" y="725" on="1"/>
        <pt x="304" y="725" on="1"/>
        <pt x="231" y="237" on="1"/>
        <pt x="228" y="217" on="0"/>
        <pt x="228" y="203" on="1"/>
        <pt x="228" y="175" on="0"/>
        <pt x="255" y="144" on="0"/>
        <pt x="286" y="144" on="1"/>
        <pt x="312" y="144" on="0"/>
        <pt x="368" y="169" on="0"/>
        <pt x="400" y="192" on="1"/>
        <pt x="479" y="725" on="1"/>
        <pt x="653" y="725" on="1"/>
      </contour>
    </TTGlyph>
    <TTGlyph name="Uacute" xMin="55" yMin="-13" xMax="656" yMax="926">
      <component glyphName="acute.cap" x="191" y="200" flags="0x4"/>
      <component glyphName="U" x="0" y="0" flags="0x4"/>
    </TTGlyph>
    <TTGlyph name="Uacute.alt" xMin="50" yMin="-8" xMax="653" yMax="926">
      <component glyphName="acute.cap" x="192" y="200" flags="0x4"/>
      <component glyphName="U.alt" x="0" y="0" flags="0x4"/>
    </TTGlyph>
    <TTGlyph name="Ubreve" xMin="55" yMin="-13" xMax="656" yMax="920">
      <component glyphName="breve.cap" x="138" y="198" flags="0x4"/>
      <component glyphName="U" x="0" y="0" flags="0x4"/>
    </TTGlyph>
    <TTGlyph name="Ubreve.alt" xMin="50" yMin="-8" xMax="653" yMax="920">
      <component glyphName="breve.cap" x="140" y="198" flags="0x4"/>
      <component glyphName="U.alt" x="0" y="0" flags="0x4"/>
    </TTGlyph>
    <TTGlyph name="Ucircumflex" xMin="55" yMin="-13" xMax="656" yMax="923">
      <component glyphName="U" x="0" y="0" flags="0x204"/>
      <component glyphName="circumflex.cap" x="134" y="200" flags="0x4"/>
    </TTGlyph>
    <TTGlyph name="Ucircumflex.alt" xMin="50" yMin="-8" xMax="653" yMax="923">
      <component glyphName="circumflex.cap" x="136" y="200" flags="0x4"/>
      <component glyphName="U.alt" x="0" y="0" flags="0x4"/>
    </TTGlyph>
    <TTGlyph name="Udieresis" xMin="55" yMin="-13" xMax="656" yMax="905">
      <component glyphName="dieresis.cap" x="136" y="200" flags="0x4"/>
      <component glyphName="U" x="0" y="0" flags="0x4"/>
    </TTGlyph>
    <TTGlyph name="Udieresis.alt" xMin="50" yMin="-8" xMax="653" yMax="905">
      <component glyphName="dieresis.cap" x="138" y="200" flags="0x4"/>
      <component glyphName="U.alt" x="0" y="0" flags="0x4"/>
    </TTGlyph>
    <TTGlyph name="Ugrave" xMin="55" yMin="-13" xMax="656" yMax="926">
      <component glyphName="grave.cap" x="73" y="200" flags="0x4"/>
      <component glyphName="U" x="0" y="0" flags="0x4"/>
    </TTGlyph>
    <TTGlyph name="Ugrave.alt" xMin="50" yMin="-8" xMax="653" yMax="926">
      <component glyphName="grave.cap" x="74" y="200" flags="0x4"/>
      <component glyphName="U.alt" x="0" y="0" flags="0x4"/>
    </TTGlyph>
    <TTGlyph name="Uhungarumlaut" xMin="55" yMin="-13" xMax="656" yMax="926">
      <component glyphName="U" x="0" y="0" flags="0x204"/>
      <component glyphName="hungarumlaut.cap" x="181" y="200" flags="0x4"/>
    </TTGlyph>
    <TTGlyph name="Uhungarumlaut.alt" xMin="50" yMin="-8" xMax="657" yMax="926">
      <component glyphName="U.alt" x="0" y="0" flags="0x204"/>
      <component glyphName="hungarumlaut.cap" x="182" y="200" flags="0x4"/>
    </TTGlyph>
    <TTGlyph name="Umacron" xMin="55" yMin="-13" xMax="656" yMax="886">
      <component glyphName="macron.cap" x="136" y="200" flags="0x4"/>
      <component glyphName="U" x="0" y="0" flags="0x4"/>
    </TTGlyph>
    <TTGlyph name="Umacron.alt" xMin="50" yMin="-8" xMax="653" yMax="886">
      <component glyphName="macron.cap" x="138" y="200" flags="0x4"/>
      <component glyphName="U.alt" x="0" y="0" flags="0x4"/>
    </TTGlyph>
    <TTGlyph name="Uogonek" xMin="56" yMin="-208" xMax="657" yMax="725">
      <contour>
        <pt x="587" y="257" on="1"/>
        <pt x="567" y="126" on="0"/>
        <pt x="437" y="-5" on="0"/>
        <pt x="325" y="-12" on="1"/>
        <pt x="323" y="-15" on="0"/>
        <pt x="319" y="-20" on="0"/>
        <pt x="317" y="-23" on="1"/>
        <pt x="298" y="-49" on="0"/>
        <pt x="280" y="-81" on="0"/>
        <pt x="280" y="-94" on="1"/>
        <pt x="280" y="-121" on="0"/>
        <pt x="317" y="-121" on="1"/>
        <pt x="329" y="-121" on="0"/>
        <pt x="350" y="-118" on="0"/>
        <pt x="363" y="-116" on="1"/>
        <pt x="352" y="-191" on="1"/>
        <pt x="331" y="-199" on="0"/>
        <pt x="287" y="-208" on="0"/>
        <pt x="258" y="-208" on="1"/>
        <pt x="213" y="-208" on="0"/>
        <pt x="164" y="-168" on="0"/>
        <pt x="164" y="-132" on="1"/>
        <pt x="164" y="-106" on="0"/>
        <pt x="193" y="-52" on="0"/>
        <pt x="222" y="-20" on="1"/>
        <pt x="225" y="-17" on="0"/>
        <pt x="230" y="-11" on="0"/>
        <pt x="233" y="-8" on="1"/>
        <pt x="148" y="6" on="0"/>
        <pt x="56" y="113" on="0"/>
        <pt x="56" y="205" on="1"/>
        <pt x="56" y="224" on="0"/>
        <pt x="59" y="260" on="0"/>
        <pt x="61" y="277" on="1"/>
        <pt x="127" y="725" on="1"/>
        <pt x="301" y="725" on="1"/>
        <pt x="234" y="266" on="1"/>
        <pt x="232" y="252" on="0"/>
        <pt x="229" y="227" on="0"/>
        <pt x="229" y="214" on="1"/>
        <pt x="229" y="175" on="0"/>
        <pt x="269" y="132" on="0"/>
        <pt x="308" y="132" on="1"/>
        <pt x="353" y="132" on="0"/>
        <pt x="404" y="194" on="0"/>
        <pt x="413" y="251" on="1"/>
        <pt x="483" y="725" on="1"/>
        <pt x="657" y="725" on="1"/>
      </contour>
    </TTGlyph>
    <TTGlyph name="Uogonek.alt" xMin="50" yMin="-208" xMax="653" yMax="725">
      <contour>
        <pt x="508" y="-191" on="1"/>
        <pt x="487" y="-199" on="0"/>
        <pt x="443" y="-208" on="0"/>
        <pt x="414" y="-208" on="1"/>
        <pt x="369" y="-208" on="0"/>
        <pt x="320" y="-168" on="0"/>
        <pt x="320" y="-132" on="1"/>
        <pt x="320" y="-101" on="0"/>
        <pt x="359" y="-38" on="0"/>
        <pt x="397" y="0" on="1"/>
        <pt x="397" y="61" on="1"/>
        <pt x="351" y="29" on="0"/>
        <pt x="262" y="-8" on="0"/>
        <pt x="211" y="-8" on="1"/>
        <pt x="136" y="-8" on="0"/>
        <pt x="50" y="71" on="0"/>
        <pt x="50" y="151" on="1"/>
        <pt x="50" y="167" on="0"/>
        <pt x="54" y="207" on="0"/>
        <pt x="56" y="224" on="1"/>
        <pt x="131" y="725" on="1"/>
        <pt x="304" y="725" on="1"/>
        <pt x="231" y="237" on="1"/>
        <pt x="228" y="217" on="0"/>
        <pt x="228" y="203" on="1"/>
        <pt x="228" y="175" on="0"/>
        <pt x="255" y="144" on="0"/>
        <pt x="286" y="144" on="1"/>
        <pt x="312" y="144" on="0"/>
        <pt x="368" y="169" on="0"/>
        <pt x="400" y="192" on="1"/>
        <pt x="479" y="725" on="1"/>
        <pt x="653" y="725" on="1"/>
        <pt x="545" y="0" on="1"/>
        <pt x="491" y="0" on="1"/>
        <pt x="483" y="-10" on="1"/>
        <pt x="458" y="-43" on="0"/>
        <pt x="436" y="-80" on="0"/>
        <pt x="436" y="-94" on="1"/>
        <pt x="436" y="-121" on="0"/>
        <pt x="473" y="-121" on="1"/>
        <pt x="485" y="-121" on="0"/>
        <pt x="506" y="-118" on="0"/>
        <pt x="519" y="-116" on="1"/>
        <pt x="508" y="-191" on="1"/>
      </contour>
    </TTGlyph>
    <TTGlyph name="Uring" xMin="55" yMin="-13" xMax="656" yMax="991">
      <component glyphName="U" x="0" y="0" flags="0x204"/>
      <component glyphName="ring.cap" x="127" y="195" flags="0x4"/>
    </TTGlyph>
    <TTGlyph name="Uring.alt" xMin="50" yMin="-8" xMax="653" yMax="991">
      <component glyphName="ring.cap" x="129" y="195" flags="0x4"/>
      <component glyphName="U.alt" x="0" y="0" flags="0x4"/>
    </TTGlyph>
    <TTGlyph name="V" xMin="88" yMin="-2" xMax="687" yMax="732">
      <contour>
        <pt x="370" y="-2" on="1"/>
        <pt x="189" y="-2" on="1"/>
        <pt x="88" y="701" on="1"/>
        <pt x="270" y="732" on="1"/>
        <pt x="317" y="221" on="1"/>
        <pt x="510" y="725" on="1"/>
        <pt x="687" y="725" on="1"/>
      </contour>
    </TTGlyph>
    <TTGlyph name="V.flat" xMin="86" yMin="-2" xMax="688" yMax="725">
      <contour>
        <pt x="370" y="-2" on="1"/>
        <pt x="190" y="-2" on="1"/>
        <pt x="86" y="725" on="1"/>
        <pt x="272" y="725" on="1"/>
        <pt x="318" y="221" on="1"/>
        <pt x="511" y="725" on="1"/>
        <pt x="688" y="725" on="1"/>
      </contour>
    </TTGlyph>
    <TTGlyph name="W" xMin="90" yMin="0" xMax="988" yMax="733">
      <contour>
        <pt x="710" y="0" on="1"/>
        <pt x="538" y="0" on="1"/>
        <pt x="499" y="475" on="1"/>
        <pt x="321" y="0" on="1"/>
        <pt x="151" y="0" on="1"/>
        <pt x="90" y="704" on="1"/>
        <pt x="275" y="733" on="1"/>
        <pt x="291" y="264" on="1"/>
        <pt x="459" y="725" on="1"/>
        <pt x="637" y="725" on="1"/>
        <pt x="669" y="264" on="1"/>
        <pt x="821" y="725" on="1"/>
        <pt x="988" y="725" on="1"/>
      </contour>
    </TTGlyph>
    <TTGlyph name="W.alt" xMin="85" yMin="-2" xMax="989" yMax="733">
      <contour>
        <pt x="635" y="238" on="1"/>
        <pt x="813" y="725" on="1"/>
        <pt x="989" y="725" on="1"/>
        <pt x="682" y="-2" on="1"/>
        <pt x="517" y="-2" on="1"/>
        <pt x="475" y="316" on="1"/>
        <pt x="343" y="-2" on="1"/>
        <pt x="177" y="-2" on="1"/>
        <pt x="85" y="704" on="1"/>
        <pt x="265" y="733" on="1"/>
        <pt x="313" y="233" on="1"/>
        <pt x="440" y="538" on="1"/>
        <pt x="419" y="707" on="1"/>
        <pt x="593" y="733" on="1"/>
      </contour>
    </TTGlyph>
    <TTGlyph name="W.alt_flat" xMin="84" yMin="-2" xMax="991" yMax="725">
      <contour>
        <pt x="635" y="238" on="1"/>
        <pt x="814" y="725" on="1"/>
        <pt x="991" y="725" on="1"/>
        <pt x="683" y="-2" on="1"/>
        <pt x="518" y="-2" on="1"/>
        <pt x="477" y="315" on="1"/>
        <pt x="343" y="-2" on="1"/>
        <pt x="178" y="-2" on="1"/>
        <pt x="84" y="725" on="1"/>
        <pt x="267" y="725" on="1"/>
        <pt x="314" y="233" on="1"/>
        <pt x="442" y="540" on="1"/>
        <pt x="418" y="725" on="1"/>
        <pt x="595" y="725" on="1"/>
      </contour>
    </TTGlyph>
    <TTGlyph name="W.flat" xMin="90" yMin="0" xMax="989" yMax="725">
      <contour>
        <pt x="710" y="0" on="1"/>
        <pt x="539" y="0" on="1"/>
        <pt x="500" y="475" on="1"/>
        <pt x="321" y="0" on="1"/>
        <pt x="152" y="0" on="1"/>
        <pt x="90" y="725" on="1"/>
        <pt x="276" y="725" on="1"/>
        <pt x="293" y="264" on="1"/>
        <pt x="460" y="725" on="1"/>
        <pt x="639" y="725" on="1"/>
        <pt x="669" y="264" on="1"/>
        <pt x="822" y="725" on="1"/>
        <pt x="989" y="725" on="1"/>
      </contour>
    </TTGlyph>
    <TTGlyph name="Wacute" xMin="90" yMin="0" xMax="988" yMax="930">
      <component glyphName="acute.cap" x="351" y="204" flags="0x4"/>
      <component glyphName="W" x="0" y="0" flags="0x4"/>
    </TTGlyph>
    <TTGlyph name="Wacute.alt" xMin="85" yMin="-2" xMax="989" yMax="930">
      <component glyphName="acute.cap" x="334" y="204" flags="0x4"/>
      <component glyphName="W.alt" x="0" y="0" flags="0x4"/>
    </TTGlyph>
    <TTGlyph name="Wacute.alt_flat" xMin="84" yMin="-2" xMax="991" yMax="930">
      <component glyphName="acute.cap" x="335" y="204" flags="0x4"/>
      <component glyphName="W.alt_flat" x="0" y="0" flags="0x4"/>
    </TTGlyph>
    <TTGlyph name="Wacute.flat" xMin="90" yMin="0" xMax="989" yMax="930">
      <component glyphName="acute.cap" x="352" y="204" flags="0x4"/>
      <component glyphName="W.flat" x="0" y="0" flags="0x4"/>
    </TTGlyph>
    <TTGlyph name="Wcircumflex" xMin="90" yMin="0" xMax="988" yMax="927">
      <component glyphName="W" x="0" y="0" flags="0x204"/>
      <component glyphName="circumflex.cap" x="294" y="204" flags="0x4"/>
    </TTGlyph>
    <TTGlyph name="Wcircumflex.alt" xMin="85" yMin="-2" xMax="989" yMax="927">
      <component glyphName="W.alt" x="0" y="0" flags="0x204"/>
      <component glyphName="circumflex.cap" x="277" y="204" flags="0x4"/>
    </TTGlyph>
    <TTGlyph name="Wcircumflex.alt_flat" xMin="84" yMin="-2" xMax="991" yMax="927">
      <component glyphName="W.alt_flat" x="0" y="0" flags="0x204"/>
      <component glyphName="circumflex.cap" x="278" y="204" flags="0x4"/>
    </TTGlyph>
    <TTGlyph name="Wcircumflex.flat" xMin="90" yMin="0" xMax="989" yMax="927">
      <component glyphName="W.flat" x="0" y="0" flags="0x204"/>
      <component glyphName="circumflex.cap" x="295" y="204" flags="0x4"/>
    </TTGlyph>
    <TTGlyph name="Wdieresis" xMin="90" yMin="0" xMax="988" yMax="909">
      <component glyphName="dieresis.cap" x="296" y="204" flags="0x4"/>
      <component glyphName="W" x="0" y="0" flags="0x4"/>
    </TTGlyph>
    <TTGlyph name="Wdieresis.alt" xMin="85" yMin="-2" xMax="989" yMax="909">
      <component glyphName="dieresis.cap" x="280" y="204" flags="0x4"/>
      <component glyphName="W.alt" x="0" y="0" flags="0x4"/>
    </TTGlyph>
    <TTGlyph name="Wdieresis.alt_flat" xMin="84" yMin="-2" xMax="991" yMax="909">
      <component glyphName="dieresis.cap" x="281" y="204" flags="0x4"/>
      <component glyphName="W.alt_flat" x="0" y="0" flags="0x4"/>
    </TTGlyph>
    <TTGlyph name="Wdieresis.flat" xMin="90" yMin="0" xMax="989" yMax="909">
      <component glyphName="dieresis.cap" x="298" y="204" flags="0x4"/>
      <component glyphName="W.flat" x="0" y="0" flags="0x4"/>
    </TTGlyph>
    <TTGlyph name="Wgrave" xMin="90" yMin="0" xMax="988" yMax="930">
      <component glyphName="grave.cap" x="232" y="204" flags="0x4"/>
      <component glyphName="W" x="0" y="0" flags="0x4"/>
    </TTGlyph>
    <TTGlyph name="Wgrave.alt" xMin="85" yMin="-2" xMax="989" yMax="930">
      <component glyphName="grave.cap" x="216" y="204" flags="0x4"/>
      <component glyphName="W.alt" x="0" y="0" flags="0x4"/>
    </TTGlyph>
    <TTGlyph name="Wgrave.alt_flat" xMin="84" yMin="-2" xMax="991" yMax="930">
      <component glyphName="grave.cap" x="217" y="204" flags="0x4"/>
      <component glyphName="W.alt_flat" x="0" y="0" flags="0x4"/>
    </TTGlyph>
    <TTGlyph name="Wgrave.flat" xMin="90" yMin="0" xMax="989" yMax="930">
      <component glyphName="grave.cap" x="233" y="204" flags="0x4"/>
      <component glyphName="W.flat" x="0" y="0" flags="0x4"/>
    </TTGlyph>
    <TTGlyph name="X" xMin="-25" yMin="-9" xMax="648" yMax="733">
      <contour>
        <pt x="420" y="377" on="1"/>
        <pt x="562" y="19" on="1"/>
        <pt x="383" y="-9" on="1"/>
        <pt x="299" y="238" on="1"/>
        <pt x="162" y="-1" on="1"/>
        <pt x="-25" y="-1" on="1"/>
        <pt x="223" y="376" on="1"/>
        <pt x="93" y="705" on="1"/>
        <pt x="271" y="733" on="1"/>
        <pt x="343" y="516" on="1"/>
        <pt x="461" y="725" on="1"/>
        <pt x="648" y="725" on="1"/>
      </contour>
    </TTGlyph>
    <TTGlyph name="X.flat" xMin="-25" yMin="-1" xMax="650" yMax="725">
      <contour>
        <pt x="420" y="374" on="1"/>
        <pt x="568" y="0" on="1"/>
        <pt x="379" y="0" on="1"/>
        <pt x="300" y="237" on="1"/>
        <pt x="162" y="-1" on="1"/>
        <pt x="-25" y="-1" on="1"/>
        <pt x="223" y="374" on="1"/>
        <pt x="84" y="725" on="1"/>
        <pt x="274" y="725" on="1"/>
        <pt x="343" y="514" on="1"/>
        <pt x="463" y="725" on="1"/>
        <pt x="650" y="725" on="1"/>
      </contour>
    </TTGlyph>
    <TTGlyph name="Y" xMin="76" yMin="0" xMax="680" yMax="733">
      <contour>
        <pt x="394" y="261" on="1"/>
        <pt x="354" y="0" on="1"/>
        <pt x="180" y="0" on="1"/>
        <pt x="219" y="258" on="1"/>
        <pt x="76" y="706" on="1"/>
        <pt x="255" y="733" on="1"/>
        <pt x="336" y="435" on="1"/>
        <pt x="491" y="725" on="1"/>
        <pt x="680" y="725" on="1"/>
      </contour>
    </TTGlyph>
    <TTGlyph name="Y.flat" xMin="71" yMin="0" xMax="682" yMax="725">
      <contour>
        <pt x="396" y="261" on="1"/>
        <pt x="357" y="0" on="1"/>
        <pt x="182" y="0" on="1"/>
        <pt x="221" y="258" on="1"/>
        <pt x="71" y="725" on="1"/>
        <pt x="259" y="725" on="1"/>
        <pt x="337" y="435" on="1"/>
        <pt x="492" y="725" on="1"/>
        <pt x="682" y="725" on="1"/>
      </contour>
    </TTGlyph>
    <TTGlyph name="Yacute" xMin="76" yMin="0" xMax="680" yMax="926">
      <component glyphName="Y" x="0" y="0" flags="0x204"/>
      <component glyphName="acute.cap" x="172" y="200" flags="0x4"/>
    </TTGlyph>
    <TTGlyph name="Yacute.flat" xMin="71" yMin="0" xMax="682" yMax="926">
      <component glyphName="acute.cap" x="174" y="200" flags="0x4"/>
      <component glyphName="Y.flat" x="0" y="0" flags="0x4"/>
    </TTGlyph>
    <TTGlyph name="Ycircumflex" xMin="76" yMin="0" xMax="680" yMax="923">
      <component glyphName="Y" x="0" y="0" flags="0x204"/>
      <component glyphName="circumflex.cap" x="116" y="200" flags="0x4"/>
    </TTGlyph>
    <TTGlyph name="Ycircumflex.flat" xMin="71" yMin="0" xMax="682" yMax="923">
      <component glyphName="Y.flat" x="0" y="0" flags="0x204"/>
      <component glyphName="circumflex.cap" x="118" y="200" flags="0x4"/>
    </TTGlyph>
    <TTGlyph name="Ydieresis" xMin="76" yMin="0" xMax="680" yMax="905">
      <component glyphName="Y" x="0" y="0" flags="0x204"/>
      <component glyphName="dieresis.cap" x="118" y="200" flags="0x4"/>
    </TTGlyph>
    <TTGlyph name="Ydieresis.flat" xMin="71" yMin="0" xMax="682" yMax="905">
      <component glyphName="dieresis.cap" x="120" y="200" flags="0x4"/>
      <component glyphName="Y.flat" x="0" y="0" flags="0x4"/>
    </TTGlyph>
    <TTGlyph name="Ygrave" xMin="76" yMin="0" xMax="680" yMax="926">
      <component glyphName="Y" x="0" y="0" flags="0x204"/>
      <component glyphName="grave.cap" x="54" y="200" flags="0x4"/>
    </TTGlyph>
    <TTGlyph name="Ygrave.flat" xMin="71" yMin="0" xMax="682" yMax="926">
      <component glyphName="grave.cap" x="56" y="200" flags="0x4"/>
      <component glyphName="Y.flat" x="0" y="0" flags="0x4"/>
    </TTGlyph>
    <TTGlyph name="Z" xMin="-1" yMin="0" xMax="585" yMax="725">
      <contour>
        <pt x="565" y="596" on="1"/>
        <pt x="227" y="140" on="1"/>
        <pt x="487" y="140" on="1"/>
        <pt x="487" y="0" on="1"/>
        <pt x="-1" y="0" on="1"/>
        <pt x="19" y="129" on="1"/>
        <pt x="358" y="585" on="1"/>
        <pt x="117" y="585" on="1"/>
        <pt x="117" y="725" on="1"/>
        <pt x="585" y="725" on="1"/>
      </contour>
    </TTGlyph>
    <TTGlyph name="Z.flat" xMin="-1" yMin="0" xMax="585" yMax="725">
      <contour>
        <pt x="565" y="596" on="1"/>
        <pt x="227" y="140" on="1"/>
        <pt x="497" y="140" on="1"/>
        <pt x="476" y="0" on="1"/>
        <pt x="-1" y="0" on="1"/>
        <pt x="19" y="129" on="1"/>
        <pt x="358" y="585" on="1"/>
        <pt x="107" y="585" on="1"/>
        <pt x="127" y="725" on="1"/>
        <pt x="585" y="725" on="1"/>
      </contour>
    </TTGlyph>
    <TTGlyph name="Zacute" xMin="-1" yMin="0" xMax="585" yMax="930">
      <component glyphName="Z" x="0" y="0" flags="0x204"/>
      <component glyphName="acute.cap" x="149" y="204" flags="0x4"/>
    </TTGlyph>
    <TTGlyph name="Zacute.flat" xMin="-1" yMin="0" xMax="585" yMax="930">
      <component glyphName="acute.cap" x="149" y="204" flags="0x4"/>
      <component glyphName="Z.flat" x="0" y="0" flags="0x4"/>
    </TTGlyph>
    <TTGlyph name="Zcaron" xMin="-1" yMin="0" xMax="585" yMax="926">
      <component glyphName="caron.cap" x="95" y="204" flags="0x4"/>
      <component glyphName="Z" x="0" y="0" flags="0x4"/>
    </TTGlyph>
    <TTGlyph name="Zcaron.flat" xMin="-1" yMin="0" xMax="585" yMax="926">
      <component glyphName="caron.cap" x="95" y="204" flags="0x4"/>
      <component glyphName="Z.flat" x="0" y="0" flags="0x4"/>
    </TTGlyph>
    <TTGlyph name="Zdotaccent" xMin="-1" yMin="0" xMax="585" yMax="909">
      <component glyphName="dotaccent.cap" x="95" y="204" flags="0x4"/>
      <component glyphName="Z" x="0" y="0" flags="0x4"/>
    </TTGlyph>
    <TTGlyph name="Zdotaccent.flat" xMin="-1" yMin="0" xMax="585" yMax="909">
      <component glyphName="dotaccent.cap" x="95" y="204" flags="0x4"/>
      <component glyphName="Z.flat" x="0" y="0" flags="0x4"/>
    </TTGlyph>
    <TTGlyph name="a" xMin="31" yMin="-11" xMax="534" yMax="556">
      <contour>
        <pt x="319" y="85" on="1"/>
        <pt x="285" y="42" on="0"/>
        <pt x="211" y="-11" on="0"/>
        <pt x="169" y="-11" on="1"/>
        <pt x="107" y="-11" on="0"/>
        <pt x="31" y="85" on="0"/>
        <pt x="31" y="176" on="1"/>
        <pt x="31" y="265" on="0"/>
        <pt x="79" y="406" on="0"/>
        <pt x="164" y="504" on="0"/>
        <pt x="280" y="556" on="0"/>
        <pt x="347" y="556" on="1"/>
        <pt x="394" y="556" on="0"/>
        <pt x="489" y="537" on="0"/>
        <pt x="534" y="519" on="1"/>
        <pt x="476" y="136" on="1"/>
        <pt x="476" y="0" on="1"/>
        <pt x="325" y="0" on="1"/>
      </contour>
      <contour>
        <pt x="361" y="421" on="1"/>
        <pt x="344" y="428" on="0"/>
        <pt x="325" y="428" on="1"/>
        <pt x="299" y="428" on="0"/>
        <pt x="252" y="394" on="0"/>
        <pt x="215" y="336" on="0"/>
        <pt x="193" y="256" on="0"/>
        <pt x="193" y="211" on="1"/>
        <pt x="193" y="172" on="0"/>
        <pt x="218" y="132" on="0"/>
        <pt x="239" y="132" on="1"/>
        <pt x="259" y="132" on="0"/>
        <pt x="301" y="162" on="0"/>
        <pt x="326" y="191" on="1"/>
      </contour>
    </TTGlyph>
    <TTGlyph name="a.alt" xMin="15" yMin="-11" xMax="489" yMax="560">
      <contour>
        <pt x="325" y="364" on="1"/>
        <pt x="326" y="369" on="0"/>
        <pt x="326" y="378" on="0"/>
        <pt x="326" y="383" on="1"/>
        <pt x="326" y="409" on="0"/>
        <pt x="297" y="433" on="0"/>
        <pt x="263" y="433" on="1"/>
        <pt x="229" y="433" on="0"/>
        <pt x="149" y="410" on="0"/>
        <pt x="104" y="390" on="1"/>
        <pt x="104" y="516" on="1"/>
        <pt x="149" y="535" on="0"/>
        <pt x="251" y="560" on="0"/>
        <pt x="309" y="560" on="1"/>
        <pt x="401" y="560" on="0"/>
        <pt x="489" y="488" on="0"/>
        <pt x="489" y="413" on="1"/>
        <pt x="489" y="402" on="0"/>
        <pt x="487" y="380" on="0"/>
        <pt x="485" y="367" on="1"/>
        <pt x="446" y="115" on="1"/>
        <pt x="446" y="0" on="1"/>
        <pt x="294" y="0" on="1"/>
        <pt x="289" y="69" on="1"/>
        <pt x="257" y="34" on="0"/>
        <pt x="184" y="-11" on="0"/>
        <pt x="138" y="-11" on="1"/>
        <pt x="81" y="-11" on="0"/>
        <pt x="15" y="62" on="0"/>
        <pt x="15" y="122" on="1"/>
        <pt x="15" y="218" on="0"/>
        <pt x="165" y="329" on="0"/>
        <pt x="321" y="340" on="1"/>
      </contour>
      <contour>
        <pt x="209" y="105" on="1"/>
        <pt x="229" y="105" on="0"/>
        <pt x="268" y="128" on="0"/>
        <pt x="291" y="150" on="1"/>
        <pt x="308" y="258" on="1"/>
        <pt x="270" y="253" on="0"/>
        <pt x="217" y="230" on="0"/>
        <pt x="185" y="200" on="0"/>
        <pt x="171" y="165" on="0"/>
        <pt x="171" y="148" on="1"/>
        <pt x="171" y="127" on="0"/>
        <pt x="192" y="105" on="0"/>
      </contour>
    </TTGlyph>
    <TTGlyph name="aacute" xMin="31" yMin="-11" xMax="564" yMax="776">
      <component glyphName="a" x="0" y="0" flags="0x204"/>
      <component glyphName="acute" x="133" y="2" flags="0x4"/>
    </TTGlyph>
    <TTGlyph name="aacute.alt" xMin="15" yMin="-11" xMax="526" yMax="776">
      <component glyphName="acute" x="95" y="2" flags="0x4"/>
      <component glyphName="a.alt" x="0" y="0" flags="0x4"/>
    </TTGlyph>
    <TTGlyph name="abreve" xMin="31" yMin="-11" xMax="535" yMax="772">
      <component glyphName="a" x="0" y="0" flags="0x204"/>
      <component glyphName="breve" x="76" y="2" flags="0x4"/>
    </TTGlyph>
    <TTGlyph name="abreve.alt" xMin="15" yMin="-11" xMax="497" yMax="772">
      <component glyphName="a.alt" x="0" y="0" flags="0x204"/>
      <component glyphName="breve" x="38" y="2" flags="0x4"/>
    </TTGlyph>
    <TTGlyph name="acircumflex" xMin="31" yMin="-11" xMax="534" yMax="773">
      <component glyphName="a" x="0" y="0" flags="0x204"/>
      <component glyphName="circumflex" x="73" y="2" flags="0x4"/>
    </TTGlyph>
    <TTGlyph name="acircumflex.alt" xMin="15" yMin="-11" xMax="489" yMax="773">
      <component glyphName="circumflex" x="34" y="2" flags="0x4"/>
      <component glyphName="a.alt" x="0" y="0" flags="0x4"/>
    </TTGlyph>
    <TTGlyph name="acute" xMin="161" yMin="606" xMax="431" yMax="774">
      <contour>
        <pt x="263" y="606" on="1"/>
        <pt x="161" y="606" on="1"/>
        <pt x="246" y="774" on="1"/>
        <pt x="431" y="740" on="1"/>
      </contour>
    </TTGlyph>
    <TTGlyph name="acute.cap" xMin="150" yMin="568" xMax="405" yMax="726">
      <contour>
        <pt x="247" y="568" on="1"/>
        <pt x="150" y="568" on="1"/>
        <pt x="230" y="726" on="1"/>
        <pt x="405" y="693" on="1"/>
      </contour>
    </TTGlyph>
    <TTGlyph name="adieresis" xMin="31" yMin="-11" xMax="539" yMax="753">
      <component glyphName="a" x="0" y="0" flags="0x204"/>
      <component glyphName="dieresis" x="75" y="2" flags="0x4"/>
    </TTGlyph>
    <TTGlyph name="adieresis.alt" xMin="15" yMin="-11" xMax="500" yMax="753">
      <component glyphName="dieresis" x="36" y="2" flags="0x4"/>
      <component glyphName="a.alt" x="0" y="0" flags="0x4"/>
    </TTGlyph>
    <TTGlyph name="ae" xMin="14" yMin="-11" xMax="761" yMax="561">
      <contour>
        <pt x="761" y="360" on="1"/>
        <pt x="761" y="325" on="0"/>
        <pt x="752" y="262" on="0"/>
        <pt x="745" y="234" on="1"/>
        <pt x="459" y="234" on="1"/>
        <pt x="459" y="222" on="1"/>
        <pt x="461" y="163" on="0"/>
        <pt x="512" y="110" on="0"/>
        <pt x="559" y="110" on="1"/>
        <pt x="599" y="110" on="0"/>
        <pt x="675" y="136" on="0"/>
        <pt x="713" y="158" on="1"/>
        <pt x="713" y="38" on="1"/>
        <pt x="669" y="15" on="0"/>
        <pt x="581" y="-11" on="0"/>
        <pt x="526" y="-11" on="1"/>
        <pt x="467" y="-11" on="0"/>
        <pt x="377" y="31" on="0"/>
        <pt x="348" y="71" on="1"/>
        <pt x="302" y="35" on="0"/>
        <pt x="205" y="-11" on="0"/>
        <pt x="151" y="-11" on="1"/>
        <pt x="89" y="-11" on="0"/>
        <pt x="14" y="59" on="0"/>
        <pt x="14" y="125" on="1"/>
        <pt x="14" y="216" on="0"/>
        <pt x="163" y="327" on="0"/>
        <pt x="319" y="340" on="1"/>
        <pt x="321" y="361" on="1"/>
        <pt x="322" y="367" on="0"/>
        <pt x="323" y="377" on="0"/>
        <pt x="323" y="382" on="1"/>
        <pt x="323" y="409" on="0"/>
        <pt x="292" y="433" on="0"/>
        <pt x="260" y="433" on="1"/>
        <pt x="227" y="433" on="0"/>
        <pt x="147" y="410" on="0"/>
        <pt x="101" y="389" on="1"/>
        <pt x="101" y="516" on="1"/>
        <pt x="147" y="535" on="0"/>
        <pt x="247" y="560" on="0"/>
        <pt x="298" y="560" on="1"/>
        <pt x="395" y="560" on="0"/>
        <pt x="431" y="505" on="1"/>
        <pt x="461" y="531" on="0"/>
        <pt x="534" y="561" on="0"/>
        <pt x="578" y="561" on="1"/>
        <pt x="624" y="561" on="0"/>
        <pt x="692" y="530" on="0"/>
        <pt x="738" y="475" on="0"/>
        <pt x="761" y="402" on="0"/>
      </contour>
      <contour>
        <pt x="613" y="330" on="1"/>
        <pt x="616" y="352" on="0"/>
        <pt x="616" y="370" on="1"/>
        <pt x="616" y="407" on="0"/>
        <pt x="591" y="449" on="0"/>
        <pt x="564" y="449" on="1"/>
        <pt x="534" y="449" on="0"/>
        <pt x="483" y="383" on="0"/>
        <pt x="471" y="330" on="1"/>
      </contour>
      <contour>
        <pt x="313" y="153" on="1"/>
        <pt x="305" y="188" on="0"/>
        <pt x="305" y="222" on="1"/>
        <pt x="305" y="230" on="0"/>
        <pt x="306" y="247" on="0"/>
        <pt x="306" y="258" on="1"/>
        <pt x="267" y="251" on="0"/>
        <pt x="215" y="229" on="0"/>
        <pt x="184" y="201" on="0"/>
        <pt x="171" y="169" on="0"/>
        <pt x="171" y="153" on="1"/>
        <pt x="171" y="129" on="0"/>
        <pt x="196" y="105" on="0"/>
        <pt x="217" y="105" on="1"/>
        <pt x="256" y="105" on="0"/>
      </contour>
    </TTGlyph>
    <TTGlyph name="aeacute" xMin="14" yMin="-11" xMax="761" yMax="774">
      <component glyphName="acute" x="225" y="0" flags="0x4"/>
      <component glyphName="ae" x="0" y="0" flags="0x4"/>
    </TTGlyph>
    <TTGlyph name="agrave" xMin="31" yMin="-11" xMax="534" yMax="776">
      <component glyphName="a" x="0" y="0" flags="0x204"/>
      <component glyphName="grave" x="8" y="2" flags="0x4"/>
    </TTGlyph>
    <TTGlyph name="agrave.alt" xMin="15" yMin="-11" xMax="489" yMax="776">
      <component glyphName="a.alt" x="0" y="0" flags="0x204"/>
      <component glyphName="grave" x="-31" y="2" flags="0x4"/>
    </TTGlyph>
    <TTGlyph name="amacron" xMin="31" yMin="-11" xMax="534" yMax="733">
      <component glyphName="a" x="0" y="0" flags="0x204"/>
      <component glyphName="macron" x="75" y="2" flags="0x4"/>
    </TTGlyph>
    <TTGlyph name="amacron.alt" xMin="15" yMin="-11" xMax="493" yMax="733">
      <component glyphName="a.alt" x="0" y="0" flags="0x204"/>
      <component glyphName="macron" x="37" y="2" flags="0x4"/>
    </TTGlyph>
    <TTGlyph name="ampersand" xMin="19" yMin="-13" xMax="602" yMax="738">
      <contour>
        <pt x="212" y="-13" on="1"/>
        <pt x="167" y="-13" on="0"/>
        <pt x="95" y="13" on="0"/>
        <pt x="46" y="61" on="0"/>
        <pt x="19" y="127" on="0"/>
        <pt x="19" y="166" on="1"/>
        <pt x="19" y="250" on="0"/>
        <pt x="115" y="371" on="0"/>
        <pt x="192" y="409" on="1"/>
        <pt x="175" y="443" on="0"/>
        <pt x="154" y="509" on="0"/>
        <pt x="154" y="544" on="1"/>
        <pt x="154" y="585" on="0"/>
        <pt x="184" y="656" on="0"/>
        <pt x="238" y="708" on="0"/>
        <pt x="314" y="738" on="0"/>
        <pt x="361" y="738" on="1"/>
        <pt x="420" y="738" on="0"/>
        <pt x="505" y="711" on="0"/>
        <pt x="540" y="692" on="1"/>
        <pt x="498" y="558" on="1"/>
        <pt x="464" y="577" on="0"/>
        <pt x="402" y="602" on="0"/>
        <pt x="373" y="602" on="1"/>
        <pt x="342" y="602" on="0"/>
        <pt x="310" y="569" on="0"/>
        <pt x="310" y="543" on="1"/>
        <pt x="310" y="521" on="0"/>
        <pt x="328" y="479" on="0"/>
        <pt x="344" y="453" on="1"/>
        <pt x="429" y="310" on="1"/>
        <pt x="441" y="337" on="0"/>
        <pt x="464" y="399" on="0"/>
        <pt x="475" y="436" on="1"/>
        <pt x="599" y="401" on="1"/>
        <pt x="580" y="342" on="0"/>
        <pt x="531" y="233" on="0"/>
        <pt x="502" y="187" on="1"/>
        <pt x="602" y="18" on="1"/>
        <pt x="441" y="-7" on="1"/>
        <pt x="398" y="65" on="1"/>
        <pt x="355" y="27" on="0"/>
        <pt x="264" y="-13" on="0"/>
      </contour>
      <contour>
        <pt x="245" y="113" on="1"/>
        <pt x="268" y="113" on="0"/>
        <pt x="315" y="138" on="0"/>
        <pt x="338" y="166" on="1"/>
        <pt x="251" y="313" on="1"/>
        <pt x="175" y="259" on="0"/>
        <pt x="175" y="188" on="1"/>
        <pt x="175" y="155" on="0"/>
        <pt x="211" y="113" on="0"/>
      </contour>
    </TTGlyph>
    <TTGlyph name="ampersand.flat" xMin="19" yMin="-13" xMax="613" yMax="738">
      <contour>
        <pt x="212" y="-13" on="1"/>
        <pt x="167" y="-13" on="0"/>
        <pt x="95" y="13" on="0"/>
        <pt x="46" y="61" on="0"/>
        <pt x="19" y="127" on="0"/>
        <pt x="19" y="166" on="1"/>
        <pt x="19" y="250" on="0"/>
        <pt x="115" y="371" on="0"/>
        <pt x="192" y="409" on="1"/>
        <pt x="175" y="443" on="0"/>
        <pt x="154" y="509" on="0"/>
        <pt x="154" y="544" on="1"/>
        <pt x="154" y="585" on="0"/>
        <pt x="184" y="656" on="0"/>
        <pt x="238" y="708" on="0"/>
        <pt x="314" y="738" on="0"/>
        <pt x="361" y="738" on="1"/>
        <pt x="420" y="738" on="0"/>
        <pt x="505" y="711" on="0"/>
        <pt x="540" y="692" on="1"/>
        <pt x="498" y="558" on="1"/>
        <pt x="464" y="577" on="0"/>
        <pt x="402" y="602" on="0"/>
        <pt x="373" y="602" on="1"/>
        <pt x="342" y="602" on="0"/>
        <pt x="310" y="569" on="0"/>
        <pt x="310" y="543" on="1"/>
        <pt x="310" y="521" on="0"/>
        <pt x="328" y="479" on="0"/>
        <pt x="344" y="453" on="1"/>
        <pt x="429" y="310" on="1"/>
        <pt x="441" y="337" on="0"/>
        <pt x="464" y="399" on="0"/>
        <pt x="475" y="436" on="1"/>
        <pt x="599" y="401" on="1"/>
        <pt x="580" y="342" on="0"/>
        <pt x="531" y="234" on="0"/>
        <pt x="502" y="187" on="1"/>
        <pt x="613" y="0" on="1"/>
        <pt x="437" y="0" on="1"/>
        <pt x="398" y="65" on="1"/>
        <pt x="355" y="27" on="0"/>
        <pt x="264" y="-13" on="0"/>
      </contour>
      <contour>
        <pt x="245" y="113" on="1"/>
        <pt x="268" y="113" on="0"/>
        <pt x="315" y="138" on="0"/>
        <pt x="338" y="166" on="1"/>
        <pt x="251" y="313" on="1"/>
        <pt x="175" y="259" on="0"/>
        <pt x="175" y="188" on="1"/>
        <pt x="175" y="155" on="0"/>
        <pt x="211" y="113" on="0"/>
      </contour>
    </TTGlyph>
    <TTGlyph name="aogonek" xMin="31" yMin="-221" xMax="534" yMax="556">
      <contour>
        <pt x="319" y="85" on="1"/>
        <pt x="285" y="42" on="0"/>
        <pt x="211" y="-11" on="0"/>
        <pt x="169" y="-11" on="1"/>
        <pt x="107" y="-11" on="0"/>
        <pt x="31" y="85" on="0"/>
        <pt x="31" y="176" on="1"/>
        <pt x="31" y="265" on="0"/>
        <pt x="79" y="406" on="0"/>
        <pt x="164" y="504" on="0"/>
        <pt x="280" y="556" on="0"/>
        <pt x="347" y="556" on="1"/>
        <pt x="394" y="556" on="0"/>
        <pt x="489" y="537" on="0"/>
        <pt x="534" y="519" on="1"/>
        <pt x="476" y="136" on="1"/>
        <pt x="476" y="0" on="1"/>
        <pt x="423" y="0" on="1"/>
        <pt x="414" y="-11" on="1"/>
        <pt x="387" y="-46" on="0"/>
        <pt x="364" y="-85" on="0"/>
        <pt x="364" y="-100" on="1"/>
        <pt x="364" y="-130" on="0"/>
        <pt x="403" y="-130" on="1"/>
        <pt x="416" y="-130" on="0"/>
        <pt x="438" y="-126" on="0"/>
        <pt x="452" y="-124" on="1"/>
        <pt x="440" y="-203" on="1"/>
        <pt x="417" y="-211" on="0"/>
        <pt x="371" y="-221" on="0"/>
        <pt x="341" y="-221" on="1"/>
        <pt x="293" y="-221" on="0"/>
        <pt x="242" y="-179" on="0"/>
        <pt x="242" y="-140" on="1"/>
        <pt x="242" y="-109" on="0"/>
        <pt x="278" y="-46" on="0"/>
        <pt x="316" y="-7" on="1"/>
        <pt x="320" y="-3" on="1"/>
        <pt x="325" y="2" on="1"/>
      </contour>
      <contour>
        <pt x="361" y="421" on="1"/>
        <pt x="344" y="428" on="0"/>
        <pt x="325" y="428" on="1"/>
        <pt x="299" y="428" on="0"/>
        <pt x="252" y="394" on="0"/>
        <pt x="215" y="336" on="0"/>
        <pt x="193" y="256" on="0"/>
        <pt x="193" y="211" on="1"/>
        <pt x="193" y="172" on="0"/>
        <pt x="218" y="132" on="0"/>
        <pt x="239" y="132" on="1"/>
        <pt x="259" y="132" on="0"/>
        <pt x="301" y="162" on="0"/>
        <pt x="326" y="191" on="1"/>
      </contour>
    </TTGlyph>
    <TTGlyph name="aogonek.alt" xMin="15" yMin="-221" xMax="489" yMax="560">
      <contour>
        <pt x="325" y="364" on="1"/>
        <pt x="326" y="369" on="0"/>
        <pt x="326" y="378" on="0"/>
        <pt x="326" y="383" on="1"/>
        <pt x="326" y="409" on="0"/>
        <pt x="297" y="433" on="0"/>
        <pt x="263" y="433" on="1"/>
        <pt x="229" y="433" on="0"/>
        <pt x="149" y="410" on="0"/>
        <pt x="104" y="390" on="1"/>
        <pt x="104" y="516" on="1"/>
        <pt x="149" y="535" on="0"/>
        <pt x="251" y="560" on="0"/>
        <pt x="309" y="560" on="1"/>
        <pt x="401" y="560" on="0"/>
        <pt x="489" y="488" on="0"/>
        <pt x="489" y="413" on="1"/>
        <pt x="489" y="402" on="0"/>
        <pt x="487" y="380" on="0"/>
        <pt x="485" y="367" on="1"/>
        <pt x="446" y="115" on="1"/>
        <pt x="446" y="0" on="1"/>
        <pt x="392" y="0" on="1"/>
        <pt x="383" y="-11" on="1"/>
        <pt x="356" y="-46" on="0"/>
        <pt x="333" y="-85" on="0"/>
        <pt x="333" y="-100" on="1"/>
        <pt x="333" y="-130" on="0"/>
        <pt x="372" y="-130" on="1"/>
        <pt x="385" y="-130" on="0"/>
        <pt x="407" y="-126" on="0"/>
        <pt x="421" y="-124" on="1"/>
        <pt x="409" y="-203" on="1"/>
        <pt x="386" y="-211" on="0"/>
        <pt x="340" y="-221" on="0"/>
        <pt x="310" y="-221" on="1"/>
        <pt x="262" y="-221" on="0"/>
        <pt x="211" y="-179" on="0"/>
        <pt x="211" y="-140" on="1"/>
        <pt x="211" y="-109" on="0"/>
        <pt x="247" y="-46" on="0"/>
        <pt x="285" y="-7" on="1"/>
        <pt x="294" y="2" on="1"/>
        <pt x="289" y="69" on="1"/>
        <pt x="257" y="34" on="0"/>
        <pt x="184" y="-11" on="0"/>
        <pt x="138" y="-11" on="1"/>
        <pt x="81" y="-11" on="0"/>
        <pt x="15" y="62" on="0"/>
        <pt x="15" y="122" on="1"/>
        <pt x="15" y="218" on="0"/>
        <pt x="165" y="329" on="0"/>
        <pt x="321" y="340" on="1"/>
      </contour>
      <contour>
        <pt x="209" y="105" on="1"/>
        <pt x="229" y="105" on="0"/>
        <pt x="268" y="128" on="0"/>
        <pt x="291" y="150" on="1"/>
        <pt x="308" y="258" on="1"/>
        <pt x="270" y="253" on="0"/>
        <pt x="217" y="230" on="0"/>
        <pt x="185" y="200" on="0"/>
        <pt x="171" y="165" on="0"/>
        <pt x="171" y="148" on="1"/>
        <pt x="171" y="127" on="0"/>
        <pt x="192" y="105" on="0"/>
      </contour>
    </TTGlyph>
    <TTGlyph name="aring" xMin="31" yMin="-11" xMax="534" yMax="850">
      <component glyphName="a" x="0" y="0" flags="0x204"/>
      <component glyphName="ring" x="67" y="2" flags="0x4"/>
    </TTGlyph>
    <TTGlyph name="aring.alt" xMin="15" yMin="-11" xMax="489" yMax="850">
      <component glyphName="ring" x="29" y="2" flags="0x4"/>
      <component glyphName="a.alt" x="0" y="0" flags="0x4"/>
    </TTGlyph>
    <TTGlyph name="aringacute" xMin="31" yMin="-11" xMax="598" yMax="1052">
      <contour>
        <pt x="319" y="85" on="1"/>
        <pt x="285" y="42" on="0"/>
        <pt x="211" y="-11" on="0"/>
        <pt x="169" y="-11" on="1"/>
        <pt x="107" y="-11" on="0"/>
        <pt x="31" y="85" on="0"/>
        <pt x="31" y="176" on="1"/>
        <pt x="31" y="265" on="0"/>
        <pt x="79" y="406" on="0"/>
        <pt x="164" y="504" on="0"/>
        <pt x="280" y="556" on="0"/>
        <pt x="347" y="556" on="1"/>
        <pt x="394" y="556" on="0"/>
        <pt x="489" y="537" on="0"/>
        <pt x="534" y="519" on="1"/>
        <pt x="476" y="136" on="1"/>
        <pt x="476" y="0" on="1"/>
        <pt x="325" y="0" on="1"/>
      </contour>
      <contour>
        <pt x="361" y="421" on="1"/>
        <pt x="344" y="428" on="0"/>
        <pt x="325" y="428" on="1"/>
        <pt x="299" y="428" on="0"/>
        <pt x="252" y="394" on="0"/>
        <pt x="215" y="336" on="0"/>
        <pt x="193" y="256" on="0"/>
        <pt x="193" y="211" on="1"/>
        <pt x="193" y="172" on="0"/>
        <pt x="218" y="132" on="0"/>
        <pt x="239" y="132" on="1"/>
        <pt x="259" y="132" on="0"/>
        <pt x="301" y="162" on="0"/>
        <pt x="326" y="191" on="1"/>
      </contour>
      <contour>
        <pt x="430" y="884" on="1"/>
        <pt x="328" y="884" on="1"/>
        <pt x="413" y="1052" on="1"/>
        <pt x="598" y="1018" on="1"/>
      </contour>
      <contour>
        <pt x="371" y="667" on="1"/>
        <pt x="397" y="667" on="0"/>
        <pt x="425" y="701" on="0"/>
        <pt x="425" y="728" on="1"/>
        <pt x="425" y="755" on="0"/>
        <pt x="397" y="788" on="0"/>
        <pt x="371" y="788" on="1"/>
        <pt x="345" y="788" on="0"/>
        <pt x="316" y="755" on="0"/>
        <pt x="316" y="728" on="1"/>
        <pt x="316" y="701" on="0"/>
        <pt x="345" y="667" on="0"/>
      </contour>
      <contour>
        <pt x="371" y="605" on="1"/>
        <pt x="303" y="605" on="0"/>
        <pt x="226" y="672" on="0"/>
        <pt x="226" y="728" on="1"/>
        <pt x="226" y="782" on="0"/>
        <pt x="303" y="850" on="0"/>
        <pt x="371" y="850" on="1"/>
        <pt x="438" y="850" on="0"/>
        <pt x="515" y="782" on="0"/>
        <pt x="515" y="728" on="1"/>
        <pt x="515" y="672" on="0"/>
        <pt x="438" y="605" on="0"/>
      </contour>
    </TTGlyph>
    <TTGlyph name="aringacute.alt" xMin="15" yMin="-11" xMax="558" yMax="1051">
      <contour>
        <pt x="390" y="883" on="1"/>
        <pt x="288" y="883" on="1"/>
        <pt x="373" y="1051" on="1"/>
        <pt x="558" y="1017" on="1"/>
      </contour>
      <contour>
        <pt x="333" y="667" on="1"/>
        <pt x="359" y="667" on="0"/>
        <pt x="387" y="701" on="0"/>
        <pt x="387" y="728" on="1"/>
        <pt x="387" y="755" on="0"/>
        <pt x="359" y="788" on="0"/>
        <pt x="333" y="788" on="1"/>
        <pt x="307" y="788" on="0"/>
        <pt x="278" y="755" on="0"/>
        <pt x="278" y="728" on="1"/>
        <pt x="278" y="701" on="0"/>
        <pt x="307" y="667" on="0"/>
      </contour>
      <contour>
        <pt x="333" y="605" on="1"/>
        <pt x="265" y="605" on="0"/>
        <pt x="188" y="672" on="0"/>
        <pt x="188" y="728" on="1"/>
        <pt x="188" y="782" on="0"/>
        <pt x="265" y="850" on="0"/>
        <pt x="333" y="850" on="1"/>
        <pt x="400" y="850" on="0"/>
        <pt x="477" y="782" on="0"/>
        <pt x="477" y="728" on="1"/>
        <pt x="477" y="672" on="0"/>
        <pt x="400" y="605" on="0"/>
      </contour>
      <contour>
        <pt x="325" y="364" on="1"/>
        <pt x="326" y="369" on="0"/>
        <pt x="326" y="378" on="0"/>
        <pt x="326" y="383" on="1"/>
        <pt x="326" y="409" on="0"/>
        <pt x="297" y="433" on="0"/>
        <pt x="263" y="433" on="1"/>
        <pt x="229" y="433" on="0"/>
        <pt x="149" y="410" on="0"/>
        <pt x="104" y="390" on="1"/>
        <pt x="104" y="516" on="1"/>
        <pt x="149" y="535" on="0"/>
        <pt x="251" y="560" on="0"/>
        <pt x="309" y="560" on="1"/>
        <pt x="401" y="560" on="0"/>
        <pt x="489" y="488" on="0"/>
        <pt x="489" y="413" on="1"/>
        <pt x="489" y="402" on="0"/>
        <pt x="487" y="380" on="0"/>
        <pt x="485" y="367" on="1"/>
        <pt x="446" y="115" on="1"/>
        <pt x="446" y="0" on="1"/>
        <pt x="294" y="0" on="1"/>
        <pt x="289" y="69" on="1"/>
        <pt x="257" y="34" on="0"/>
        <pt x="184" y="-11" on="0"/>
        <pt x="138" y="-11" on="1"/>
        <pt x="81" y="-11" on="0"/>
        <pt x="15" y="62" on="0"/>
        <pt x="15" y="122" on="1"/>
        <pt x="15" y="218" on="0"/>
        <pt x="165" y="329" on="0"/>
        <pt x="321" y="340" on="1"/>
      </contour>
      <contour>
        <pt x="209" y="105" on="1"/>
        <pt x="229" y="105" on="0"/>
        <pt x="268" y="128" on="0"/>
        <pt x="291" y="150" on="1"/>
        <pt x="308" y="258" on="1"/>
        <pt x="270" y="253" on="0"/>
        <pt x="217" y="230" on="0"/>
        <pt x="185" y="200" on="0"/>
        <pt x="171" y="165" on="0"/>
        <pt x="171" y="148" on="1"/>
        <pt x="171" y="127" on="0"/>
        <pt x="192" y="105" on="0"/>
      </contour>
    </TTGlyph>
    <TTGlyph name="asciicircum" xMin="92" yMin="538" xMax="427" yMax="731">
      <contour>
        <pt x="324" y="538" on="1"/>
        <pt x="275" y="628" on="1"/>
        <pt x="197" y="538" on="1"/>
        <pt x="92" y="538" on="1"/>
        <pt x="228" y="731" on="1"/>
        <pt x="346" y="731" on="1"/>
        <pt x="427" y="538" on="1"/>
      </contour>
    </TTGlyph>
    <TTGlyph name="asciitilde" xMin="42" yMin="245" xMax="425" yMax="425">
      <contour>
        <pt x="425" y="410" on="1"/>
        <pt x="404" y="323" on="0"/>
        <pt x="346" y="249" on="0"/>
        <pt x="303" y="249" on="1"/>
        <pt x="283" y="249" on="0"/>
        <pt x="248" y="263" on="0"/>
        <pt x="227" y="276" on="1"/>
        <pt x="203" y="289" on="0"/>
        <pt x="177" y="301" on="0"/>
        <pt x="166" y="301" on="1"/>
        <pt x="154" y="301" on="0"/>
        <pt x="137" y="279" on="0"/>
        <pt x="126" y="245" on="1"/>
        <pt x="42" y="260" on="1"/>
        <pt x="62" y="347" on="0"/>
        <pt x="119" y="421" on="0"/>
        <pt x="164" y="421" on="1"/>
        <pt x="184" y="421" on="0"/>
        <pt x="219" y="406" on="0"/>
        <pt x="240" y="394" on="1"/>
        <pt x="264" y="380" on="0"/>
        <pt x="290" y="368" on="0"/>
        <pt x="301" y="368" on="1"/>
        <pt x="312" y="368" on="0"/>
        <pt x="330" y="391" on="0"/>
        <pt x="341" y="425" on="1"/>
      </contour>
    </TTGlyph>
    <TTGlyph name="asterisk" xMin="83" yMin="411" xMax="471" yMax="779">
      <contour>
        <pt x="361" y="554" on="1"/>
        <pt x="409" y="431" on="1"/>
        <pt x="378" y="411" on="1"/>
        <pt x="277" y="494" on="1"/>
        <pt x="176" y="411" on="1"/>
        <pt x="145" y="431" on="1"/>
        <pt x="194" y="554" on="1"/>
        <pt x="83" y="625" on="1"/>
        <pt x="95" y="661" on="1"/>
        <pt x="226" y="653" on="1"/>
        <pt x="257" y="779" on="1"/>
        <pt x="297" y="779" on="1"/>
        <pt x="328" y="653" on="1"/>
        <pt x="460" y="661" on="1"/>
        <pt x="471" y="625" on="1"/>
      </contour>
    </TTGlyph>
    <TTGlyph name="at" xMin="42" yMin="-155" xMax="821" yMax="713">
      <contour>
        <pt x="611" y="50" on="1"/>
        <pt x="557" y="50" on="0"/>
        <pt x="486" y="98" on="0"/>
        <pt x="474" y="142" on="1"/>
        <pt x="436" y="94" on="0"/>
        <pt x="366" y="50" on="0"/>
        <pt x="328" y="50" on="1"/>
        <pt x="277" y="50" on="0"/>
        <pt x="216" y="127" on="0"/>
        <pt x="216" y="199" on="1"/>
        <pt x="216" y="268" on="0"/>
        <pt x="257" y="385" on="0"/>
        <pt x="330" y="470" on="0"/>
        <pt x="429" y="518" on="0"/>
        <pt x="487" y="518" on="1"/>
        <pt x="530" y="518" on="0"/>
        <pt x="612" y="499" on="0"/>
        <pt x="645" y="485" on="1"/>
        <pt x="601" y="212" on="1"/>
        <pt x="599" y="202" on="0"/>
        <pt x="597" y="177" on="0"/>
        <pt x="597" y="166" on="1"/>
        <pt x="597" y="142" on="0"/>
        <pt x="621" y="114" on="0"/>
        <pt x="649" y="114" on="1"/>
        <pt x="674" y="114" on="0"/>
        <pt x="719" y="149" on="0"/>
        <pt x="753" y="214" on="0"/>
        <pt x="773" y="306" on="0"/>
        <pt x="773" y="363" on="1"/>
        <pt x="773" y="442" on="0"/>
        <pt x="731" y="559" on="0"/>
        <pt x="656" y="635" on="0"/>
        <pt x="551" y="672" on="0"/>
        <pt x="487" y="672" on="1"/>
        <pt x="406" y="672" on="0"/>
        <pt x="262" y="599" on="0"/>
        <pt x="153" y="472" on="0"/>
        <pt x="90" y="302" on="0"/>
        <pt x="90" y="205" on="1"/>
        <pt x="90" y="123" on="0"/>
        <pt x="133" y="3" on="0"/>
        <pt x="212" y="-76" on="0"/>
        <pt x="322" y="-115" on="0"/>
        <pt x="388" y="-115" on="1"/>
        <pt x="451" y="-115" on="0"/>
        <pt x="560" y="-85" on="0"/>
        <pt x="609" y="-58" on="1"/>
        <pt x="616" y="-99" on="1"/>
        <pt x="571" y="-123" on="0"/>
        <pt x="454" y="-155" on="0"/>
        <pt x="386" y="-155" on="1"/>
        <pt x="306" y="-155" on="0"/>
        <pt x="178" y="-108" on="0"/>
        <pt x="89" y="-16" on="0"/>
        <pt x="42" y="117" on="0"/>
        <pt x="42" y="204" on="1"/>
        <pt x="42" y="307" on="0"/>
        <pt x="113" y="492" on="0"/>
        <pt x="234" y="631" on="0"/>
        <pt x="398" y="713" on="0"/>
        <pt x="491" y="713" on="1"/>
        <pt x="564" y="713" on="0"/>
        <pt x="686" y="668" on="0"/>
        <pt x="773" y="579" on="0"/>
        <pt x="821" y="449" on="0"/>
        <pt x="821" y="365" on="1"/>
        <pt x="821" y="293" on="0"/>
        <pt x="791" y="177" on="0"/>
        <pt x="737" y="94" on="0"/>
        <pt x="659" y="50" on="0"/>
      </contour>
      <contour>
        <pt x="385" y="164" on="1"/>
        <pt x="402" y="164" on="0"/>
        <pt x="444" y="197" on="0"/>
        <pt x="473" y="230" on="1"/>
        <pt x="501" y="407" on="1"/>
        <pt x="494" y="409" on="0"/>
        <pt x="481" y="412" on="0"/>
        <pt x="471" y="412" on="1"/>
        <pt x="447" y="412" on="0"/>
        <pt x="402" y="382" on="0"/>
        <pt x="368" y="331" on="0"/>
        <pt x="348" y="263" on="0"/>
        <pt x="348" y="226" on="1"/>
        <pt x="348" y="193" on="0"/>
        <pt x="368" y="164" on="0"/>
      </contour>
    </TTGlyph>
    <TTGlyph name="atilde" xMin="31" yMin="-11" xMax="551" yMax="779">
      <component glyphName="a" x="0" y="0" flags="0x204"/>
      <component glyphName="tilde" x="77" y="2" flags="0x4"/>
    </TTGlyph>
    <TTGlyph name="atilde.alt" xMin="15" yMin="-11" xMax="512" yMax="779">
      <component glyphName="a.alt" x="0" y="0" flags="0x204"/>
      <component glyphName="tilde" x="38" y="2" flags="0x4"/>
    </TTGlyph>
    <TTGlyph name="b" xMin="22" yMin="-7" xMax="525" yMax="809">
      <contour>
        <pt x="134" y="784" on="1"/>
        <pt x="298" y="809" on="1"/>
        <pt x="248" y="480" on="1"/>
        <pt x="279" y="515" on="0"/>
        <pt x="344" y="561" on="0"/>
        <pt x="386" y="561" on="1"/>
        <pt x="449" y="561" on="0"/>
        <pt x="525" y="459" on="0"/>
        <pt x="525" y="366" on="1"/>
        <pt x="525" y="277" on="0"/>
        <pt x="478" y="139" on="0"/>
        <pt x="395" y="43" on="0"/>
        <pt x="282" y="-7" on="0"/>
        <pt x="216" y="-7" on="1"/>
        <pt x="168" y="-7" on="0"/>
        <pt x="67" y="14" on="0"/>
        <pt x="22" y="31" on="1"/>
      </contour>
      <contour>
        <pt x="194" y="130" on="1"/>
        <pt x="216" y="122" on="0"/>
        <pt x="236" y="122" on="1"/>
        <pt x="261" y="122" on="0"/>
        <pt x="307" y="153" on="0"/>
        <pt x="343" y="210" on="0"/>
        <pt x="364" y="288" on="0"/>
        <pt x="364" y="336" on="1"/>
        <pt x="364" y="376" on="0"/>
        <pt x="339" y="418" on="0"/>
        <pt x="316" y="418" on="1"/>
        <pt x="295" y="418" on="0"/>
        <pt x="255" y="390" on="0"/>
        <pt x="229" y="362" on="1"/>
      </contour>
    </TTGlyph>
    <TTGlyph name="backslash" xMin="70" yMin="-141" xMax="471" yMax="783">
      <contour>
        <pt x="346" y="-141" on="1"/>
        <pt x="70" y="754" on="1"/>
        <pt x="196" y="783" on="1"/>
        <pt x="471" y="-112" on="1"/>
      </contour>
    </TTGlyph>
    <TTGlyph name="baht" xMin="-67" yMin="-128" xMax="574" yMax="785">
      <contour>
        <pt x="325" y="720" on="1"/>
        <pt x="360" y="720" on="0"/>
        <pt x="419" y="710" on="0"/>
        <pt x="443" y="701" on="1"/>
        <pt x="498" y="785" on="1"/>
        <pt x="574" y="765" on="1"/>
        <pt x="507" y="662" on="1"/>
        <pt x="552" y="618" on="0"/>
        <pt x="552" y="551" on="1"/>
        <pt x="552" y="517" on="0"/>
        <pt x="531" y="459" on="0"/>
        <pt x="494" y="414" on="0"/>
        <pt x="444" y="382" on="0"/>
        <pt x="415" y="373" on="1"/>
        <pt x="462" y="353" on="0"/>
        <pt x="518" y="279" on="0"/>
        <pt x="518" y="225" on="1"/>
        <pt x="518" y="120" on="0"/>
        <pt x="367" y="0" on="0"/>
        <pt x="229" y="0" on="1"/>
        <pt x="87" y="0" on="1"/>
        <pt x="7" y="-128" on="1"/>
        <pt x="-67" y="-110" on="1"/>
        <pt x="36" y="59" on="1"/>
        <pt x="135" y="720" on="1"/>
      </contour>
      <contour>
        <pt x="363" y="231" on="1"/>
        <pt x="363" y="273" on="0"/>
        <pt x="314" y="319" on="0"/>
        <pt x="266" y="319" on="1"/>
        <pt x="227" y="319" on="1"/>
        <pt x="197" y="121" on="1"/>
        <pt x="241" y="121" on="1"/>
        <pt x="297" y="121" on="0"/>
        <pt x="363" y="179" on="0"/>
      </contour>
      <contour>
        <pt x="398" y="520" on="1"/>
        <pt x="398" y="555" on="0"/>
        <pt x="356" y="595" on="0"/>
        <pt x="315" y="595" on="1"/>
        <pt x="268" y="595" on="1"/>
        <pt x="242" y="419" on="1"/>
        <pt x="289" y="419" on="1"/>
        <pt x="337" y="419" on="0"/>
        <pt x="398" y="475" on="0"/>
      </contour>
    </TTGlyph>
    <TTGlyph name="bar" xMin="20" yMin="-211" xMax="305" yMax="825">
      <contour>
        <pt x="20" y="-211" on="1"/>
        <pt x="172" y="806" on="1"/>
        <pt x="305" y="825" on="1"/>
        <pt x="153" y="-192" on="1"/>
      </contour>
    </TTGlyph>
    <TTGlyph name="bar.tab" xMin="6" yMin="-142" xMax="293" yMax="908">
      <contour>
        <pt x="6" y="-142" on="1"/>
        <pt x="160" y="888" on="1"/>
        <pt x="293" y="908" on="1"/>
        <pt x="138" y="-123" on="1"/>
      </contour>
    </TTGlyph>
    <TTGlyph name="braceleft" xMin="47" yMin="-113" xMax="538" yMax="776">
      <contour>
        <pt x="523" y="673" on="1"/>
        <pt x="444" y="673" on="1"/>
        <pt x="399" y="673" on="0"/>
        <pt x="362" y="625" on="0"/>
        <pt x="361" y="576" on="1"/>
        <pt x="361" y="513" on="1"/>
        <pt x="360" y="440" on="0"/>
        <pt x="289" y="348" on="0"/>
        <pt x="214" y="334" on="1"/>
        <pt x="214" y="332" on="1"/>
        <pt x="269" y="318" on="0"/>
        <pt x="316" y="266" on="0"/>
        <pt x="316" y="221" on="1"/>
        <pt x="316" y="199" on="0"/>
        <pt x="304" y="150" on="0"/>
        <pt x="291" y="102" on="0"/>
        <pt x="279" y="57" on="0"/>
        <pt x="279" y="40" on="1"/>
        <pt x="278" y="17" on="0"/>
        <pt x="310" y="-9" on="0"/>
        <pt x="347" y="-9" on="1"/>
        <pt x="411" y="-9" on="1"/>
        <pt x="411" y="-113" on="1"/>
        <pt x="273" y="-113" on="1"/>
        <pt x="195" y="-113" on="0"/>
        <pt x="119" y="-50" on="0"/>
        <pt x="119" y="7" on="1"/>
        <pt x="119" y="32" on="0"/>
        <pt x="132" y="84" on="0"/>
        <pt x="147" y="137" on="0"/>
        <pt x="160" y="186" on="0"/>
        <pt x="160" y="208" on="1"/>
        <pt x="161" y="244" on="0"/>
        <pt x="118" y="280" on="0"/>
        <pt x="67" y="280" on="1"/>
        <pt x="47" y="280" on="1"/>
        <pt x="47" y="385" on="1"/>
        <pt x="82" y="385" on="1"/>
        <pt x="151" y="385" on="0"/>
        <pt x="207" y="451" on="0"/>
        <pt x="207" y="525" on="1"/>
        <pt x="207" y="588" on="1"/>
        <pt x="208" y="679" on="0"/>
        <pt x="300" y="776" on="0"/>
        <pt x="399" y="776" on="1"/>
        <pt x="538" y="776" on="1"/>
      </contour>
    </TTGlyph>
    <TTGlyph name="braceleft.flat" xMin="39" yMin="-113" xMax="538" yMax="776">
      <contour>
        <pt x="523" y="673" on="1"/>
        <pt x="444" y="673" on="1"/>
        <pt x="399" y="673" on="0"/>
        <pt x="362" y="625" on="0"/>
        <pt x="361" y="576" on="1"/>
        <pt x="361" y="513" on="1"/>
        <pt x="360" y="440" on="0"/>
        <pt x="289" y="348" on="0"/>
        <pt x="214" y="334" on="1"/>
        <pt x="214" y="332" on="1"/>
        <pt x="269" y="318" on="0"/>
        <pt x="316" y="266" on="0"/>
        <pt x="316" y="221" on="1"/>
        <pt x="316" y="199" on="0"/>
        <pt x="304" y="150" on="0"/>
        <pt x="291" y="102" on="0"/>
        <pt x="279" y="57" on="0"/>
        <pt x="279" y="40" on="1"/>
        <pt x="278" y="17" on="0"/>
        <pt x="310" y="-9" on="0"/>
        <pt x="347" y="-9" on="1"/>
        <pt x="419" y="-9" on="1"/>
        <pt x="404" y="-113" on="1"/>
        <pt x="273" y="-113" on="1"/>
        <pt x="195" y="-113" on="0"/>
        <pt x="119" y="-50" on="0"/>
        <pt x="119" y="7" on="1"/>
        <pt x="119" y="32" on="0"/>
        <pt x="132" y="84" on="0"/>
        <pt x="147" y="137" on="0"/>
        <pt x="160" y="186" on="0"/>
        <pt x="160" y="208" on="1"/>
        <pt x="161" y="244" on="0"/>
        <pt x="118" y="280" on="0"/>
        <pt x="67" y="280" on="1"/>
        <pt x="39" y="280" on="1"/>
        <pt x="55" y="385" on="1"/>
        <pt x="82" y="385" on="1"/>
        <pt x="151" y="385" on="0"/>
        <pt x="207" y="451" on="0"/>
        <pt x="207" y="525" on="1"/>
        <pt x="207" y="588" on="1"/>
        <pt x="208" y="679" on="0"/>
        <pt x="300" y="776" on="0"/>
        <pt x="399" y="776" on="1"/>
        <pt x="538" y="776" on="1"/>
      </contour>
    </TTGlyph>
    <TTGlyph name="braceright" xMin="-24" yMin="-113" xMax="469" yMax="776">
      <contour>
        <pt x="-8" y="-9" on="1"/>
        <pt x="72" y="-9" on="1"/>
        <pt x="117" y="-9" on="0"/>
        <pt x="154" y="40" on="0"/>
        <pt x="155" y="89" on="1"/>
        <pt x="155" y="152" on="1"/>
        <pt x="156" y="225" on="0"/>
        <pt x="227" y="316" on="0"/>
        <pt x="302" y="331" on="1"/>
        <pt x="302" y="333" on="1"/>
        <pt x="247" y="347" on="0"/>
        <pt x="200" y="398" on="0"/>
        <pt x="200" y="443" on="1"/>
        <pt x="200" y="465" on="0"/>
        <pt x="212" y="514" on="0"/>
        <pt x="225" y="562" on="0"/>
        <pt x="237" y="606" on="0"/>
        <pt x="237" y="623" on="1"/>
        <pt x="238" y="648" on="0"/>
        <pt x="206" y="673" on="0"/>
        <pt x="169" y="673" on="1"/>
        <pt x="105" y="673" on="1"/>
        <pt x="105" y="776" on="1"/>
        <pt x="243" y="776" on="1"/>
        <pt x="321" y="776" on="0"/>
        <pt x="397" y="715" on="0"/>
        <pt x="397" y="658" on="1"/>
        <pt x="397" y="633" on="0"/>
        <pt x="384" y="581" on="0"/>
        <pt x="369" y="528" on="0"/>
        <pt x="356" y="478" on="0"/>
        <pt x="356" y="456" on="1"/>
        <pt x="355" y="421" on="0"/>
        <pt x="398" y="384" on="0"/>
        <pt x="449" y="384" on="1"/>
        <pt x="469" y="384" on="1"/>
        <pt x="469" y="278" on="1"/>
        <pt x="434" y="278" on="1"/>
        <pt x="365" y="278" on="0"/>
        <pt x="309" y="212" on="0"/>
        <pt x="309" y="140" on="1"/>
        <pt x="309" y="76" on="1"/>
        <pt x="308" y="-15" on="0"/>
        <pt x="216" y="-113" on="0"/>
        <pt x="117" y="-113" on="1"/>
        <pt x="-24" y="-113" on="1"/>
      </contour>
    </TTGlyph>
    <TTGlyph name="braceright.flat" xMin="-23" yMin="-113" xMax="476" yMax="776">
      <contour>
        <pt x="-8" y="-9" on="1"/>
        <pt x="72" y="-9" on="1"/>
        <pt x="117" y="-9" on="0"/>
        <pt x="154" y="40" on="0"/>
        <pt x="155" y="89" on="1"/>
        <pt x="155" y="152" on="1"/>
        <pt x="156" y="225" on="0"/>
        <pt x="227" y="316" on="0"/>
        <pt x="302" y="331" on="1"/>
        <pt x="302" y="333" on="1"/>
        <pt x="247" y="347" on="0"/>
        <pt x="200" y="398" on="0"/>
        <pt x="200" y="443" on="1"/>
        <pt x="200" y="465" on="0"/>
        <pt x="212" y="514" on="0"/>
        <pt x="225" y="562" on="0"/>
        <pt x="237" y="606" on="0"/>
        <pt x="237" y="623" on="1"/>
        <pt x="238" y="648" on="0"/>
        <pt x="206" y="673" on="0"/>
        <pt x="169" y="673" on="1"/>
        <pt x="97" y="673" on="1"/>
        <pt x="112" y="776" on="1"/>
        <pt x="243" y="776" on="1"/>
        <pt x="321" y="776" on="0"/>
        <pt x="397" y="715" on="0"/>
        <pt x="397" y="658" on="1"/>
        <pt x="397" y="633" on="0"/>
        <pt x="384" y="581" on="0"/>
        <pt x="369" y="528" on="0"/>
        <pt x="356" y="478" on="0"/>
        <pt x="356" y="456" on="1"/>
        <pt x="355" y="421" on="0"/>
        <pt x="398" y="384" on="0"/>
        <pt x="449" y="384" on="1"/>
        <pt x="476" y="384" on="1"/>
        <pt x="461" y="278" on="1"/>
        <pt x="434" y="278" on="1"/>
        <pt x="365" y="278" on="0"/>
        <pt x="309" y="212" on="0"/>
        <pt x="309" y="140" on="1"/>
        <pt x="309" y="76" on="1"/>
        <pt x="308" y="-15" on="0"/>
        <pt x="216" y="-113" on="0"/>
        <pt x="117" y="-113" on="1"/>
        <pt x="-23" y="-113" on="1"/>
      </contour>
    </TTGlyph>
    <TTGlyph name="bracketleft" xMin="19" yMin="-113" xMax="463" yMax="776">
      <contour>
        <pt x="448" y="673" on="1"/>
        <pt x="290" y="673" on="1"/>
        <pt x="188" y="-8" on="1"/>
        <pt x="336" y="-8" on="1"/>
        <pt x="336" y="-113" on="1"/>
        <pt x="19" y="-113" on="1"/>
        <pt x="153" y="776" on="1"/>
        <pt x="463" y="776" on="1"/>
      </contour>
    </TTGlyph>
    <TTGlyph name="bracketleft.flat" xMin="19" yMin="-113" xMax="463" yMax="776">
      <contour>
        <pt x="448" y="673" on="1"/>
        <pt x="290" y="673" on="1"/>
        <pt x="188" y="-8" on="1"/>
        <pt x="345" y="-8" on="1"/>
        <pt x="329" y="-113" on="1"/>
        <pt x="19" y="-113" on="1"/>
        <pt x="153" y="776" on="1"/>
        <pt x="463" y="776" on="1"/>
      </contour>
    </TTGlyph>
    <TTGlyph name="bracketright" xMin="-22" yMin="-113" xMax="422" yMax="776">
      <contour>
        <pt x="289" y="-113" on="1"/>
        <pt x="-22" y="-113" on="1"/>
        <pt x="-7" y="-8" on="1"/>
        <pt x="152" y="-8" on="1"/>
        <pt x="254" y="673" on="1"/>
        <pt x="106" y="673" on="1"/>
        <pt x="105" y="776" on="1"/>
        <pt x="422" y="776" on="1"/>
      </contour>
    </TTGlyph>
    <TTGlyph name="bracketright.flat" xMin="-22" yMin="-113" xMax="422" yMax="776">
      <contour>
        <pt x="-7" y="-8" on="1"/>
        <pt x="152" y="-8" on="1"/>
        <pt x="254" y="673" on="1"/>
        <pt x="98" y="673" on="1"/>
        <pt x="112" y="776" on="1"/>
        <pt x="422" y="776" on="1"/>
        <pt x="289" y="-113" on="1"/>
        <pt x="-22" y="-113" on="1"/>
      </contour>
    </TTGlyph>
    <TTGlyph name="breve" xMin="141" yMin="604" xMax="459" yMax="770">
      <contour>
        <pt x="459" y="755" on="1"/>
        <pt x="421" y="604" on="0"/>
        <pt x="282" y="604" on="1"/>
        <pt x="210" y="604" on="0"/>
        <pt x="141" y="682" on="0"/>
        <pt x="142" y="755" on="1"/>
        <pt x="230" y="770" on="1"/>
        <pt x="233" y="737" on="0"/>
        <pt x="264" y="707" on="0"/>
        <pt x="292" y="707" on="1"/>
        <pt x="320" y="707" on="0"/>
        <pt x="359" y="737" on="0"/>
        <pt x="373" y="770" on="1"/>
      </contour>
    </TTGlyph>
    <TTGlyph name="breve.cap" xMin="132" yMin="566" xMax="431" yMax="722">
      <contour>
        <pt x="431" y="708" on="1"/>
        <pt x="395" y="566" on="0"/>
        <pt x="265" y="566" on="1"/>
        <pt x="197" y="566" on="0"/>
        <pt x="132" y="639" on="0"/>
        <pt x="133" y="708" on="1"/>
        <pt x="216" y="722" on="1"/>
        <pt x="222" y="663" on="0"/>
        <pt x="274" y="663" on="1"/>
        <pt x="300" y="663" on="0"/>
        <pt x="336" y="692" on="0"/>
        <pt x="350" y="722" on="1"/>
      </contour>
    </TTGlyph>
    <TTGlyph name="bullet" xMin="91" yMin="188" xMax="407" yMax="536">
      <contour>
        <pt x="384" y="210" on="1"/>
        <pt x="250" y="188" on="1"/>
        <pt x="115" y="210" on="1"/>
        <pt x="91" y="362" on="1"/>
        <pt x="115" y="514" on="1"/>
        <pt x="250" y="536" on="1"/>
        <pt x="384" y="514" on="1"/>
        <pt x="407" y="362" on="1"/>
      </contour>
    </TTGlyph>
    <TTGlyph name="c" xMin="34" yMin="-10" xMax="459" yMax="560">
      <contour>
        <pt x="419" y="388" on="1"/>
        <pt x="398" y="402" on="0"/>
        <pt x="355" y="420" on="0"/>
        <pt x="326" y="420" on="1"/>
        <pt x="298" y="420" on="0"/>
        <pt x="250" y="391" on="0"/>
        <pt x="215" y="342" on="0"/>
        <pt x="195" y="277" on="0"/>
        <pt x="195" y="240" on="1"/>
        <pt x="195" y="181" on="0"/>
        <pt x="248" y="129" on="0"/>
        <pt x="290" y="128" on="1"/>
        <pt x="316" y="128" on="0"/>
        <pt x="363" y="144" on="0"/>
        <pt x="389" y="158" on="1"/>
        <pt x="389" y="24" on="1"/>
        <pt x="363" y="10" on="0"/>
        <pt x="296" y="-10" on="0"/>
        <pt x="253" y="-10" on="1"/>
        <pt x="152" y="-10" on="0"/>
        <pt x="34" y="114" on="0"/>
        <pt x="34" y="226" on="1"/>
        <pt x="34" y="297" on="0"/>
        <pt x="76" y="419" on="0"/>
        <pt x="152" y="509" on="0"/>
        <pt x="257" y="560" on="0"/>
        <pt x="320" y="560" on="1"/>
        <pt x="365" y="560" on="0"/>
        <pt x="433" y="540" on="0"/>
        <pt x="459" y="524" on="1"/>
      </contour>
    </TTGlyph>
    <TTGlyph name="cacute" xMin="34" yMin="-10" xMax="531" yMax="776">
      <component glyphName="acute" x="100" y="2" flags="0x4"/>
      <component glyphName="c" x="0" y="0" flags="0x4"/>
    </TTGlyph>
    <TTGlyph name="caron" xMin="128" yMin="606" xMax="474" yMax="770">
      <contour>
        <pt x="231" y="770" on="1"/>
        <pt x="290" y="703" on="1"/>
        <pt x="370" y="770" on="1"/>
        <pt x="474" y="770" on="1"/>
        <pt x="346" y="606" on="1"/>
        <pt x="208" y="606" on="1"/>
        <pt x="128" y="770" on="1"/>
      </contour>
    </TTGlyph>
    <TTGlyph name="caron.alt" xMin="201" yMin="565" xMax="375" yMax="793">
      <contour>
        <pt x="369" y="793" on="1"/>
        <pt x="375" y="770" on="0"/>
        <pt x="375" y="754" on="1"/>
        <pt x="375" y="702" on="0"/>
        <pt x="329" y="610" on="0"/>
        <pt x="277" y="565" on="1"/>
        <pt x="201" y="582" on="1"/>
        <pt x="227" y="623" on="0"/>
        <pt x="247" y="688" on="0"/>
        <pt x="247" y="714" on="1"/>
        <pt x="247" y="741" on="0"/>
        <pt x="238" y="776" on="1"/>
      </contour>
    </TTGlyph>
    <TTGlyph name="caron.alt.cap" xMin="189" yMin="529" xMax="352" yMax="743">
      <contour>
        <pt x="346" y="743" on="1"/>
        <pt x="352" y="722" on="0"/>
        <pt x="352" y="707" on="1"/>
        <pt x="352" y="658" on="0"/>
        <pt x="309" y="572" on="0"/>
        <pt x="260" y="529" on="1"/>
        <pt x="189" y="544" on="1"/>
        <pt x="213" y="583" on="0"/>
        <pt x="231" y="644" on="0"/>
        <pt x="231" y="669" on="1"/>
        <pt x="231" y="694" on="0"/>
        <pt x="222" y="727" on="1"/>
      </contour>
    </TTGlyph>
    <TTGlyph name="caron.cap" xMin="119" yMin="568" xMax="445" yMax="722">
      <contour>
        <pt x="217" y="722" on="1"/>
        <pt x="272" y="660" on="1"/>
        <pt x="347" y="722" on="1"/>
        <pt x="445" y="722" on="1"/>
        <pt x="325" y="568" on="1"/>
        <pt x="195" y="568" on="1"/>
        <pt x="119" y="722" on="1"/>
      </contour>
    </TTGlyph>
    <TTGlyph name="ccaron" xMin="34" yMin="-10" xMax="517" yMax="772">
      <component glyphName="caron" x="43" y="2" flags="0x4"/>
      <component glyphName="c" x="0" y="0" flags="0x4"/>
    </TTGlyph>
    <TTGlyph name="ccedilla" xMin="34" yMin="-204" xMax="459" yMax="560">
      <component glyphName="c" x="0" y="0" flags="0x204"/>
      <component glyphName="cedilla" x="12" y="-2" flags="0x4"/>
    </TTGlyph>
    <TTGlyph name="cdotaccent" xMin="34" yMin="-10" xMax="459" yMax="753">
      <component glyphName="c" x="0" y="0" flags="0x204"/>
      <component glyphName="dotaccent" x="43" y="2" flags="0x4"/>
    </TTGlyph>
    <TTGlyph name="cedilla" xMin="35" yMin="-202" xMax="297" yMax="-49">
      <contour>
        <pt x="136" y="-202" on="1"/>
        <pt x="35" y="-202" on="1"/>
        <pt x="113" y="-49" on="1"/>
        <pt x="297" y="-84" on="1"/>
      </contour>
    </TTGlyph>
    <TTGlyph name="cedilla.cap" xMin="33" yMin="-189" xMax="280" yMax="-45">
      <contour>
        <pt x="128" y="-189" on="1"/>
        <pt x="33" y="-189" on="1"/>
        <pt x="105" y="-45" on="1"/>
        <pt x="280" y="-78" on="1"/>
      </contour>
    </TTGlyph>
    <TTGlyph name="cent" xMin="50" yMin="-12" xMax="484" yMax="728">
      <contour>
        <pt x="416" y="611" on="1"/>
        <pt x="457" y="600" on="0"/>
        <pt x="484" y="583" on="1"/>
        <pt x="444" y="461" on="1"/>
        <pt x="412" y="483" on="0"/>
        <pt x="375" y="492" on="1"/>
        <pt x="297" y="217" on="1"/>
        <pt x="307" y="217" on="1"/>
        <pt x="338" y="219" on="0"/>
        <pt x="390" y="235" on="0"/>
        <pt x="415" y="247" on="1"/>
        <pt x="415" y="127" on="1"/>
        <pt x="389" y="114" on="0"/>
        <pt x="325" y="96" on="0"/>
        <pt x="280" y="94" on="1"/>
        <pt x="269" y="94" on="1"/>
        <pt x="239" y="-12" on="1"/>
        <pt x="165" y="6" on="1"/>
        <pt x="193" y="104" on="1"/>
        <pt x="131" y="123" on="0"/>
        <pt x="50" y="227" on="0"/>
        <pt x="50" y="313" on="1"/>
        <pt x="50" y="377" on="0"/>
        <pt x="89" y="490" on="0"/>
        <pt x="161" y="574" on="0"/>
        <pt x="263" y="623" on="0"/>
        <pt x="326" y="623" on="1"/>
        <pt x="340" y="623" on="1"/>
        <pt x="370" y="728" on="1"/>
        <pt x="445" y="711" on="1"/>
      </contour>
      <contour>
        <pt x="197" y="322" on="1"/>
        <pt x="197" y="254" on="0"/>
        <pt x="236" y="231" on="1"/>
        <pt x="312" y="497" on="1"/>
        <pt x="308" y="497" on="0"/>
        <pt x="302" y="495" on="1"/>
        <pt x="278" y="490" on="0"/>
        <pt x="240" y="460" on="0"/>
        <pt x="212" y="414" on="0"/>
        <pt x="197" y="355" on="0"/>
      </contour>
    </TTGlyph>
    <TTGlyph name="cent.tab" xMin="76" yMin="-12" xMax="510" yMax="728">
      <contour>
        <pt x="440" y="612" on="1"/>
        <pt x="480" y="600" on="0"/>
        <pt x="510" y="582" on="1"/>
        <pt x="472" y="461" on="1"/>
        <pt x="456" y="472" on="0"/>
        <pt x="420" y="488" on="0"/>
        <pt x="399" y="493" on="1"/>
        <pt x="322" y="216" on="1"/>
        <pt x="333" y="216" on="1"/>
        <pt x="363" y="218" on="0"/>
        <pt x="415" y="236" on="0"/>
        <pt x="442" y="248" on="1"/>
        <pt x="443" y="127" on="1"/>
        <pt x="416" y="114" on="0"/>
        <pt x="350" y="97" on="0"/>
        <pt x="305" y="95" on="1"/>
        <pt x="294" y="95" on="1"/>
        <pt x="264" y="-12" on="1"/>
        <pt x="190" y="6" on="1"/>
        <pt x="218" y="105" on="1"/>
        <pt x="155" y="123" on="0"/>
        <pt x="76" y="225" on="0"/>
        <pt x="76" y="310" on="1"/>
        <pt x="76" y="376" on="0"/>
        <pt x="115" y="490" on="0"/>
        <pt x="187" y="574" on="0"/>
        <pt x="289" y="623" on="0"/>
        <pt x="351" y="623" on="1"/>
        <pt x="364" y="623" on="1"/>
        <pt x="393" y="728" on="1"/>
        <pt x="468" y="711" on="1"/>
      </contour>
      <contour>
        <pt x="216" y="322" on="1"/>
        <pt x="216" y="251" on="0"/>
        <pt x="260" y="228" on="1"/>
        <pt x="336" y="499" on="1"/>
        <pt x="334" y="499" on="0"/>
        <pt x="331" y="498" on="0"/>
        <pt x="329" y="498" on="1"/>
        <pt x="303" y="494" on="0"/>
        <pt x="262" y="464" on="0"/>
        <pt x="232" y="417" on="0"/>
        <pt x="216" y="356" on="0"/>
      </contour>
    </TTGlyph>
    <TTGlyph name="circumflex" xMin="106" yMin="606" xMax="452" yMax="771">
      <contour>
        <pt x="349" y="606" on="1"/>
        <pt x="290" y="673" on="1"/>
        <pt x="211" y="606" on="1"/>
        <pt x="106" y="606" on="1"/>
        <pt x="234" y="771" on="1"/>
        <pt x="371" y="771" on="1"/>
        <pt x="452" y="606" on="1"/>
      </contour>
    </TTGlyph>
    <TTGlyph name="circumflex.cap" xMin="99" yMin="568" xMax="424" yMax="723">
      <contour>
        <pt x="328" y="568" on="1"/>
        <pt x="272" y="630" on="1"/>
        <pt x="198" y="568" on="1"/>
        <pt x="99" y="568" on="1"/>
        <pt x="219" y="723" on="1"/>
        <pt x="349" y="723" on="1"/>
        <pt x="424" y="568" on="1"/>
      </contour>
    </TTGlyph>
    <TTGlyph name="colon" xMin="12" yMin="0" xMax="265" yMax="550">
      <contour>
        <pt x="237" y="361" on="1"/>
        <pt x="67" y="361" on="1"/>
        <pt x="95" y="550" on="1"/>
        <pt x="265" y="550" on="1"/>
      </contour>
      <contour>
        <pt x="183" y="0" on="1"/>
        <pt x="12" y="0" on="1"/>
        <pt x="41" y="190" on="1"/>
        <pt x="211" y="190" on="1"/>
      </contour>
    </TTGlyph>
    <TTGlyph name="colon.tab" xMin="10" yMin="0" xMax="257" yMax="550">
      <contour>
        <pt x="63" y="359" on="1"/>
        <pt x="92" y="550" on="1"/>
        <pt x="257" y="550" on="1"/>
        <pt x="229" y="359" on="1"/>
      </contour>
      <contour>
        <pt x="10" y="0" on="1"/>
        <pt x="38" y="191" on="1"/>
        <pt x="204" y="191" on="1"/>
        <pt x="176" y="0" on="1"/>
      </contour>
    </TTGlyph>
    <TTGlyph name="colonmonetary" xMin="45" yMin="-121" xMax="609" yMax="802">
      <contour>
        <pt x="455" y="713" on="1"/>
        <pt x="482" y="707" on="0"/>
        <pt x="508" y="696" on="1"/>
        <pt x="540" y="799" on="1"/>
        <pt x="609" y="781" on="1"/>
        <pt x="410" y="136" on="1"/>
        <pt x="427" y="141" on="0"/>
        <pt x="461" y="155" on="0"/>
        <pt x="478" y="165" on="1"/>
        <pt x="478" y="34" on="1"/>
        <pt x="455" y="23" on="0"/>
        <pt x="401" y="4" on="0"/>
        <pt x="368" y="-1" on="1"/>
        <pt x="331" y="-121" on="1"/>
        <pt x="261" y="-101" on="1"/>
        <pt x="292" y="-4" on="1"/>
        <pt x="277" y="-3" on="0"/>
        <pt x="250" y="1" on="0"/>
        <pt x="236" y="4" on="1"/>
        <pt x="199" y="-119" on="1"/>
        <pt x="129" y="-98" on="1"/>
        <pt x="169" y="30" on="1"/>
        <pt x="112" y="64" on="0"/>
        <pt x="45" y="192" on="0"/>
        <pt x="45" y="292" on="1"/>
        <pt x="45" y="381" on="0"/>
        <pt x="91" y="538" on="0"/>
        <pt x="178" y="655" on="0"/>
        <pt x="302" y="722" on="0"/>
        <pt x="380" y="722" on="1"/>
        <pt x="384" y="722" on="1"/>
        <pt x="408" y="802" on="1"/>
        <pt x="477" y="783" on="1"/>
      </contour>
      <contour>
        <pt x="196" y="292" on="1"/>
        <pt x="196" y="250" on="0"/>
        <pt x="210" y="193" on="0"/>
        <pt x="224" y="173" on="1"/>
        <pt x="352" y="592" on="1"/>
        <pt x="314" y="585" on="0"/>
        <pt x="256" y="530" on="0"/>
        <pt x="217" y="448" on="0"/>
        <pt x="196" y="346" on="0"/>
      </contour>
      <contour>
        <pt x="346" y="124" on="1"/>
        <pt x="482" y="564" on="1"/>
        <pt x="467" y="573" on="0"/>
        <pt x="432" y="587" on="0"/>
        <pt x="412" y="590" on="1"/>
        <pt x="271" y="135" on="1"/>
        <pt x="296" y="124" on="0"/>
        <pt x="333" y="124" on="1"/>
      </contour>
    </TTGlyph>
    <TTGlyph name="comma" xMin="-33" yMin="-149" xMax="232" yMax="190">
      <contour>
        <pt x="57" y="-149" on="1"/>
        <pt x="-33" y="-125" on="1"/>
        <pt x="51" y="190" on="1"/>
        <pt x="232" y="190" on="1"/>
      </contour>
    </TTGlyph>
    <TTGlyph name="comma.alt" xMin="-43" yMin="-150" xMax="208" yMax="190">
      <contour>
        <pt x="205" y="190" on="1"/>
        <pt x="208" y="170" on="0"/>
        <pt x="208" y="148" on="1"/>
        <pt x="207" y="68" on="0"/>
        <pt x="126" y="-74" on="0"/>
        <pt x="42" y="-150" on="1"/>
        <pt x="-43" y="-117" on="1"/>
        <pt x="5" y="-43" on="0"/>
        <pt x="42" y="84" on="0"/>
        <pt x="42" y="140" on="1"/>
        <pt x="42" y="153" on="0"/>
        <pt x="40" y="177" on="0"/>
        <pt x="39" y="190" on="1"/>
      </contour>
    </TTGlyph>
    <TTGlyph name="comma.tab" xMin="-36" yMin="-153" xMax="228" yMax="194">
      <contour>
        <pt x="57" y="-153" on="1"/>
        <pt x="-36" y="-133" on="1"/>
        <pt x="51" y="194" on="1"/>
        <pt x="228" y="194" on="1"/>
      </contour>
    </TTGlyph>
    <TTGlyph name="comma.tab_alt" xMin="-46" yMin="-153" xMax="203" yMax="194">
      <contour>
        <pt x="200" y="194" on="1"/>
        <pt x="203" y="173" on="0"/>
        <pt x="203" y="153" on="1"/>
        <pt x="203" y="72" on="0"/>
        <pt x="123" y="-72" on="0"/>
        <pt x="33" y="-153" on="1"/>
        <pt x="-46" y="-119" on="1"/>
        <pt x="4" y="-46" on="0"/>
        <pt x="42" y="79" on="0"/>
        <pt x="42" y="140" on="1"/>
        <pt x="42" y="154" on="0"/>
        <pt x="41" y="180" on="0"/>
        <pt x="39" y="194" on="1"/>
      </contour>
    </TTGlyph>
    <TTGlyph name="commaaccent" xMin="80" yMin="-273" xMax="291" yMax="-49">
      <contour>
        <pt x="262" y="-49" on="1"/>
        <pt x="291" y="-84" on="0"/>
        <pt x="291" y="-121" on="1"/>
        <pt x="291" y="-159" on="0"/>
        <pt x="237" y="-235" on="0"/>
        <pt x="177" y="-273" on="1"/>
        <pt x="80" y="-255" on="1"/>
        <pt x="115" y="-220" on="0"/>
        <pt x="145" y="-167" on="0"/>
        <pt x="145" y="-141" on="1"/>
        <pt x="145" y="-113" on="0"/>
        <pt x="120" y="-76" on="1"/>
      </contour>
    </TTGlyph>
    <TTGlyph name="commaaccent.cap" xMin="75" yMin="-256" xMax="274" yMax="-45">
      <contour>
        <pt x="247" y="-45" on="1"/>
        <pt x="260" y="-62" on="0"/>
        <pt x="274" y="-95" on="0"/>
        <pt x="274" y="-113" on="1"/>
        <pt x="274" y="-150" on="0"/>
        <pt x="223" y="-220" on="0"/>
        <pt x="167" y="-256" on="1"/>
        <pt x="75" y="-239" on="1"/>
        <pt x="108" y="-206" on="0"/>
        <pt x="136" y="-156" on="0"/>
        <pt x="136" y="-132" on="1"/>
        <pt x="136" y="-105" on="0"/>
        <pt x="112" y="-71" on="1"/>
      </contour>
    </TTGlyph>
    <TTGlyph name="commaaccent.rot" xMin="272" yMin="601" xMax="483" yMax="824">
      <contour>
        <pt x="301" y="601" on="1"/>
        <pt x="272" y="636" on="0"/>
        <pt x="272" y="673" on="1"/>
        <pt x="272" y="711" on="0"/>
        <pt x="326" y="786" on="0"/>
        <pt x="386" y="824" on="1"/>
        <pt x="483" y="807" on="1"/>
        <pt x="448" y="771" on="0"/>
        <pt x="418" y="719" on="0"/>
        <pt x="418" y="693" on="1"/>
        <pt x="418" y="678" on="0"/>
        <pt x="429" y="647" on="0"/>
        <pt x="443" y="628" on="1"/>
      </contour>
    </TTGlyph>
    <TTGlyph name="copyright" xMin="75" yMin="-19" xMax="729" yMax="743">
      <contour>
        <pt x="729" y="363" on="1"/>
        <pt x="729" y="278" on="0"/>
        <pt x="681" y="138" on="0"/>
        <pt x="595" y="37" on="0"/>
        <pt x="474" y="-19" on="0"/>
        <pt x="401" y="-19" on="1"/>
        <pt x="327" y="-19" on="0"/>
        <pt x="207" y="36" on="0"/>
        <pt x="122" y="136" on="0"/>
        <pt x="75" y="276" on="0"/>
        <pt x="75" y="361" on="1"/>
        <pt x="75" y="446" on="0"/>
        <pt x="122" y="587" on="0"/>
        <pt x="208" y="688" on="0"/>
        <pt x="329" y="743" on="0"/>
        <pt x="402" y="743" on="1"/>
        <pt x="475" y="743" on="0"/>
        <pt x="596" y="688" on="0"/>
        <pt x="682" y="588" on="0"/>
        <pt x="729" y="448" on="0"/>
      </contour>
      <contour>
        <pt x="684" y="362" on="1"/>
        <pt x="684" y="444" on="0"/>
        <pt x="640" y="572" on="0"/>
        <pt x="564" y="660" on="0"/>
        <pt x="461" y="706" on="0"/>
        <pt x="402" y="706" on="1"/>
        <pt x="342" y="706" on="0"/>
        <pt x="239" y="660" on="0"/>
        <pt x="163" y="572" on="0"/>
        <pt x="120" y="444" on="0"/>
        <pt x="120" y="362" on="1"/>
        <pt x="120" y="281" on="0"/>
        <pt x="164" y="153" on="0"/>
        <pt x="240" y="66" on="0"/>
        <pt x="343" y="20" on="0"/>
        <pt x="402" y="20" on="1"/>
        <pt x="461" y="20" on="0"/>
        <pt x="564" y="66" on="0"/>
        <pt x="640" y="153" on="0"/>
        <pt x="684" y="281" on="0"/>
      </contour>
      <contour>
        <pt x="538" y="178" on="1"/>
        <pt x="511" y="162" on="0"/>
        <pt x="454" y="147" on="0"/>
        <pt x="419" y="147" on="1"/>
        <pt x="329" y="147" on="0"/>
        <pt x="230" y="262" on="0"/>
        <pt x="230" y="365" on="1"/>
        <pt x="230" y="468" on="0"/>
        <pt x="332" y="585" on="0"/>
        <pt x="420" y="585" on="1"/>
        <pt x="455" y="585" on="0"/>
        <pt x="507" y="571" on="0"/>
        <pt x="532" y="559" on="1"/>
        <pt x="516" y="458" on="1"/>
        <pt x="493" y="475" on="0"/>
        <pt x="455" y="487" on="0"/>
        <pt x="433" y="487" on="1"/>
        <pt x="393" y="487" on="0"/>
        <pt x="348" y="423" on="0"/>
        <pt x="348" y="366" on="1"/>
        <pt x="348" y="307" on="0"/>
        <pt x="395" y="244" on="0"/>
        <pt x="437" y="244" on="1"/>
        <pt x="457" y="244" on="0"/>
        <pt x="497" y="257" on="0"/>
        <pt x="524" y="273" on="1"/>
      </contour>
    </TTGlyph>
    <TTGlyph name="d" xMin="31" yMin="-11" xMax="579" yMax="809">
      <contour>
        <pt x="479" y="136" on="1"/>
        <pt x="479" y="0" on="1"/>
        <pt x="327" y="0" on="1"/>
        <pt x="321" y="83" on="1"/>
        <pt x="285" y="40" on="0"/>
        <pt x="214" y="-11" on="0"/>
        <pt x="172" y="-11" on="1"/>
        <pt x="108" y="-11" on="0"/>
        <pt x="31" y="91" on="0"/>
        <pt x="31" y="184" on="1"/>
        <pt x="31" y="272" on="0"/>
        <pt x="78" y="411" on="0"/>
        <pt x="158" y="506" on="0"/>
        <pt x="265" y="556" on="0"/>
        <pt x="325" y="556" on="1"/>
        <pt x="340" y="556" on="0"/>
        <pt x="368" y="552" on="0"/>
        <pt x="382" y="549" on="1"/>
        <pt x="416" y="783" on="1"/>
        <pt x="579" y="809" on="1"/>
      </contour>
      <contour>
        <pt x="362" y="420" on="1"/>
        <pt x="345" y="428" on="0"/>
        <pt x="322" y="428" on="1"/>
        <pt x="296" y="428" on="0"/>
        <pt x="250" y="397" on="0"/>
        <pt x="214" y="341" on="0"/>
        <pt x="193" y="262" on="0"/>
        <pt x="193" y="214" on="1"/>
        <pt x="193" y="132" on="0"/>
        <pt x="242" y="132" on="1"/>
        <pt x="262" y="132" on="0"/>
        <pt x="301" y="160" on="0"/>
        <pt x="327" y="188" on="1"/>
      </contour>
    </TTGlyph>
    <TTGlyph name="dagger" xMin="74" yMin="-110" xMax="495" yMax="725">
      <contour>
        <pt x="305" y="514" on="1"/>
        <pt x="275" y="514" on="1"/>
        <pt x="253" y="648" on="1"/>
        <pt x="264" y="725" on="1"/>
        <pt x="380" y="725" on="1"/>
        <pt x="368" y="648" on="1"/>
      </contour>
      <contour>
        <pt x="438" y="419" on="1"/>
        <pt x="320" y="460" on="1"/>
        <pt x="325" y="491" on="1"/>
        <pt x="454" y="533" on="1"/>
        <pt x="495" y="533" on="1"/>
        <pt x="477" y="419" on="1"/>
      </contour>
      <contour>
        <pt x="115" y="419" on="1"/>
        <pt x="74" y="419" on="1"/>
        <pt x="91" y="533" on="1"/>
        <pt x="131" y="533" on="1"/>
        <pt x="249" y="491" on="1"/>
        <pt x="244" y="460" on="1"/>
      </contour>
      <contour>
        <pt x="212" y="-110" on="1"/>
        <pt x="183" y="-110" on="1"/>
        <pt x="163" y="22" on="1"/>
        <pt x="206" y="310" on="1"/>
        <pt x="264" y="438" on="1"/>
        <pt x="294" y="438" on="1"/>
        <pt x="313" y="310" on="1"/>
        <pt x="271" y="22" on="1"/>
      </contour>
    </TTGlyph>
    <TTGlyph name="daggerdbl" xMin="19" yMin="-180" xMax="499" yMax="725">
      <contour>
        <pt x="310" y="514" on="1"/>
        <pt x="280" y="514" on="1"/>
        <pt x="256" y="648" on="1"/>
        <pt x="269" y="725" on="1"/>
        <pt x="384" y="725" on="1"/>
        <pt x="372" y="648" on="1"/>
      </contour>
      <contour>
        <pt x="442" y="419" on="1"/>
        <pt x="324" y="460" on="1"/>
        <pt x="329" y="491" on="1"/>
        <pt x="459" y="533" on="1"/>
        <pt x="499" y="533" on="1"/>
        <pt x="482" y="419" on="1"/>
      </contour>
      <contour>
        <pt x="119" y="419" on="1"/>
        <pt x="78" y="419" on="1"/>
        <pt x="95" y="533" on="1"/>
        <pt x="136" y="533" on="1"/>
        <pt x="253" y="491" on="1"/>
        <pt x="249" y="460" on="1"/>
      </contour>
      <contour>
        <pt x="250" y="109" on="1"/>
        <pt x="219" y="109" on="1"/>
        <pt x="200" y="237" on="1"/>
        <pt x="210" y="310" on="1"/>
        <pt x="268" y="438" on="1"/>
        <pt x="299" y="438" on="1"/>
        <pt x="318" y="310" on="1"/>
        <pt x="308" y="237" on="1"/>
      </contour>
      <contour>
        <pt x="382" y="14" on="1"/>
        <pt x="264" y="56" on="1"/>
        <pt x="268" y="86" on="1"/>
        <pt x="399" y="127" on="1"/>
        <pt x="439" y="127" on="1"/>
        <pt x="422" y="14" on="1"/>
      </contour>
      <contour>
        <pt x="58" y="14" on="1"/>
        <pt x="19" y="14" on="1"/>
        <pt x="36" y="127" on="1"/>
        <pt x="75" y="127" on="1"/>
        <pt x="192" y="86" on="1"/>
        <pt x="188" y="56" on="1"/>
      </contour>
      <contour>
        <pt x="134" y="-180" on="1"/>
        <pt x="145" y="-102" on="1"/>
        <pt x="208" y="33" on="1"/>
        <pt x="238" y="33" on="1"/>
        <pt x="260" y="-102" on="1"/>
        <pt x="249" y="-180" on="1"/>
      </contour>
    </TTGlyph>
    <TTGlyph name="dcaron" xMin="31" yMin="-11" xMax="751" yMax="809">
      <component glyphName="caron.alt" x="376" y="16" flags="0x4"/>
      <component glyphName="d" x="0" y="0" flags="0x4"/>
    </TTGlyph>
    <TTGlyph name="dcroat" xMin="30" yMin="-11" xMax="634" yMax="809">
      <contour>
        <pt x="565" y="720" on="1"/>
        <pt x="634" y="720" on="1"/>
        <pt x="617" y="618" on="1"/>
        <pt x="550" y="618" on="1"/>
        <pt x="478" y="136" on="1"/>
        <pt x="478" y="0" on="1"/>
        <pt x="326" y="0" on="1"/>
        <pt x="320" y="83" on="1"/>
        <pt x="284" y="40" on="0"/>
        <pt x="213" y="-11" on="0"/>
        <pt x="171" y="-11" on="1"/>
        <pt x="107" y="-11" on="0"/>
        <pt x="30" y="91" on="0"/>
        <pt x="30" y="184" on="1"/>
        <pt x="30" y="272" on="0"/>
        <pt x="77" y="411" on="0"/>
        <pt x="157" y="506" on="0"/>
        <pt x="264" y="556" on="0"/>
        <pt x="324" y="556" on="1"/>
        <pt x="339" y="556" on="0"/>
        <pt x="367" y="552" on="0"/>
        <pt x="381" y="549" on="1"/>
        <pt x="391" y="619" on="1"/>
        <pt x="287" y="619" on="1"/>
        <pt x="287" y="720" on="1"/>
        <pt x="406" y="720" on="1"/>
        <pt x="415" y="783" on="1"/>
        <pt x="578" y="809" on="1"/>
      </contour>
      <contour>
        <pt x="361" y="420" on="1"/>
        <pt x="344" y="428" on="0"/>
        <pt x="321" y="428" on="1"/>
        <pt x="295" y="428" on="0"/>
        <pt x="249" y="397" on="0"/>
        <pt x="213" y="341" on="0"/>
        <pt x="192" y="262" on="0"/>
        <pt x="192" y="214" on="1"/>
        <pt x="192" y="132" on="0"/>
        <pt x="241" y="132" on="1"/>
        <pt x="261" y="132" on="0"/>
        <pt x="300" y="160" on="0"/>
        <pt x="326" y="188" on="1"/>
      </contour>
    </TTGlyph>
    <TTGlyph name="dcroat.flat" xMin="30" yMin="-11" xMax="634" yMax="809">
      <contour>
        <pt x="565" y="720" on="1"/>
        <pt x="634" y="720" on="1"/>
        <pt x="617" y="618" on="1"/>
        <pt x="550" y="618" on="1"/>
        <pt x="478" y="136" on="1"/>
        <pt x="478" y="0" on="1"/>
        <pt x="326" y="0" on="1"/>
        <pt x="320" y="83" on="1"/>
        <pt x="284" y="40" on="0"/>
        <pt x="213" y="-11" on="0"/>
        <pt x="171" y="-11" on="1"/>
        <pt x="107" y="-11" on="0"/>
        <pt x="30" y="91" on="0"/>
        <pt x="30" y="184" on="1"/>
        <pt x="30" y="272" on="0"/>
        <pt x="77" y="411" on="0"/>
        <pt x="157" y="506" on="0"/>
        <pt x="264" y="556" on="0"/>
        <pt x="324" y="556" on="1"/>
        <pt x="339" y="556" on="0"/>
        <pt x="367" y="552" on="0"/>
        <pt x="381" y="549" on="1"/>
        <pt x="391" y="619" on="1"/>
        <pt x="279" y="619" on="1"/>
        <pt x="295" y="720" on="1"/>
        <pt x="406" y="720" on="1"/>
        <pt x="415" y="783" on="1"/>
        <pt x="578" y="809" on="1"/>
      </contour>
      <contour>
        <pt x="361" y="420" on="1"/>
        <pt x="344" y="428" on="0"/>
        <pt x="321" y="428" on="1"/>
        <pt x="295" y="428" on="0"/>
        <pt x="249" y="397" on="0"/>
        <pt x="213" y="341" on="0"/>
        <pt x="192" y="262" on="0"/>
        <pt x="192" y="214" on="1"/>
        <pt x="192" y="132" on="0"/>
        <pt x="241" y="132" on="1"/>
        <pt x="261" y="132" on="0"/>
        <pt x="300" y="160" on="0"/>
        <pt x="326" y="188" on="1"/>
      </contour>
    </TTGlyph>
    <TTGlyph name="degree" xMin="90" yMin="382" xMax="433" yMax="725">
      <contour>
        <pt x="433" y="552" on="1"/>
        <pt x="433" y="515" on="0"/>
        <pt x="407" y="452" on="0"/>
        <pt x="362" y="407" on="0"/>
        <pt x="299" y="382" on="0"/>
        <pt x="262" y="382" on="1"/>
        <pt x="224" y="382" on="0"/>
        <pt x="161" y="407" on="0"/>
        <pt x="116" y="452" on="0"/>
        <pt x="90" y="515" on="0"/>
        <pt x="90" y="552" on="1"/>
        <pt x="90" y="589" on="0"/>
        <pt x="116" y="653" on="0"/>
        <pt x="161" y="699" on="0"/>
        <pt x="224" y="725" on="0"/>
        <pt x="262" y="725" on="1"/>
        <pt x="299" y="725" on="0"/>
        <pt x="362" y="699" on="0"/>
        <pt x="407" y="653" on="0"/>
        <pt x="433" y="589" on="0"/>
      </contour>
      <contour>
        <pt x="342" y="552" on="1"/>
        <pt x="342" y="589" on="0"/>
        <pt x="298" y="640" on="0"/>
        <pt x="262" y="640" on="1"/>
        <pt x="225" y="640" on="0"/>
        <pt x="181" y="589" on="0"/>
        <pt x="181" y="552" on="1"/>
        <pt x="181" y="514" on="0"/>
        <pt x="225" y="466" on="0"/>
        <pt x="262" y="466" on="1"/>
        <pt x="298" y="466" on="0"/>
        <pt x="342" y="514" on="0"/>
      </contour>
    </TTGlyph>
    <TTGlyph name="degree.tab" xMin="108" yMin="348" xMax="490" yMax="728">
      <contour>
        <pt x="299" y="348" on="1"/>
        <pt x="257" y="348" on="0"/>
        <pt x="187" y="376" on="0"/>
        <pt x="136" y="427" on="0"/>
        <pt x="108" y="496" on="0"/>
        <pt x="108" y="538" on="1"/>
        <pt x="108" y="579" on="0"/>
        <pt x="136" y="649" on="0"/>
        <pt x="187" y="700" on="0"/>
        <pt x="257" y="728" on="0"/>
        <pt x="299" y="728" on="1"/>
        <pt x="341" y="728" on="0"/>
        <pt x="411" y="700" on="0"/>
        <pt x="462" y="649" on="0"/>
        <pt x="490" y="579" on="0"/>
        <pt x="490" y="538" on="1"/>
        <pt x="490" y="496" on="0"/>
        <pt x="462" y="427" on="0"/>
        <pt x="411" y="376" on="0"/>
        <pt x="341" y="348" on="0"/>
      </contour>
      <contour>
        <pt x="299" y="644" on="1"/>
        <pt x="254" y="644" on="0"/>
        <pt x="201" y="583" on="0"/>
        <pt x="201" y="538" on="1"/>
        <pt x="201" y="492" on="0"/>
        <pt x="254" y="433" on="0"/>
        <pt x="299" y="433" on="1"/>
        <pt x="344" y="433" on="0"/>
        <pt x="399" y="492" on="0"/>
        <pt x="399" y="538" on="1"/>
        <pt x="399" y="583" on="0"/>
        <pt x="344" y="644" on="0"/>
      </contour>
    </TTGlyph>
    <TTGlyph name="dieresis" xMin="114" yMin="607" xMax="464" yMax="751">
      <contour>
        <pt x="309" y="607" on="1"/>
        <pt x="331" y="751" on="1"/>
        <pt x="464" y="751" on="1"/>
        <pt x="442" y="607" on="1"/>
      </contour>
      <contour>
        <pt x="114" y="607" on="1"/>
        <pt x="135" y="751" on="1"/>
        <pt x="268" y="751" on="1"/>
        <pt x="246" y="607" on="1"/>
      </contour>
    </TTGlyph>
    <TTGlyph name="dieresis.cap" xMin="106" yMin="569" xMax="436" yMax="705">
      <contour>
        <pt x="289" y="569" on="1"/>
        <pt x="310" y="705" on="1"/>
        <pt x="436" y="705" on="1"/>
        <pt x="415" y="569" on="1"/>
      </contour>
      <contour>
        <pt x="106" y="569" on="1"/>
        <pt x="126" y="705" on="1"/>
        <pt x="252" y="705" on="1"/>
        <pt x="231" y="569" on="1"/>
      </contour>
    </TTGlyph>
    <TTGlyph name="divide" xMin="59" yMin="101" xMax="517" yMax="616">
      <contour>
        <pt x="240" y="485" on="1"/>
        <pt x="260" y="616" on="1"/>
        <pt x="394" y="616" on="1"/>
        <pt x="374" y="485" on="1"/>
      </contour>
      <contour>
        <pt x="59" y="300" on="1"/>
        <pt x="78" y="418" on="1"/>
        <pt x="517" y="418" on="1"/>
        <pt x="499" y="300" on="1"/>
      </contour>
      <contour>
        <pt x="182" y="101" on="1"/>
        <pt x="202" y="233" on="1"/>
        <pt x="336" y="233" on="1"/>
        <pt x="316" y="101" on="1"/>
      </contour>
    </TTGlyph>
    <TTGlyph name="divide.tab" xMin="49" yMin="101" xMax="510" yMax="619">
      <contour>
        <pt x="232" y="490" on="1"/>
        <pt x="251" y="619" on="1"/>
        <pt x="386" y="619" on="1"/>
        <pt x="367" y="490" on="1"/>
      </contour>
      <contour>
        <pt x="49" y="302" on="1"/>
        <pt x="66" y="418" on="1"/>
        <pt x="510" y="418" on="1"/>
        <pt x="492" y="302" on="1"/>
      </contour>
      <contour>
        <pt x="173" y="101" on="1"/>
        <pt x="192" y="230" on="1"/>
        <pt x="327" y="230" on="1"/>
        <pt x="308" y="101" on="1"/>
      </contour>
    </TTGlyph>
    <TTGlyph name="dollar" xMin="4" yMin="-129" xMax="549" yMax="802">
      <contour>
        <pt x="437" y="708" on="1"/>
        <pt x="469" y="699" on="0"/>
        <pt x="526" y="674" on="0"/>
        <pt x="549" y="660" on="1"/>
        <pt x="505" y="527" on="1"/>
        <pt x="480" y="544" on="0"/>
        <pt x="422" y="573" on="0"/>
        <pt x="392" y="582" on="1"/>
        <pt x="344" y="425" on="1"/>
        <pt x="426" y="382" on="0"/>
        <pt x="503" y="289" on="0"/>
        <pt x="503" y="219" on="1"/>
        <pt x="503" y="166" on="0"/>
        <pt x="468" y="83" on="0"/>
        <pt x="405" y="25" on="0"/>
        <pt x="317" y="-5" on="0"/>
        <pt x="264" y="-5" on="1"/>
        <pt x="253" y="-5" on="0"/>
        <pt x="232" y="-4" on="0"/>
        <pt x="221" y="-3" on="1"/>
        <pt x="183" y="-129" on="1"/>
        <pt x="110" y="-111" on="1"/>
        <pt x="147" y="10" on="1"/>
        <pt x="105" y="21" on="0"/>
        <pt x="33" y="55" on="0"/>
        <pt x="4" y="72" on="1"/>
        <pt x="49" y="205" on="1"/>
        <pt x="81" y="183" on="0"/>
        <pt x="154" y="148" on="0"/>
        <pt x="192" y="137" on="1"/>
        <pt x="244" y="309" on="1"/>
        <pt x="167" y="349" on="0"/>
        <pt x="90" y="439" on="0"/>
        <pt x="90" y="507" on="1"/>
        <pt x="90" y="555" on="0"/>
        <pt x="123" y="635" on="0"/>
        <pt x="185" y="691" on="0"/>
        <pt x="272" y="722" on="0"/>
        <pt x="326" y="722" on="1"/>
        <pt x="335" y="722" on="0"/>
        <pt x="353" y="721" on="0"/>
        <pt x="362" y="721" on="1"/>
        <pt x="387" y="802" on="1"/>
        <pt x="461" y="783" on="1"/>
      </contour>
      <contour>
        <pt x="362" y="202" on="1"/>
        <pt x="362" y="225" on="0"/>
        <pt x="336" y="257" on="0"/>
        <pt x="300" y="278" on="1"/>
        <pt x="254" y="126" on="1"/>
        <pt x="258" y="125" on="0"/>
        <pt x="266" y="125" on="0"/>
        <pt x="270" y="125" on="1"/>
        <pt x="313" y="125" on="0"/>
        <pt x="362" y="167" on="0"/>
      </contour>
      <contour>
        <pt x="233" y="526" on="1"/>
        <pt x="233" y="506" on="0"/>
        <pt x="257" y="476" on="0"/>
        <pt x="288" y="457" on="1"/>
        <pt x="329" y="594" on="1"/>
        <pt x="317" y="594" on="1"/>
        <pt x="275" y="594" on="0"/>
        <pt x="233" y="555" on="0"/>
      </contour>
    </TTGlyph>
    <TTGlyph name="dollar.tab" xMin="-2" yMin="-126" xMax="533" yMax="799">
      <contour>
        <pt x="435" y="705" on="1"/>
        <pt x="463" y="697" on="0"/>
        <pt x="511" y="674" on="0"/>
        <pt x="533" y="660" on="1"/>
        <pt x="492" y="531" on="1"/>
        <pt x="472" y="546" on="0"/>
        <pt x="419" y="576" on="0"/>
        <pt x="390" y="587" on="1"/>
        <pt x="338" y="418" on="1"/>
        <pt x="379" y="395" on="0"/>
        <pt x="435" y="352" on="0"/>
        <pt x="470" y="304" on="0"/>
        <pt x="486" y="251" on="0"/>
        <pt x="486" y="218" on="1"/>
        <pt x="486" y="167" on="0"/>
        <pt x="451" y="84" on="0"/>
        <pt x="388" y="26" on="0"/>
        <pt x="300" y="-7" on="0"/>
        <pt x="247" y="-7" on="1"/>
        <pt x="237" y="-7" on="0"/>
        <pt x="219" y="-6" on="0"/>
        <pt x="210" y="-5" on="1"/>
        <pt x="173" y="-126" on="1"/>
        <pt x="96" y="-108" on="1"/>
        <pt x="133" y="11" on="1"/>
        <pt x="92" y="23" on="0"/>
        <pt x="24" y="57" on="0"/>
        <pt x="-2" y="74" on="1"/>
        <pt x="40" y="200" on="1"/>
        <pt x="69" y="179" on="0"/>
        <pt x="140" y="140" on="0"/>
        <pt x="177" y="129" on="1"/>
        <pt x="234" y="317" on="1"/>
        <pt x="198" y="336" on="0"/>
        <pt x="143" y="374" on="0"/>
        <pt x="107" y="419" on="0"/>
        <pt x="88" y="474" on="0"/>
        <pt x="88" y="510" on="1"/>
        <pt x="88" y="555" on="0"/>
        <pt x="117" y="632" on="0"/>
        <pt x="175" y="689" on="0"/>
        <pt x="261" y="722" on="0"/>
        <pt x="318" y="722" on="1"/>
        <pt x="329" y="722" on="0"/>
        <pt x="348" y="721" on="0"/>
        <pt x="358" y="720" on="1"/>
        <pt x="383" y="799" on="1"/>
        <pt x="459" y="780" on="1"/>
      </contour>
      <contour>
        <pt x="348" y="200" on="1"/>
        <pt x="348" y="223" on="0"/>
        <pt x="325" y="261" on="0"/>
        <pt x="291" y="284" on="1"/>
        <pt x="240" y="116" on="1"/>
        <pt x="252" y="116" on="1"/>
        <pt x="296" y="116" on="0"/>
        <pt x="348" y="163" on="0"/>
      </contour>
      <contour>
        <pt x="225" y="528" on="1"/>
        <pt x="225" y="504" on="0"/>
        <pt x="250" y="471" on="0"/>
        <pt x="282" y="451" on="1"/>
        <pt x="328" y="602" on="1"/>
        <pt x="323" y="603" on="0"/>
        <pt x="315" y="603" on="0"/>
        <pt x="311" y="603" on="1"/>
        <pt x="267" y="603" on="0"/>
        <pt x="225" y="559" on="0"/>
      </contour>
    </TTGlyph>
    <TTGlyph name="dotaccent" xMin="207" yMin="607" xMax="368" yMax="751">
      <contour>
        <pt x="207" y="607" on="1"/>
        <pt x="230" y="751" on="1"/>
        <pt x="368" y="751" on="1"/>
        <pt x="346" y="607" on="1"/>
      </contour>
    </TTGlyph>
    <TTGlyph name="dotaccent.cap" xMin="194" yMin="569" xMax="346" yMax="705">
      <contour>
        <pt x="194" y="569" on="1"/>
        <pt x="215" y="705" on="1"/>
        <pt x="346" y="705" on="1"/>
        <pt x="325" y="569" on="1"/>
      </contour>
    </TTGlyph>
    <TTGlyph name="dotlessi" xMin="19" yMin="0" xMax="263" yMax="550">
      <contour>
        <pt x="181" y="0" on="1"/>
        <pt x="19" y="0" on="1"/>
        <pt x="102" y="550" on="1"/>
        <pt x="263" y="550" on="1"/>
      </contour>
    </TTGlyph>
    <TTGlyph name="e" xMin="32" yMin="-11" xMax="488" yMax="561">
      <contour>
        <pt x="286" y="110" on="1"/>
        <pt x="326" y="110" on="0"/>
        <pt x="402" y="136" on="0"/>
        <pt x="440" y="158" on="1"/>
        <pt x="440" y="38" on="1"/>
        <pt x="397" y="15" on="0"/>
        <pt x="309" y="-11" on="0"/>
        <pt x="256" y="-11" on="1"/>
        <pt x="204" y="-11" on="0"/>
        <pt x="121" y="22" on="0"/>
        <pt x="63" y="83" on="0"/>
        <pt x="32" y="169" on="0"/>
        <pt x="32" y="222" on="1"/>
        <pt x="32" y="292" on="0"/>
        <pt x="72" y="415" on="0"/>
        <pt x="144" y="507" on="0"/>
        <pt x="244" y="561" on="0"/>
        <pt x="304" y="561" on="1"/>
        <pt x="350" y="561" on="0"/>
        <pt x="419" y="530" on="0"/>
        <pt x="465" y="475" on="0"/>
        <pt x="488" y="400" on="0"/>
        <pt x="488" y="356" on="1"/>
        <pt x="488" y="326" on="0"/>
        <pt x="479" y="262" on="0"/>
        <pt x="472" y="234" on="1"/>
        <pt x="185" y="234" on="1"/>
        <pt x="186" y="229" on="1"/>
        <pt x="186" y="166" on="0"/>
        <pt x="238" y="110" on="0"/>
      </contour>
      <contour>
        <pt x="292" y="449" on="1"/>
        <pt x="260" y="449" on="0"/>
        <pt x="211" y="381" on="0"/>
        <pt x="197" y="330" on="1"/>
        <pt x="340" y="330" on="1"/>
        <pt x="343" y="352" on="0"/>
        <pt x="343" y="371" on="1"/>
        <pt x="343" y="407" on="0"/>
        <pt x="318" y="449" on="0"/>
      </contour>
    </TTGlyph>
    <TTGlyph name="eacute" xMin="32" yMin="-11" xMax="526" yMax="776">
      <component glyphName="acute" x="95" y="2" flags="0x4"/>
      <component glyphName="e" x="0" y="0" flags="0x4"/>
    </TTGlyph>
    <TTGlyph name="ebreve" xMin="32" yMin="-11" xMax="498" yMax="772">
      <component glyphName="e" x="0" y="0" flags="0x204"/>
      <component glyphName="breve" x="39" y="2" flags="0x4"/>
    </TTGlyph>
    <TTGlyph name="ecaron" xMin="32" yMin="-11" xMax="511" yMax="772">
      <component glyphName="caron" x="37" y="2" flags="0x4"/>
      <component glyphName="e" x="0" y="0" flags="0x4"/>
    </TTGlyph>
    <TTGlyph name="ecircumflex" xMin="32" yMin="-11" xMax="488" yMax="773">
      <component glyphName="circumflex" x="34" y="2" flags="0x4"/>
      <component glyphName="e" x="0" y="0" flags="0x4"/>
    </TTGlyph>
    <TTGlyph name="edieresis" xMin="32" yMin="-11" xMax="501" yMax="753">
      <component glyphName="dieresis" x="37" y="2" flags="0x4"/>
      <component glyphName="e" x="0" y="0" flags="0x4"/>
    </TTGlyph>
    <TTGlyph name="edotaccent" xMin="32" yMin="-11" xMax="488" yMax="753">
      <component glyphName="e" x="0" y="0" flags="0x204"/>
      <component glyphName="dotaccent" x="38" y="2" flags="0x4"/>
    </TTGlyph>
    <TTGlyph name="egrave" xMin="32" yMin="-11" xMax="488" yMax="776">
      <component glyphName="e" x="0" y="0" flags="0x204"/>
      <component glyphName="grave" x="-31" y="2" flags="0x4"/>
    </TTGlyph>
    <TTGlyph name="eight" xMin="30" yMin="-13" xMax="565" yMax="731">
      <contour>
        <pt x="30" y="176" on="1"/>
        <pt x="30" y="243" on="0"/>
        <pt x="108" y="345" on="0"/>
        <pt x="180" y="382" on="1"/>
        <pt x="142" y="414" on="0"/>
        <pt x="101" y="488" on="0"/>
        <pt x="101" y="530" on="1"/>
        <pt x="101" y="572" on="0"/>
        <pt x="134" y="646" on="0"/>
        <pt x="197" y="700" on="0"/>
        <pt x="287" y="731" on="0"/>
        <pt x="343" y="731" on="1"/>
        <pt x="394" y="731" on="0"/>
        <pt x="476" y="705" on="0"/>
        <pt x="534" y="660" on="0"/>
        <pt x="565" y="597" on="0"/>
        <pt x="565" y="560" on="1"/>
        <pt x="565" y="502" on="0"/>
        <pt x="498" y="410" on="0"/>
        <pt x="434" y="375" on="1"/>
        <pt x="482" y="340" on="0"/>
        <pt x="531" y="258" on="0"/>
        <pt x="531" y="205" on="1"/>
        <pt x="531" y="159" on="0"/>
        <pt x="495" y="79" on="0"/>
        <pt x="429" y="21" on="0"/>
        <pt x="334" y="-13" on="0"/>
        <pt x="274" y="-13" on="1"/>
        <pt x="212" y="-13" on="0"/>
        <pt x="121" y="17" on="0"/>
        <pt x="60" y="69" on="0"/>
        <pt x="30" y="137" on="0"/>
      </contour>
      <contour>
        <pt x="187" y="188" on="1"/>
        <pt x="187" y="150" on="0"/>
        <pt x="236" y="103" on="0"/>
        <pt x="278" y="103" on="1"/>
        <pt x="321" y="103" on="0"/>
        <pt x="375" y="155" on="0"/>
        <pt x="375" y="198" on="1"/>
        <pt x="375" y="232" on="0"/>
        <pt x="330" y="288" on="0"/>
        <pt x="271" y="322" on="1"/>
        <pt x="187" y="264" on="0"/>
      </contour>
      <contour>
        <pt x="253" y="540" on="1"/>
        <pt x="253" y="510" on="0"/>
        <pt x="293" y="461" on="0"/>
        <pt x="339" y="433" on="1"/>
        <pt x="374" y="459" on="0"/>
        <pt x="413" y="517" on="0"/>
        <pt x="413" y="550" on="1"/>
        <pt x="413" y="581" on="0"/>
        <pt x="373" y="618" on="0"/>
        <pt x="337" y="618" on="1"/>
        <pt x="298" y="618" on="0"/>
        <pt x="253" y="572" on="0"/>
      </contour>
    </TTGlyph>
    <TTGlyph name="eight.den" xMin="17" yMin="-9" xMax="314" yMax="386">
      <component glyphName="eight.num" x="-51" y="-344" flags="0x204"/>
    </TTGlyph>
    <TTGlyph name="eight.inf" xMin="-8" yMin="-167" xMax="289" yMax="228">
      <component glyphName="eight.num" x="-76" y="-502" flags="0x204"/>
    </TTGlyph>
    <TTGlyph name="eight.num" xMin="68" yMin="335" xMax="365" yMax="730">
      <contour>
        <pt x="68" y="437" on="1"/>
        <pt x="68" y="470" on="0"/>
        <pt x="105" y="523" on="0"/>
        <pt x="146" y="543" on="1"/>
        <pt x="126" y="559" on="0"/>
        <pt x="101" y="597" on="0"/>
        <pt x="101" y="623" on="1"/>
        <pt x="101" y="645" on="0"/>
        <pt x="119" y="684" on="0"/>
        <pt x="155" y="713" on="0"/>
        <pt x="206" y="730" on="0"/>
        <pt x="239" y="730" on="1"/>
        <pt x="298" y="730" on="0"/>
        <pt x="365" y="677" on="0"/>
        <pt x="365" y="635" on="1"/>
        <pt x="365" y="599" on="0"/>
        <pt x="325" y="553" on="0"/>
        <pt x="293" y="536" on="1"/>
        <pt x="316" y="520" on="0"/>
        <pt x="346" y="480" on="0"/>
        <pt x="346" y="451" on="1"/>
        <pt x="346" y="403" on="0"/>
        <pt x="271" y="335" on="0"/>
        <pt x="202" y="335" on="1"/>
        <pt x="138" y="335" on="0"/>
        <pt x="68" y="392" on="0"/>
      </contour>
      <contour>
        <pt x="253" y="449" on="1"/>
        <pt x="253" y="469" on="0"/>
        <pt x="223" y="498" on="0"/>
        <pt x="197" y="512" on="1"/>
        <pt x="178" y="497" on="0"/>
        <pt x="161" y="464" on="0"/>
        <pt x="161" y="448" on="1"/>
        <pt x="161" y="428" on="0"/>
        <pt x="185" y="405" on="0"/>
        <pt x="205" y="405" on="1"/>
        <pt x="227" y="405" on="0"/>
        <pt x="253" y="431" on="0"/>
      </contour>
      <contour>
        <pt x="193" y="623" on="1"/>
        <pt x="193" y="605" on="0"/>
        <pt x="220" y="579" on="0"/>
        <pt x="243" y="565" on="1"/>
        <pt x="273" y="592" on="0"/>
        <pt x="273" y="622" on="1"/>
        <pt x="273" y="640" on="0"/>
        <pt x="252" y="662" on="0"/>
        <pt x="234" y="662" on="1"/>
        <pt x="216" y="662" on="0"/>
        <pt x="193" y="640" on="0"/>
      </contour>
    </TTGlyph>
    <TTGlyph name="eight.sup" xMin="82" yMin="433" xMax="379" yMax="828">
      <component glyphName="eight.num" x="14" y="98" flags="0x204"/>
    </TTGlyph>
</ttFont>
